<?xml version="1.0" encoding="utf-8"?>
<!-- Generator: Adobe Illustrator 16.0.0, SVG Export Plug-In . SVG Version: 6.00 Build 0)  -->
<!DOCTYPE svg PUBLIC "-//W3C//DTD SVG 1.1 Tiny//EN" "http://www.w3.org/Graphics/SVG/1.1/DTD/svg11-tiny.dtd">
<svg version="1.1" baseProfile="tiny" xmlns="http://www.w3.org/2000/svg" xmlns:xlink="http://www.w3.org/1999/xlink" x="0px"
	 y="0px" width="368.5px" height="226.77px" viewBox="0 0 368.5 226.77" xml:space="preserve">
<g id="图层_1">
	<image width="836" height="707" xlink:href="../x/001.jpg"  transform="matrix(1 0 0 1 -234 -240.23)">
	</image>
</g>
<g id="图层_2">
	
		<ellipse fill="none" stroke="#FF0000" stroke-width="0.25" stroke-miterlimit="10" cx="169.75" cy="56.269" rx="105.25" ry="93.001"/>
	
		<ellipse fill="none" stroke="#FF0000" stroke-width="0.25" stroke-miterlimit="10" cx="159.833" cy="-133.813" rx="8.917" ry="7.417"/>
	
		<ellipse fill="none" stroke="#FF0000" stroke-width="0.25" stroke-miterlimit="10" cx="183.75" cy="272.708" rx="10.625" ry="10.063"/>
	
		<ellipse transform="matrix(0.9917 -0.1286 0.1286 0.9917 -20.2241 -10.2904)" fill="none" stroke="#FF0000" stroke-width="0.25" stroke-miterlimit="10" cx="-89.794" cy="151.457" rx="14.598" ry="12.74"/>
	
		<ellipse fill="none" stroke="#FF0000" stroke-width="0.25" stroke-miterlimit="10" cx="-113.375" cy="-184.355" rx="8.125" ry="7.375"/>
	
		<ellipse transform="matrix(0.9775 -0.2109 0.2109 0.9775 24.9095 -18.7023)" fill="none" stroke="#FF0000" stroke-width="0.25" stroke-miterlimit="10" cx="-75.22" cy="-126.125" rx="12.25" ry="9.908"/>
	
		<ellipse transform="matrix(0.9889 -0.1484 0.1484 0.9889 15.9655 -8.2657)" fill="none" stroke="#FF0000" stroke-width="0.25" stroke-miterlimit="10" cx="-47.397" cy="-111.101" rx="8.82" ry="7.036"/>
	
		<ellipse transform="matrix(0.9918 -0.1277 0.1277 0.9918 10.177 -1.8743)" fill="none" stroke="#FF0000" stroke-width="0.25" stroke-miterlimit="10" cx="-9.531" cy="-80.319" rx="8.375" ry="7.01"/>
	
		<ellipse transform="matrix(0.992 -0.1262 0.1262 0.992 20.3446 2.8003)" fill="none" stroke="#FF0000" stroke-width="0.25" stroke-miterlimit="10" cx="32.281" cy="-159.224" rx="8.875" ry="6.69"/>
	
		<ellipse transform="matrix(0.9478 -0.3188 0.3188 0.9478 -5.6604 -26.0987)" fill="none" stroke="#FF0000" stroke-width="0.25" stroke-miterlimit="10" cx="-82.554" cy="4.241" rx="13" ry="11.491"/>
	
		<ellipse transform="matrix(0.9935 -0.1138 0.1138 0.9935 -8.8905 -5.7418)" fill="none" stroke="#FF0000" stroke-width="0.25" stroke-miterlimit="10" cx="-54.75" cy="75.02" rx="10" ry="8.5"/>
	
		<ellipse transform="matrix(0.9864 -0.1646 0.1646 0.9864 -12.2056 -1.0992)" fill="none" stroke="#FF0000" stroke-width="0.25" stroke-miterlimit="10" cx="-12.735" cy="73.099" rx="9.125" ry="7.93"/>
	<ellipse fill="none" stroke="#FF0000" stroke-width="0.25" stroke-miterlimit="10" cx="-130" cy="55.395" rx="8.75" ry="8.625"/>
	
		<ellipse transform="matrix(0.9236 -0.3835 0.3835 0.9236 -97.0168 12.6609)" fill="none" stroke="#FF0000" stroke-width="0.25" stroke-miterlimit="10" cx="-16.752" cy="249.667" rx="9.744" ry="9.08"/>
	
		<ellipse transform="matrix(0.9894 -0.1453 0.1453 0.9894 -43.5754 -6.093)" fill="none" stroke="#FF0000" stroke-width="0.25" stroke-miterlimit="10" cx="-63.5" cy="295.27" rx="11.5" ry="10"/>
	
		<ellipse transform="matrix(0.8854 -0.4648 0.4648 0.8854 -159.6277 -9.5797)" fill="none" stroke="#FF0000" stroke-width="0.25" stroke-miterlimit="10" cx="-99.245" cy="319" rx="15.237" ry="14.522"/>
	
		<ellipse transform="matrix(0.807 -0.5905 0.5905 0.807 -239.5574 -20.3819)" fill="none" stroke="#FF0000" stroke-width="0.25" stroke-miterlimit="10" cx="-150.964" cy="356.348" rx="11.375" ry="10.191"/>
	
		<ellipse transform="matrix(0.8849 -0.4658 0.4658 0.8849 -162.5085 55.8665)" fill="none" stroke="#FF0000" stroke-width="0.25" stroke-miterlimit="10" cx="31.783" cy="356.746" rx="10.875" ry="10.369"/>
	
		<ellipse transform="matrix(0.8517 -0.524 0.524 0.8517 -88.9975 53.6401)" fill="none" stroke="#FF0000" stroke-width="0.25" stroke-miterlimit="10" cx="50.276" cy="184.067" rx="7.458" ry="6.908"/>
	
		<ellipse transform="matrix(0.8864 -0.463 0.463 0.8864 -26.9959 30.6897)" fill="none" stroke="#FF0000" stroke-width="0.25" stroke-miterlimit="10" cx="49.021" cy="70.34" rx="6.976" ry="6.395"/>
	
		<ellipse transform="matrix(0.9349 -0.3549 0.3549 0.9349 15.1191 14.907)" fill="none" stroke="#FF0000" stroke-width="0.25" stroke-miterlimit="10" cx="48.196" cy="-33.761" rx="6.455" ry="5.937"/>
	
		<ellipse fill="none" stroke="#FF0000" stroke-width="0.25" stroke-miterlimit="10" cx="187.75" cy="340.895" rx="11.25" ry="10.5"/>
	
		<ellipse fill="none" stroke="#FF0000" stroke-width="0.25" stroke-miterlimit="10" cx="517.583" cy="317.521" rx="11.167" ry="10.999"/>
	
		<ellipse transform="matrix(0.8031 0.5959 -0.5959 0.8031 262.2322 -217.7801)" fill="none" stroke="#FF0000" stroke-width="0.25" stroke-miterlimit="10" cx="460.627" cy="287.879" rx="15.166" ry="13.442"/>
	
		<ellipse fill="none" stroke="#FF0000" stroke-width="0.25" stroke-miterlimit="10" cx="425.001" cy="268.128" rx="11.5" ry="10.374"/>
	
		<ellipse transform="matrix(0.9188 0.3946 -0.3946 0.9188 120.6064 -129.1497)" fill="none" stroke="#FF0000" stroke-width="0.25" stroke-miterlimit="10" cx="374.305" cy="228.655" rx="9.93" ry="9.022"/>
	
		<ellipse transform="matrix(0.9107 0.413 -0.413 0.9107 98.0122 -110.4525)" fill="none" stroke="#FF0000" stroke-width="0.25" stroke-miterlimit="10" cx="304.502" cy="171.494" rx="5.977" ry="5.653"/>
	
		<ellipse transform="matrix(0.8981 0.4397 -0.4397 0.8981 99.6791 -177.7134)" fill="none" stroke="#FF0000" stroke-width="0.25" stroke-miterlimit="10" cx="433.408" cy="126.286" rx="14.048" ry="12.278"/>
	
		<ellipse transform="matrix(0.9446 0.3283 -0.3283 0.9446 38.228 -112.0921)" fill="none" stroke="#FF0000" stroke-width="0.25" stroke-miterlimit="10" cx="351.055" cy="57.159" rx="9.429" ry="7.681"/>
	
		<ellipse transform="matrix(0.9729 0.2313 -0.2313 0.9729 23.4299 -88.907)" fill="none" stroke="#FF0000" stroke-width="0.25" stroke-miterlimit="10" cx="390.959" cy="55.49" rx="10.128" ry="8.138"/>
	
		<ellipse transform="matrix(0.9804 0.1971 -0.1971 0.9804 17.5393 -56.2423)" fill="none" stroke="#FF0000" stroke-width="0.25" stroke-miterlimit="10" cx="291.257" cy="59.973" rx="6.125" ry="5.426"/>
	
		<ellipse transform="matrix(0.9893 0.146 -0.146 0.9893 9.2758 -67.2707)" fill="none" stroke="#FF0000" stroke-width="0.25" stroke-miterlimit="10" cx="463.025" cy="29.57" rx="10.293" ry="8.562"/>
	
		<ellipse transform="matrix(0.9727 0.232 -0.232 0.9727 7.5171 -95.5025)" fill="none" stroke="#FF0000" stroke-width="0.25" stroke-miterlimit="10" cx="409.859" cy="-15.787" rx="13.481" ry="10.663"/>
	
		<ellipse transform="matrix(0.993 0.1185 -0.1185 0.993 -8.7117 -39.8508)" fill="none" stroke="#FF0000" stroke-width="0.25" stroke-miterlimit="10" cx="330.798" cy="-93.193" rx="8.362" ry="6.502"/>
	
		<ellipse fill="none" stroke="#FF0000" stroke-width="0.25" stroke-miterlimit="10" cx="280.688" cy="-42.459" rx="5.688" ry="4.938"/>
	
		<ellipse fill="none" stroke="#FF0000" stroke-width="0.25" stroke-miterlimit="10" cx="364.438" cy="-125.792" rx="9.438" ry="6.625"/>
	
		<ellipse transform="matrix(0.9778 0.2094 -0.2094 0.9778 -21.2605 -84.6656)" fill="none" stroke="#FF0000" stroke-width="0.25" stroke-miterlimit="10" cx="389.16" cy="-142.725" rx="12.064" ry="9.05"/>
	
		<ellipse transform="matrix(0.9774 0.2112 -0.2112 0.9774 -33.0704 -93.3259)" fill="none" stroke="#FF0000" stroke-width="0.25" stroke-miterlimit="10" cx="420.301" cy="-201.458" rx="8.622" ry="6.747"/>
	<ellipse fill="none" stroke="#FF0000" stroke-width="0.25" stroke-miterlimit="10" cx="156.834" cy="-179.484" rx="9" ry="6.583"/>
	
		<ellipse transform="matrix(0.9816 0.1911 -0.1911 0.9816 -26.8455 -56.7498)" fill="none" stroke="#FF0000" stroke-width="0.25" stroke-miterlimit="10" cx="280.788" cy="-167.551" rx="8.39" ry="7.03"/>
	
		<ellipse fill="none" stroke="#FF0000" stroke-width="0.25" stroke-miterlimit="10" cx="340.75" cy="339.378" rx="10.25" ry="10.374"/>
</g>
</svg>
