<?xml version="1.0" encoding="iso-8859-1"?>
<!-- Generator: Adobe Illustrator 16.0.0, SVG Export Plug-In . SVG Version: 6.00 Build 0)  -->
<!DOCTYPE svg PUBLIC "-//W3C//DTD SVG 1.1//EN" "http://www.w3.org/Graphics/SVG/1.1/DTD/svg11.dtd">
<svg version="1.1" xmlns="http://www.w3.org/2000/svg" xmlns:xlink="http://www.w3.org/1999/xlink" x="0px" y="0px" width="368.5px"
	 height="226.77px" viewBox="0 0 368.5 226.77" style="enable-background:new 0 0 368.5 226.77;" xml:space="preserve">
<g id="&#x56FE;&#x5C42;_1">
	<image style="overflow:visible;" width="500" height="368" xlink:href="../x/002.jpg"  transform="matrix(1 0 0 1 -66 -70.23)">
	</image>
</g>
<g id="&#x56FE;&#x5C42;_2">
	
		<ellipse transform="matrix(0.9223 0.3864 -0.3864 0.9223 24.322 -142.7915)" style="fill:none;stroke:#FF0000;stroke-width:0.25;stroke-miterlimit:10;" cx="367.352" cy="-10.895" rx="19.596" ry="18.916"/>
	
		<ellipse style="fill:none;stroke:#FF0000;stroke-width:0.25;stroke-miterlimit:10;" cx="387.333" cy="80.01" rx="18.833" ry="19.583"/>
	
		<ellipse style="fill:none;stroke:#FF0000;stroke-width:0.25;stroke-miterlimit:10;" cx="373.917" cy="168.16" rx="26.583" ry="27.417"/>
	
		<ellipse transform="matrix(0.803 0.596 -0.596 0.803 230.0602 -170.7176)" style="fill:none;stroke:#FF0000;stroke-width:0.25;stroke-miterlimit:10;" cx="373.267" cy="262.643" rx="26.012" ry="27.523"/>
	
		<ellipse style="fill:none;stroke:#FF0000;stroke-width:0.25;stroke-miterlimit:10;" cx="347.5" cy="295.708" rx="6.75" ry="6.563"/>
	<circle style="fill:none;stroke:#FF0000;stroke-width:0.25;stroke-miterlimit:10;" cx="418.313" cy="282.083" r="6.313"/>
	
		<ellipse style="fill:none;stroke:#FF0000;stroke-width:0.25;stroke-miterlimit:10;" cx="418.5" cy="188.145" rx="6.375" ry="6.25"/>
	
		<ellipse style="fill:none;stroke:#FF0000;stroke-width:0.25;stroke-miterlimit:10;" cx="347.5" cy="199.458" rx="6.75" ry="6.563"/>
	
		<ellipse style="fill:none;stroke:#FF0000;stroke-width:0.25;stroke-miterlimit:10;" cx="418.5" cy="147.131" rx="6.375" ry="6.389"/>
	
		<ellipse style="fill:none;stroke:#FF0000;stroke-width:0.25;stroke-miterlimit:10;" cx="348.125" cy="137.458" rx="6.75" ry="6.313"/>
	
		<ellipse transform="matrix(0.7171 0.697 -0.697 0.7171 165.7735 -272.8326)" style="fill:none;stroke:#FF0000;stroke-width:0.25;stroke-miterlimit:10;" cx="418.939" cy="67.77" rx="6.263" ry="5.796"/>
	
		<ellipse transform="matrix(0.8503 0.5262 -0.5262 0.8503 82.7262 -174.6902)" style="fill:none;stroke:#FF0000;stroke-width:0.25;stroke-miterlimit:10;" cx="348.487" cy="58.096" rx="7.139" ry="6.13"/>
	
		<ellipse style="fill:none;stroke:#FF0000;stroke-width:0.25;stroke-miterlimit:10;" cx="348.646" cy="21.937" rx="4.604" ry="4.5"/>
	
		<ellipse transform="matrix(0.8777 0.4792 -0.4792 0.8777 54.3667 -190.8332)" style="fill:none;stroke:#FF0000;stroke-width:0.25;stroke-miterlimit:10;" cx="401.034" cy="11.09" rx="6.02" ry="5.207"/>
	
		<ellipse transform="matrix(0.9197 0.3926 -0.3926 0.9197 22.1385 -159.4576)" style="fill:none;stroke:#FF0000;stroke-width:0.25;stroke-miterlimit:10;" cx="400.906" cy="-25.605" rx="6.031" ry="5"/>
	
		<ellipse transform="matrix(0.912 0.4101 -0.4101 0.912 14.5632 -146.5536)" style="fill:none;stroke:#FF0000;stroke-width:0.25;stroke-miterlimit:10;" cx="348.922" cy="-39.328" rx="6.7" ry="5.241"/>
	
		<ellipse transform="matrix(0.9939 0.1107 -0.1107 0.9939 32.5795 -26.132)" style="fill:none;stroke:#FF0000;stroke-width:0.25;stroke-miterlimit:10;" cx="251.625" cy="280.333" rx="14.75" ry="12.438"/>
	
		<ellipse style="fill:none;stroke:#FF0000;stroke-width:0.25;stroke-miterlimit:10;" cx="273.875" cy="261.489" rx="4.938" ry="4.719"/>
	
		<ellipse transform="matrix(0.7214 -0.6925 0.6925 0.7214 -90.5819 241.212)" style="fill:none;stroke:#FF0000;stroke-width:0.25;stroke-miterlimit:10;" cx="254.505" cy="233.188" rx="19.077" ry="17.833"/>
	
		<ellipse transform="matrix(0.8267 -0.5627 0.5627 0.8267 -64.6762 183.3379)" style="fill:none;stroke:#FF0000;stroke-width:0.25;stroke-miterlimit:10;" cx="265.263" cy="196.654" rx="15.114" ry="14.416"/>
	<ellipse style="fill:none;stroke:#FF0000;stroke-width:0.25;stroke-miterlimit:10;" cx="237.959" cy="188.092" rx="5.125" ry="5"/>
	
		<ellipse transform="matrix(0.9639 0.2664 -0.2664 0.9639 63.2847 -55.8163)" style="fill:none;stroke:#FF0000;stroke-width:0.25;stroke-miterlimit:10;" cx="237.405" cy="205.386" rx="5.378" ry="4.768"/>
	
		<ellipse style="fill:none;stroke:#FF0000;stroke-width:0.25;stroke-miterlimit:10;" cx="257.896" cy="159" rx="19.938" ry="18.917"/>
	
		<ellipse style="fill:none;stroke:#FF0000;stroke-width:0.25;stroke-miterlimit:10;" cx="260.292" cy="92.627" rx="19.625" ry="19.708"/>
	
		<ellipse style="fill:none;stroke:#FF0000;stroke-width:0.25;stroke-miterlimit:10;" cx="261.292" cy="53.187" rx="15.542" ry="15.25"/>
	
		<ellipse transform="matrix(0.9655 0.2603 -0.2603 0.9655 12.9378 -68.1717)" style="fill:none;stroke:#FF0000;stroke-width:0.25;stroke-miterlimit:10;" cx="263.838" cy="14.758" rx="18.75" ry="17.476"/>
	
		<ellipse transform="matrix(0.8618 0.5073 -0.5073 0.8618 30.3853 -144.4848)" style="fill:none;stroke:#FF0000;stroke-width:0.25;stroke-miterlimit:10;" cx="280.343" cy="-16.481" rx="15.493" ry="14.937"/>
	
		<ellipse transform="matrix(-0.6291 0.7773 -0.7773 -0.6291 391.6165 -247.5611)" style="fill:none;stroke:#FF0000;stroke-width:0.25;stroke-miterlimit:10;" cx="254.871" cy="-30.349" rx="7.625" ry="8.55"/>
	
		<ellipse style="fill:none;stroke:#FF0000;stroke-width:0.25;stroke-miterlimit:10;" cx="246.459" cy="-15.188" rx="4.625" ry="4.042"/>
	
		<ellipse style="fill:none;stroke:#FF0000;stroke-width:0.25;stroke-miterlimit:10;" cx="282.292" cy="44.02" rx="4.208" ry="3.917"/>
	
		<ellipse transform="matrix(0.9184 0.3956 -0.3956 0.9184 48.6508 -106.1814)" style="fill:none;stroke:#FF0000;stroke-width:0.25;stroke-miterlimit:10;" cx="281.752" cy="64.859" rx="4.798" ry="3.878"/>
	
		<ellipse style="fill:none;stroke:#FF0000;stroke-width:0.25;stroke-miterlimit:10;" cx="284.125" cy="118.095" rx="5.792" ry="5.76"/>
	
		<ellipse style="fill:none;stroke:#FF0000;stroke-width:0.25;stroke-miterlimit:10;" cx="278.771" cy="131.936" rx="5.354" ry="4.75"/>
	
		<ellipse style="fill:none;stroke:#FF0000;stroke-width:0.25;stroke-miterlimit:10;" cx="240.292" cy="120.394" rx="5.708" ry="5.376"/>
	
		<ellipse transform="matrix(0.9123 -0.4096 0.4096 0.9123 9.965 -2.3706)" style="fill:none;stroke:#FF0000;stroke-width:0.25;stroke-miterlimit:10;" cx="-0.551" cy="-24.445" rx="4.941" ry="4.189"/>
	
		<ellipse transform="matrix(0.9315 -0.3637 0.3637 0.9315 11.0091 16.0876)" style="fill:none;stroke:#FF0000;stroke-width:0.25;stroke-miterlimit:10;" cx="48.226" cy="-21.191" rx="4.789" ry="4.542"/>
	<ellipse style="fill:none;stroke:#FF0000;stroke-width:0.25;stroke-miterlimit:10;" cx="91.438" cy="-21.824" rx="5" ry="4.344"/>
	
		<ellipse style="fill:none;stroke:#FF0000;stroke-width:0.25;stroke-miterlimit:10;" cx="145.281" cy="-20.48" rx="4.906" ry="4.5"/>
	
		<ellipse style="fill:none;stroke:#FF0000;stroke-width:0.25;stroke-miterlimit:10;" cx="193.531" cy="-12.292" rx="4.719" ry="4.688"/>
	
		<ellipse style="fill:none;stroke:#FF0000;stroke-width:0.25;stroke-miterlimit:10;" cx="46.063" cy="50.646" rx="5.479" ry="5.542"/>
	
		<ellipse transform="matrix(0.8974 0.4413 -0.4413 0.8974 29.4997 10.8954)" style="fill:none;stroke:#FF0000;stroke-width:0.25;stroke-miterlimit:10;" cx="-8.675" cy="68.87" rx="4.752" ry="5.163"/>
	<circle style="fill:none;stroke:#FF0000;stroke-width:0.25;stroke-miterlimit:10;" cx="-13.042" cy="115.687" r="5.167"/>
	<ellipse style="fill:none;stroke:#FF0000;stroke-width:0.25;stroke-miterlimit:10;" cx="43.125" cy="114.301" rx="5" ry="5.469"/>
	
		<ellipse transform="matrix(0.7564 0.6541 -0.6541 0.7564 101.0563 -34.5648)" style="fill:none;stroke:#FF0000;stroke-width:0.25;stroke-miterlimit:10;" cx="96.938" cy="118.405" rx="5.505" ry="5.649"/>
	
		<ellipse style="fill:none;stroke:#FF0000;stroke-width:0.25;stroke-miterlimit:10;" cx="143.438" cy="119.562" rx="5.479" ry="5.541"/>
	
		<ellipse style="fill:none;stroke:#FF0000;stroke-width:0.25;stroke-miterlimit:10;" cx="197.833" cy="121.729" rx="5.583" ry="5.666"/>
	
		<ellipse style="fill:none;stroke:#FF0000;stroke-width:0.25;stroke-miterlimit:10;" cx="196.219" cy="71.879" rx="4.969" ry="4.953"/>
	
		<ellipse transform="matrix(0.7751 -0.6319 0.6319 0.7751 0.3275 103.5099)" style="fill:none;stroke:#FF0000;stroke-width:0.25;stroke-miterlimit:10;" cx="145.552" cy="51.295" rx="5.083" ry="5.299"/>
	<ellipse style="fill:none;stroke:#FF0000;stroke-width:0.25;stroke-miterlimit:10;" cx="98.125" cy="72.418" rx="5.5" ry="5.438"/>
	<circle style="fill:none;stroke:#FF0000;stroke-width:0.25;stroke-miterlimit:10;" cx="-51.844" cy="266.614" r="4.406"/>
	
		<ellipse style="fill:none;stroke:#FF0000;stroke-width:0.25;stroke-miterlimit:10;" cx="-34.25" cy="269.426" rx="4.563" ry="4.906"/>
	
		<ellipse style="fill:none;stroke:#FF0000;stroke-width:0.25;stroke-miterlimit:10;" cx="-34.438" cy="250.114" rx="4.75" ry="5.344"/>
	<ellipse style="fill:none;stroke:#FF0000;stroke-width:0.25;stroke-miterlimit:10;" cx="-6.125" cy="248.145" rx="8" ry="8.75"/>
	
		<ellipse style="fill:none;stroke:#FF0000;stroke-width:0.25;stroke-miterlimit:10;" cx="38.938" cy="268.958" rx="7.563" ry="7.813"/>
	
		<ellipse style="fill:none;stroke:#FF0000;stroke-width:0.25;stroke-miterlimit:10;" cx="90.688" cy="248.77" rx="7.438" ry="8.125"/>
	<ellipse style="fill:none;stroke:#FF0000;stroke-width:0.25;stroke-miterlimit:10;" cx="63.5" cy="214.583" rx="4.5" ry="4.688"/>
	
		<ellipse style="fill:none;stroke:#FF0000;stroke-width:0.25;stroke-miterlimit:10;" cx="63.813" cy="213.395" rx="11.813" ry="11.625"/>
	<ellipse style="fill:none;stroke:#FF0000;stroke-width:0.25;stroke-miterlimit:10;" cx="15.25" cy="206.77" rx="5.125" ry="5"/>
	
		<ellipse transform="matrix(0.9207 0.3902 -0.3902 0.9207 74.7608 9.02)" style="fill:none;stroke:#FF0000;stroke-width:0.25;stroke-miterlimit:10;" cx="15.181" cy="188.509" rx="4.813" ry="5.102"/>
	<ellipse style="fill:none;stroke:#FF0000;stroke-width:0.25;stroke-miterlimit:10;" cx="15.348" cy="171.02" rx="5.027" ry="5"/>
	
		<ellipse style="fill:none;stroke:#FF0000;stroke-width:0.25;stroke-miterlimit:10;" cx="87.938" cy="178.859" rx="4.563" ry="4.59"/>
	<circle style="fill:none;stroke:#FF0000;stroke-width:0.25;stroke-miterlimit:10;" cx="46.063" cy="177.708" r="4.438"/>
	
		<ellipse style="fill:none;stroke:#FF0000;stroke-width:0.25;stroke-miterlimit:10;" cx="-6.25" cy="176.958" rx="7.75" ry="7.813"/>
	
		<ellipse style="fill:none;stroke:#FF0000;stroke-width:0.25;stroke-miterlimit:10;" cx="-50.625" cy="186.27" rx="4.625" ry="4.875"/>
	
		<ellipse transform="matrix(0.6938 -0.7202 0.7202 0.6938 -148.3683 186.2544)" style="fill:none;stroke:#FF0000;stroke-width:0.25;stroke-miterlimit:10;" cx="144.852" cy="267.609" rx="8.22" ry="7.548"/>
	
		<ellipse style="fill:none;stroke:#FF0000;stroke-width:0.25;stroke-miterlimit:10;" cx="138.063" cy="216.333" rx="7.563" ry="7.313"/>
	
		<ellipse style="fill:none;stroke:#FF0000;stroke-width:0.25;stroke-miterlimit:10;" cx="137.688" cy="173.77" rx="7.938" ry="7.375"/>
	
		<ellipse style="fill:none;stroke:#FF0000;stroke-width:0.25;stroke-miterlimit:10;" cx="-4.417" cy="16.312" rx="4.417" ry="4.542"/>
</g>
</svg>
