<?xml version="1.0" encoding="utf-8"?>
<!-- Generator: Adobe Illustrator 16.0.0, SVG Export Plug-In . SVG Version: 6.00 Build 0)  -->
<!DOCTYPE svg PUBLIC "-//W3C//DTD SVG 1.1 Tiny//EN" "http://www.w3.org/Graphics/SVG/1.1/DTD/svg11-tiny.dtd">
<svg version="1.1" baseProfile="tiny" xmlns="http://www.w3.org/2000/svg" xmlns:xlink="http://www.w3.org/1999/xlink" x="0px"
	 y="0px" width="368.5px" height="226.77px" viewBox="0 0 368.5 226.77" xml:space="preserve">
<g id="图层_1">
	<image width="548" height="577" xlink:href="../x/004.jpg"  transform="matrix(1 0 0 1 -90 -175.23)">
	</image>
</g>
<g id="图层_2">
	
		<ellipse fill="none" stroke="#FF0000" stroke-width="0.25" stroke-miterlimit="10" cx="57.688" cy="-144.042" rx="8.938" ry="9.063"/>
	
		<ellipse fill="none" stroke="#FF0000" stroke-width="0.25" stroke-miterlimit="10" cx="51.063" cy="-96.73" rx="8.563" ry="8.625"/>
	<ellipse fill="none" stroke="#FF0000" stroke-width="0.25" stroke-miterlimit="10" cx="-58.75" cy="-127.23" rx="9.875" ry="10"/>
	
		<ellipse fill="none" stroke="#FF0000" stroke-width="0.25" stroke-miterlimit="10" cx="-79.75" cy="-155.667" rx="8.5" ry="8.813"/>
	
		<ellipse fill="none" stroke="#FF0000" stroke-width="0.25" stroke-miterlimit="10" cx="216.563" cy="-125.803" rx="8.813" ry="9.073"/>
	
		<ellipse transform="matrix(0.9551 -0.2962 0.2962 0.9551 57.5912 91.3907)" fill="none" stroke="#FF0000" stroke-width="0.25" stroke-miterlimit="10" cx="330.468" cy="-144.408" rx="8.358" ry="8.754"/>
	
		<ellipse transform="matrix(0.8202 -0.5721 0.5721 0.8202 155.7823 217.2487)" fill="none" stroke="#FF0000" stroke-width="0.25" stroke-miterlimit="10" cx="423.472" cy="-139.181" rx="7.854" ry="8.625"/>
	
		<ellipse transform="matrix(0.8422 -0.5391 0.5391 0.8422 67.8744 221.9172)" fill="none" stroke="#FF0000" stroke-width="0.25" stroke-miterlimit="10" cx="413.098" cy="-5.01" rx="8.421" ry="8.955"/>
	
		<ellipse transform="matrix(0.9295 -0.3688 0.3688 0.9295 16.3586 115.2207)" fill="none" stroke="#FF0000" stroke-width="0.25" stroke-miterlimit="10" cx="309.625" cy="14.812" rx="8.542" ry="9.125"/>
	
		<ellipse transform="matrix(0.8677 -0.4971 0.4971 0.8677 13.8487 116.4903)" fill="none" stroke="#FF0000" stroke-width="0.25" stroke-miterlimit="10" cx="225.757" cy="32.23" rx="9.397" ry="9.505"/>
	
		<ellipse fill="none" stroke="#FF0000" stroke-width="0.25" stroke-miterlimit="10" cx="214.875" cy="60.958" rx="13.375" ry="13.813"/>
	
		<ellipse fill="none" stroke="#FF0000" stroke-width="0.25" stroke-miterlimit="10" cx="149.594" cy="104.989" rx="8.781" ry="8.844"/>
	
		<ellipse fill="none" stroke="#FF0000" stroke-width="0.25" stroke-miterlimit="10" cx="105.656" cy="117.583" rx="9.656" ry="9.313"/>
	
		<ellipse fill="none" stroke="#FF0000" stroke-width="0.25" stroke-miterlimit="10" cx="15.531" cy="144.77" rx="9.344" ry="9.813"/>
	
		<ellipse fill="none" stroke="#FF0000" stroke-width="0.25" stroke-miterlimit="10" cx="-21.344" cy="183.583" rx="8.656" ry="9.188"/>
	
		<ellipse fill="none" stroke="#FF0000" stroke-width="0.25" stroke-miterlimit="10" cx="73.688" cy="196.895" rx="9.25" ry="9.563"/>
	
		<ellipse fill="none" stroke="#FF0000" stroke-width="0.25" stroke-miterlimit="10" cx="93.75" cy="232.271" rx="13.333" ry="13.499"/>
	
		<ellipse fill="none" stroke="#FF0000" stroke-width="0.25" stroke-miterlimit="10" cx="68.063" cy="268.52" rx="9.188" ry="9.438"/>
	
		<ellipse fill="none" stroke="#FF0000" stroke-width="0.25" stroke-miterlimit="10" cx="68.969" cy="322.52" rx="8.719" ry="8.625"/>
	
		<ellipse fill="none" stroke="#FF0000" stroke-width="0.25" stroke-miterlimit="10" cx="79.969" cy="367.301" rx="9.219" ry="8.969"/>
	
		<ellipse fill="none" stroke="#FF0000" stroke-width="0.25" stroke-miterlimit="10" cx="179.344" cy="337.489" rx="9.031" ry="9.344"/>
	
		<ellipse fill="none" stroke="#FF0000" stroke-width="0.25" stroke-miterlimit="10" cx="182.094" cy="293.708" rx="8.406" ry="8.625"/>
	
		<ellipse transform="matrix(0.9027 0.4302 -0.4302 0.9027 163.6196 -100.7604)" fill="none" stroke="#FF0000" stroke-width="0.25" stroke-miterlimit="10" cx="304.656" cy="311.489" rx="8.656" ry="9.281"/>
	
		<ellipse fill="none" stroke="#FF0000" stroke-width="0.25" stroke-miterlimit="10" cx="320.313" cy="368.77" rx="8.875" ry="9.25"/>
	
		<ellipse fill="none" stroke="#FF0000" stroke-width="0.25" stroke-miterlimit="10" cx="407.719" cy="345.301" rx="9.094" ry="9.344"/>
	
		<ellipse fill="none" stroke="#FF0000" stroke-width="0.25" stroke-miterlimit="10" cx="411.031" cy="289.301" rx="8.781" ry="9.156"/>
	
		<ellipse transform="matrix(0.9816 0.191 -0.191 0.9816 51.5959 -73.1431)" fill="none" stroke="#FF0000" stroke-width="0.25" stroke-miterlimit="10" cx="405.282" cy="231.12" rx="38.667" ry="41.19"/>
	
		<ellipse transform="matrix(0.9775 0.2108 -0.2108 0.9775 57.8654 -80.4761)" fill="none" stroke="#FF0000" stroke-width="0.25" stroke-miterlimit="10" cx="406.401" cy="231.176" rx="49.598" ry="51.225"/>
	
		<ellipse fill="none" stroke="#FF0000" stroke-width="0.25" stroke-miterlimit="10" cx="413.875" cy="130.229" rx="8.792" ry="9.208"/>
	
		<ellipse transform="matrix(0.9076 0.4199 -0.4199 0.9076 72.7646 -141.2775)" fill="none" stroke="#FF0000" stroke-width="0.25" stroke-miterlimit="10" cx="357.292" cy="94.645" rx="8.875" ry="9.375"/>
	
		<ellipse fill="none" stroke="#FF0000" stroke-width="0.25" stroke-miterlimit="10" cx="300.914" cy="135.604" rx="8.67" ry="9.416"/>
	
		<ellipse fill="none" stroke="#FF0000" stroke-width="0.25" stroke-miterlimit="10" cx="292.219" cy="188.458" rx="9.344" ry="9.5"/>
	
		<ellipse fill="none" stroke="#FF0000" stroke-width="0.25" stroke-miterlimit="10" cx="194.5" cy="213.301" rx="8.938" ry="9.281"/>
	
		<ellipse fill="none" stroke="#FF0000" stroke-width="0.25" stroke-miterlimit="10" cx="178.156" cy="140.801" rx="9.094" ry="9.594"/>
	
		<ellipse fill="none" stroke="#FF0000" stroke-width="0.25" stroke-miterlimit="10" cx="126.292" cy="181.437" rx="13.042" ry="13.333"/>
	
		<ellipse fill="none" stroke="#FF0000" stroke-width="0.25" stroke-miterlimit="10" cx="230.584" cy="-53.729" rx="16.25" ry="16.5"/>
	
		<ellipse fill="none" stroke="#FF0000" stroke-width="0.25" stroke-miterlimit="10" cx="57.208" cy="-12.563" rx="9.208" ry="9.583"/>
	<ellipse fill="none" stroke="#FF0000" stroke-width="0.25" stroke-miterlimit="10" cx="-58.448" cy="36.958" rx="9.51" ry="9.5"/>
	
		<ellipse fill="none" stroke="#FF0000" stroke-width="0.25" stroke-miterlimit="10" cx="-61.458" cy="67.686" rx="12.458" ry="12.75"/>
	<ellipse fill="none" stroke="#FF0000" stroke-width="0.25" stroke-miterlimit="10" cx="-31.5" cy="82.227" rx="9.417" ry="9.375"/>
	
		<ellipse fill="none" stroke="#FF0000" stroke-width="0.25" stroke-miterlimit="10" cx="46.708" cy="121.813" rx="8.958" ry="8.874"/>
	
		<ellipse fill="none" stroke="#FF0000" stroke-width="0.25" stroke-miterlimit="10" cx="233.313" cy="117.208" rx="16.688" ry="16.563"/>
	
		<ellipse fill="none" stroke="#FF0000" stroke-width="0.25" stroke-miterlimit="10" cx="308.042" cy="67.187" rx="10.209" ry="10.083"/>
	<ellipse fill="none" stroke="#FF0000" stroke-width="0.25" stroke-miterlimit="10" cx="408.583" cy="23.938" rx="8.917" ry="9.5"/>
</g>
</svg>
