<?xml version="1.0" encoding="utf-8"?>
<!-- Generator: Adobe Illustrator 16.0.0, SVG Export Plug-In . SVG Version: 6.00 Build 0)  -->
<!DOCTYPE svg PUBLIC "-//W3C//DTD SVG 1.1 Tiny//EN" "http://www.w3.org/Graphics/SVG/1.1/DTD/svg11-tiny.dtd">
<svg version="1.1" baseProfile="tiny" xmlns="http://www.w3.org/2000/svg" xmlns:xlink="http://www.w3.org/1999/xlink" x="0px"
	 y="0px" width="225px" height="225px" viewBox="0 0 225 225" xml:space="preserve">
<g id="图层_1">
	<image width="300" height="300" xlink:href="../x/005.jpg"  transform="matrix(0.75 0 0 0.75 0 0)">
	</image>
</g>
<g id="图层_2">
	
		<ellipse transform="matrix(0.979 0.2037 -0.2037 0.979 19.7443 -21.7205)" fill="none" stroke="#FF0000" stroke-width="0.25" stroke-miterlimit="10" cx="115.386" cy="85.054" rx="51.765" ry="47.884"/>
	
		<ellipse transform="matrix(0.9983 0.0574 -0.0574 0.9983 5.3308 -6.4536)" fill="none" stroke="#FF0000" stroke-width="0.25" stroke-miterlimit="10" cx="114.915" cy="89.494" rx="60.57" ry="57.549"/>
	
		<ellipse transform="matrix(0.9668 0.2556 -0.2556 0.9668 26.6681 -26.507)" fill="none" stroke="#FF0000" stroke-width="0.25" stroke-miterlimit="10" cx="115.331" cy="89.364" rx="67.243" ry="62.876"/>
	
		<ellipse transform="matrix(0.9697 0.2445 -0.2445 0.9697 25.6005 -25.4955)" fill="none" stroke="#FF0000" stroke-width="0.25" stroke-miterlimit="10" cx="115.5" cy="90.375" rx="73.75" ry="69.375"/>
	
		<ellipse transform="matrix(0.8975 0.4411 -0.4411 0.8975 73.5442 -4.9043)" fill="none" stroke="#FF0000" stroke-width="0.25" stroke-miterlimit="10" cx="47.32" cy="155.723" rx="10.375" ry="11.249"/>
	
		<ellipse transform="matrix(0.746 0.666 -0.666 0.746 64.4007 5.703)" fill="none" stroke="#FF0000" stroke-width="0.25" stroke-miterlimit="10" cx="24.724" cy="87.273" rx="7.996" ry="9.51"/>
	
		<ellipse transform="matrix(0.8151 -0.5793 0.5793 0.8151 -26.7956 30.7591)" fill="none" stroke="#FF0000" stroke-width="0.25" stroke-miterlimit="10" cx="34.791" cy="57.359" rx="8.375" ry="6.918"/>
	
		<ellipse transform="matrix(0.9533 -0.3019 0.3019 0.9533 -7.8737 17.9921)" fill="none" stroke="#FF0000" stroke-width="0.25" stroke-miterlimit="10" cx="54.27" cy="34.469" rx="7.443" ry="6.017"/>
	
		<ellipse transform="matrix(0.9888 -0.1495 0.1495 0.9888 -2.0802 12.0447)" fill="none" stroke="#FF0000" stroke-width="0.25" stroke-miterlimit="10" cx="79.064" cy="19.857" rx="7" ry="5.401"/>
	
		<ellipse transform="matrix(0.9993 0.0373 -0.0373 0.9993 0.5924 -3.9811)" fill="none" stroke="#FF0000" stroke-width="0.25" stroke-miterlimit="10" cx="106.968" cy="13.882" rx="6.845" ry="5.125"/>
	
		<ellipse transform="matrix(0.9837 0.18 -0.18 0.9837 5.1553 -24.1476)" fill="none" stroke="#FF0000" stroke-width="0.25" stroke-miterlimit="10" cx="135.602" cy="16.325" rx="7.02" ry="5.405"/>
	
		<ellipse transform="matrix(0.9359 0.3523 -0.3523 0.9359 19.9959 -55.4945)" fill="none" stroke="#FF0000" stroke-width="0.25" stroke-miterlimit="10" cx="162.478" cy="27.195" rx="7.297" ry="5.523"/>
	
		<ellipse transform="matrix(0.7906 0.6123 -0.6123 0.7906 87.2279 -107.8079)" fill="none" stroke="#FF0000" stroke-width="0.25" stroke-miterlimit="10" cx="201.241" cy="73.633" rx="9.049" ry="6.992"/>
	
		<ellipse transform="matrix(0.6748 0.738 -0.738 0.6748 145.6756 -117.3106)" fill="none" stroke="#FF0000" stroke-width="0.25" stroke-miterlimit="10" cx="205.951" cy="106.644" rx="10.286" ry="8.046"/>
	
		<ellipse transform="matrix(0.6204 0.7843 -0.7843 0.6204 185.0769 -99.901)" fill="none" stroke="#FF0000" stroke-width="0.25" stroke-miterlimit="10" cx="195.734" cy="141.23" rx="11.436" ry="9.127"/>
	
		<ellipse transform="matrix(0.4266 0.9044 -0.9044 0.4266 250.7755 -54.8583)" fill="none" stroke="#FF0000" stroke-width="0.25" stroke-miterlimit="10" cx="168.652" cy="170.345" rx="12.484" ry="10.216"/>
	
		<ellipse transform="matrix(0.9859 -0.1676 0.1676 0.9859 -29.2159 24.0197)" fill="none" stroke="#FF0000" stroke-width="0.25" stroke-miterlimit="10" cx="127.729" cy="185.139" rx="11.097" ry="13.062"/>
	
		<ellipse transform="matrix(0.9926 0.1214 -0.1214 0.9926 22.3925 -8.7904)" fill="none" stroke="#FF0000" stroke-width="0.25" stroke-miterlimit="10" cx="83.313" cy="179.313" rx="11.25" ry="12.75"/>
	
		<ellipse transform="matrix(0.9821 0.1884 -0.1884 0.9821 22.2923 -19.8312)" fill="none" stroke="#FF0000" stroke-width="0.25" stroke-miterlimit="10" cx="115.439" cy="107.321" rx="108.756" ry="103.246"/>
	
		<ellipse transform="matrix(0.9359 0.3523 -0.3523 0.9359 28.2996 -62.343)" fill="none" stroke="#FF0000" stroke-width="0.25" stroke-miterlimit="10" cx="185.448" cy="46.587" rx="8.154" ry="5.753"/>
	
		<ellipse transform="matrix(0.746 0.6659 -0.6659 0.746 88.6279 12.1681)" fill="none" stroke="#FF0000" stroke-width="0.25" stroke-miterlimit="10" cx="28.362" cy="122.275" rx="8.402" ry="10.322"/>
</g>
</svg>
