<?xml version="1.0" encoding="utf-8"?>
<!-- Generator: Adobe Illustrator 16.0.0, SVG Export Plug-In . SVG Version: 6.00 Build 0)  -->
<!DOCTYPE svg PUBLIC "-//W3C//DTD SVG 1.1 Tiny//EN" "http://www.w3.org/Graphics/SVG/1.1/DTD/svg11-tiny.dtd">
<svg version="1.1" baseProfile="tiny" xmlns="http://www.w3.org/2000/svg" xmlns:xlink="http://www.w3.org/1999/xlink" x="0px"
	 y="0px" width="612px" height="532px" viewBox="0 0 612 532" xml:space="preserve">
<g id="图层_1">
	<image width="612" height="532" xlink:href="../x/006.jpg" >
	</image>
</g>
<g id="图层_2">
	<ellipse fill="none" stroke="#FC0606" stroke-miterlimit="10" cx="305.5" cy="208.5" rx="135" ry="102"/>
	
		<ellipse transform="matrix(1 0.0085 -0.0085 1 1.8089 -2.5739)" fill="none" stroke="#FC0606" stroke-miterlimit="10" cx="305.246" cy="212.601" rx="164.258" ry="125"/>
	
		<ellipse transform="matrix(1 0.0085 -0.0085 1 1.8195 -2.576)" fill="none" stroke="#FC0606" stroke-miterlimit="10" cx="305" cy="213.5" rx="176.5" ry="133"/>
	<ellipse fill="none" stroke="#FC0606" stroke-miterlimit="10" cx="264.5" cy="417.25" rx="29" ry="24.75"/>
	<ellipse fill="none" stroke="#FC0606" stroke-miterlimit="10" cx="376.5" cy="412" rx="29" ry="24.5"/>
	
		<ellipse transform="matrix(0.9908 0.1354 -0.1354 0.9908 54.5896 -60.5461)" fill="none" stroke="#FC0606" stroke-miterlimit="10" cx="472.383" cy="371.028" rx="27.907" ry="23.801"/>
	
		<ellipse transform="matrix(0.9635 -0.2678 0.2678 0.9635 -97.3632 57.5427)" fill="none" stroke="#FC0606" stroke-miterlimit="10" cx="162.234" cy="385.644" rx="28.049" ry="23.967"/>
	
		<ellipse transform="matrix(0.963 -0.2695 0.2695 0.963 -84.2527 36.0847)" fill="none" stroke="#FC0606" stroke-miterlimit="10" cx="89.309" cy="324.926" rx="27.974" ry="22.012"/>
	
		<ellipse transform="matrix(0.9715 -0.2372 0.2372 0.9715 -57.8802 20.4693)" fill="none" stroke="#FC0606" stroke-miterlimit="10" cx="56.132" cy="250.79" rx="26.741" ry="20.402"/>
	
		<ellipse transform="matrix(0.9728 -0.2318 0.2318 0.9728 -39.1915 19.6962)" fill="none" stroke="#FC0606" stroke-miterlimit="10" cx="64.227" cy="176.638" rx="24.705" ry="18.206"/>
	
		<ellipse transform="matrix(0.9875 -0.1577 0.1577 0.9875 -16.5752 18.1074)" fill="none" stroke="#FC0606" stroke-width="0.25" stroke-miterlimit="10" cx="105.794" cy="113.483" rx="24.16" ry="16.574"/>
	
		<ellipse transform="matrix(0.9954 -0.0961 0.0961 0.9954 -5.6938 16.7764)" fill="none" stroke="#FC0606" stroke-width="0.25" stroke-miterlimit="10" cx="171.245" cy="67.474" rx="22.839" ry="15.385"/>
	
		<ellipse transform="matrix(0.9997 -0.0259 0.0259 0.9997 -1.0172 6.5237)" fill="none" stroke="#FC0606" stroke-width="0.25" stroke-miterlimit="10" cx="251.496" cy="42.556" rx="22.129" ry="15.063"/>
	
		<ellipse transform="matrix(0.9991 0.0419 -0.0419 0.9991 1.9592 -14.0659)" fill="none" stroke="#FC0606" stroke-width="0.25" stroke-miterlimit="10" cx="336.924" cy="39.76" rx="22.062" ry="14.761"/>
	
		<ellipse transform="matrix(0.9931 0.117 -0.117 0.9931 9.7913 -48.5791)" fill="none" stroke="#FC0606" stroke-width="0.25" stroke-miterlimit="10" cx="418.793" cy="59.133" rx="22.492" ry="14.87"/>
	
		<ellipse transform="matrix(0.9861 0.1664 -0.1664 0.9861 23.439 -79.916)" fill="none" stroke="#FC0606" stroke-width="0.25" stroke-miterlimit="10" cx="488.567" cy="99.899" rx="23.029" ry="16.206"/>
	
		<ellipse transform="matrix(0.9725 0.233 -0.233 0.9725 51.7417 -120.7834)" fill="none" stroke="#FC0606" stroke-width="0.25" stroke-miterlimit="10" cx="537.223" cy="158.664" rx="24.205" ry="17.658"/>
	
		<ellipse transform="matrix(0.966 0.2585 -0.2585 0.966 78.3312 -135.5649)" fill="none" stroke="#FC0606" stroke-width="0.25" stroke-miterlimit="10" cx="554.637" cy="230.064" rx="25.626" ry="18.819"/>
	
		<ellipse transform="matrix(0.9635 0.2676 -0.2676 0.9635 101.1081 -131.8262)" fill="none" stroke="#FC0606" stroke-width="0.25" stroke-miterlimit="10" cx="534.244" cy="305.067" rx="27.062" ry="21.296"/>
	
		<ellipse fill="none" stroke="#FC0606" stroke-width="0.25" stroke-miterlimit="10" cx="305" cy="222.333" rx="223.333" ry="169.667"/>
	<ellipse fill="none" stroke="#FC0606" stroke-width="0.25" stroke-miterlimit="10" cx="304" cy="238.197" rx="292" ry="223.803"/>
</g>
</svg>
