<?xml version="1.0" encoding="utf-8"?>
<!-- Generator: Adobe Illustrator 16.0.0, SVG Export Plug-In . SVG Version: 6.00 Build 0)  -->
<!DOCTYPE svg PUBLIC "-//W3C//DTD SVG 1.1 Tiny//EN" "http://www.w3.org/Graphics/SVG/1.1/DTD/svg11-tiny.dtd">
<svg version="1.1" baseProfile="tiny" xmlns="http://www.w3.org/2000/svg" xmlns:xlink="http://www.w3.org/1999/xlink" x="0px"
	 y="0px" width="412.5px" height="412.5px" viewBox="0 0 412.5 412.5" xml:space="preserve">
<g id="图层_1">
	<image width="550" height="550" xlink:href="../x/007.jpg"  transform="matrix(0.75 0 0 0.75 0 0)">
	</image>
</g>
<g id="图层_2">
	
		<ellipse transform="matrix(0.9994 0.0348 -0.0348 0.9994 6.9187 -7.2822)" fill="none" stroke="#FF0000" stroke-width="0.25" stroke-miterlimit="10" cx="212.706" cy="195.162" rx="92.706" ry="55.197"/>
	
		<ellipse transform="matrix(0.9931 -0.1174 0.1174 0.9931 -24.4619 8.8983)" fill="none" stroke="#FF0000" stroke-width="0.25" stroke-miterlimit="10" cx="63.313" cy="212.124" rx="15.861" ry="9.427"/>
	
		<ellipse transform="matrix(0.9778 -0.2094 0.2094 0.9778 -59.0603 21.9352)" fill="none" stroke="#FF0000" stroke-width="0.25" stroke-miterlimit="10" cx="74.063" cy="289.89" rx="18.354" ry="12.121"/>
	
		<ellipse fill="none" stroke="#FF0000" stroke-width="0.25" stroke-miterlimit="10" cx="183.25" cy="341.751" rx="18.833" ry="14.666"/>
	
		<ellipse transform="matrix(0.9871 0.16 -0.16 0.9871 54.8217 -46.0464)" fill="none" stroke="#FF0000" stroke-width="0.25" stroke-miterlimit="10" cx="313.387" cy="317.453" rx="18.185" ry="13.345"/>
	
		<ellipse transform="matrix(0.9763 0.2165 -0.2165 0.9763 61.2483 -71.8849)" fill="none" stroke="#FF0000" stroke-width="0.25" stroke-miterlimit="10" cx="358.726" cy="243.611" rx="16.043" ry="10.294"/>
	
		<ellipse transform="matrix(0.9938 0.1114 -0.1114 0.9938 21.8852 -34.0454)" fill="none" stroke="#FF0000" stroke-width="0.25" stroke-miterlimit="10" cx="315.638" cy="178.843" rx="13.473" ry="8.045"/>
	
		<ellipse transform="matrix(0.9986 0.0523 -0.0523 0.9986 6.5734 -11.3298)" fill="none" stroke="#FF0000" stroke-width="0.25" stroke-miterlimit="10" cx="219.923" cy="120.024" rx="12.253" ry="5.871"/>
	
		<ellipse transform="matrix(0.9969 0.0782 -0.0782 0.9969 9.4916 -23.4113)" fill="none" stroke="#FF0000" stroke-width="0.25" stroke-miterlimit="10" cx="303.479" cy="109.409" rx="11.981" ry="5.76"/>
	
		<ellipse transform="matrix(0.9941 0.1081 -0.1081 0.9941 10.1738 -35.6064)" fill="none" stroke="#FF0000" stroke-width="0.25" stroke-miterlimit="10" cx="333.46" cy="76.023" rx="10.584" ry="4.486"/>
	
		<ellipse transform="matrix(0.9951 0.0986 -0.0986 0.9951 5.8283 -29.6467)" fill="none" stroke="#FF0000" stroke-width="0.25" stroke-miterlimit="10" cx="302.973" cy="44.166" rx="8.734" ry="3.657"/>
	
		<ellipse transform="matrix(0.9988 0.05 -0.05 0.9988 1.6409 -11.6735)" fill="none" stroke="#FF0000" stroke-width="0.25" stroke-miterlimit="10" cx="234.323" cy="26.986" rx="61.678" ry="23.046"/>
	
		<ellipse transform="matrix(0.9922 0.125 -0.125 0.9922 4.2177 -40.3497)" fill="none" stroke="#FF0000" stroke-width="0.25" stroke-miterlimit="10" cx="323.641" cy="13.434" rx="16.504" ry="4.894"/>
	
		<ellipse transform="matrix(0.9878 0.1555 -0.1555 0.9878 8.5086 -55.3035)" fill="none" stroke="#FF0000" stroke-width="0.25" stroke-miterlimit="10" cx="357.682" cy="26.724" rx="7.778" ry="2.771"/>
	
		<ellipse transform="matrix(0.9955 0.0952 -0.0952 0.9955 2.6639 -28.333)" fill="none" stroke="#FF0000" stroke-width="0.25" stroke-miterlimit="10" cx="298.398" cy="13.764" rx="7.425" ry="2.375"/>
	
		<ellipse transform="matrix(0.9977 0.068 -0.068 0.9977 4.1298 -22.9784)" fill="none" stroke="#FF0000" stroke-width="0.25" stroke-miterlimit="10" cx="339.444" cy="49.147" rx="7.82" ry="2.75"/>
	
		<ellipse transform="matrix(0.9966 0.0828 -0.0828 0.9966 3.2966 -33.2042)" fill="none" stroke="#FF0000" stroke-width="0.25" stroke-miterlimit="10" cx="402.108" cy="23.157" rx="7.409" ry="2.665"/>
	
		<ellipse transform="matrix(0.9836 0.1803 -0.1803 0.9836 21.9698 -70.0642)" fill="none" stroke="#FF0000" stroke-width="0.25" stroke-miterlimit="10" cx="396.353" cy="85.806" rx="7.961" ry="3.481"/>
	
		<ellipse transform="matrix(0.9832 0.1824 -0.1824 0.9832 27.5576 -68.4464)" fill="none" stroke="#FF0000" stroke-width="0.25" stroke-miterlimit="10" cx="385.81" cy="115.562" rx="8.836" ry="4.315"/>
	
		<ellipse fill="none" stroke="#FF0000" stroke-width="0.25" stroke-miterlimit="10" cx="143.188" cy="97.438" rx="11.438" ry="5.563"/>
	
		<ellipse fill="none" stroke="#FF0000" stroke-width="0.25" stroke-miterlimit="10" cx="126.313" cy="60.813" rx="10.438" ry="4.563"/>
	<ellipse fill="none" stroke="#FF0000" stroke-width="0.25" stroke-miterlimit="10" cx="165.375" cy="34.5" rx="7.875" ry="3.5"/>
	
		<ellipse transform="matrix(0.9989 0.0475 -0.0475 0.9989 3.9166 -10.7642)" fill="none" stroke="#FF0000" stroke-width="0.25" stroke-miterlimit="10" cx="228.273" cy="76.964" rx="126.482" ry="56.065"/>
	
		<ellipse transform="matrix(0.9916 0.129 -0.129 0.9916 6.837 -40.809)" fill="none" stroke="#FF0000" stroke-width="0.25" stroke-miterlimit="10" cx="318.373" cy="32.362" rx="61.81" ry="23.546"/>
	
		<ellipse transform="matrix(0.9986 -0.0529 0.0529 0.9986 -8.2981 7.1125)" fill="none" stroke="#FF0000" stroke-width="0.25" stroke-miterlimit="10" cx="130.295" cy="160.41" rx="13.295" ry="7.583"/>
	
		<ellipse transform="matrix(0.9997 0.0258 -0.0258 0.9997 6.6177 -5.2546)" fill="none" stroke="#FF0000" stroke-width="0.25" stroke-miterlimit="10" cx="207.058" cy="253.976" rx="184.099" ry="119.512"/>
</g>
</svg>
