<?xml version="1.0" encoding="utf-8"?>
<!-- Generator: Adobe Illustrator 16.0.0, SVG Export Plug-In . SVG Version: 6.00 Build 0)  -->
<!DOCTYPE svg PUBLIC "-//W3C//DTD SVG 1.1 Tiny//EN" "http://www.w3.org/Graphics/SVG/1.1/DTD/svg11-tiny.dtd">
<svg version="1.1" baseProfile="tiny" xmlns="http://www.w3.org/2000/svg" xmlns:xlink="http://www.w3.org/1999/xlink" x="0px"
	 y="0px" width="609px" height="509px" viewBox="0 0 609 509" xml:space="preserve">
<g id="图层_1">
	<image width="609" height="509" xlink:href="../x/008.jpg" >
	</image>
</g>
<g id="图层_2">
	
		<ellipse transform="matrix(0.9955 0.0952 -0.0952 0.9955 18.0877 -28.7746)" fill="none" stroke="#FF0000" stroke-width="0.25" stroke-miterlimit="10" cx="310.702" cy="175.235" rx="53.545" ry="41.737"/>
	
		<ellipse fill="none" stroke="#FF0000" stroke-width="0.25" stroke-miterlimit="10" cx="226.292" cy="161.917" rx="12.292" ry="9.5"/>
	
		<ellipse transform="matrix(0.9981 0.0623 -0.0623 0.9981 7.5021 -18.179)" fill="none" stroke="#FF0000" stroke-width="0.25" stroke-miterlimit="10" cx="295.458" cy="111.292" rx="11.458" ry="8.625"/>
	
		<ellipse transform="matrix(0.9776 0.2105 -0.2105 0.9776 39.0869 -77.3762)" fill="none" stroke="#FF0000" stroke-width="0.25" stroke-miterlimit="10" cx="382.931" cy="144.878" rx="11.763" ry="9.161"/>
	
		<ellipse transform="matrix(0.9768 0.2143 -0.2143 0.9768 56.6584 -75.4294)" fill="none" stroke="#FF0000" stroke-width="0.25" stroke-miterlimit="10" cx="376.207" cy="223.592" rx="13.145" ry="10.477"/>
	
		<ellipse fill="none" stroke="#FF0000" stroke-width="0.25" stroke-miterlimit="10" cx="271.875" cy="236.344" rx="13.063" ry="10.719"/>
	
		<ellipse transform="matrix(0.9928 0.1198 -0.1198 0.9928 24.1219 -35.8419)" fill="none" stroke="#FF0000" stroke-width="0.25" stroke-miterlimit="10" cx="310.047" cy="182.625" rx="123" ry="96.377"/>
	
		<ellipse transform="matrix(0.9955 0.095 -0.095 0.9955 21.9864 -28.3279)" fill="none" stroke="#FF0000" stroke-width="0.25" stroke-miterlimit="10" cx="308.366" cy="216.638" rx="211.138" ry="166.532"/>
	
		<ellipse transform="matrix(0.9968 0.0801 -0.0801 0.9968 17.4567 -24.0907)" fill="none" stroke="#FF0000" stroke-width="0.25" stroke-miterlimit="10" cx="309.156" cy="205.651" rx="186.394" ry="145.748"/>
	
		<ellipse transform="matrix(0.9938 0.1112 -0.1112 0.9938 28.8852 -32.6003)" fill="none" stroke="#FF0000" stroke-width="0.25" stroke-miterlimit="10" cx="306.621" cy="242.581" rx="288.944" ry="231.714"/>
	
		<ellipse fill="none" stroke="#FF0000" stroke-width="0.25" stroke-miterlimit="10" cx="157.375" cy="52.438" rx="4.125" ry="3.063"/>
	<ellipse fill="none" stroke="#FF0000" stroke-width="0.25" stroke-miterlimit="10" cx="202.5" cy="47.188" rx="4.125" ry="3.063"/>
	
		<ellipse fill="none" stroke="#FF0000" stroke-width="0.25" stroke-miterlimit="10" cx="154.833" cy="77.465" rx="4.667" ry="3.285"/>
	<ellipse fill="none" stroke="#FF0000" stroke-width="0.25" stroke-miterlimit="10" cx="240.5" cy="31.188" rx="4.125" ry="3.063"/>
	<ellipse fill="none" stroke="#FF0000" stroke-width="0.25" stroke-miterlimit="10" cx="280.5" cy="23.813" rx="4.125" ry="3.063"/>
	<ellipse fill="none" stroke="#FF0000" stroke-width="0.25" stroke-miterlimit="10" cx="313.5" cy="35.188" rx="4.125" ry="3.063"/>
	
		<ellipse fill="none" stroke="#FF0000" stroke-width="0.25" stroke-miterlimit="10" cx="349.75" cy="34.188" rx="4.125" ry="3.063"/>
	
		<ellipse fill="none" stroke="#FF0000" stroke-width="0.25" stroke-miterlimit="10" cx="383.75" cy="50.688" rx="4.125" ry="3.063"/>
	<ellipse fill="none" stroke="#FF0000" stroke-width="0.25" stroke-miterlimit="10" cx="415.5" cy="43.438" rx="4.125" ry="3.063"/>
	
		<ellipse fill="none" stroke="#FF0000" stroke-width="0.25" stroke-miterlimit="10" cx="442.875" cy="70.063" rx="4.125" ry="3.063"/>
	
		<ellipse fill="none" stroke="#FF0000" stroke-width="0.25" stroke-miterlimit="10" cx="483.75" cy="90.063" rx="4.125" ry="3.063"/>
	
		<ellipse transform="matrix(0.9571 0.2899 -0.2899 0.9571 56.0039 -144.7424)" fill="none" stroke="#FF0000" stroke-width="0.25" stroke-miterlimit="10" cx="516.625" cy="116.688" rx="4.125" ry="3.063"/>
	
		<ellipse transform="matrix(0.9571 0.2899 -0.2899 0.9571 64.723 -144.3165)" fill="none" stroke="#FF0000" stroke-width="0.25" stroke-miterlimit="10" cx="519.533" cy="146.328" rx="4.52" ry="3.382"/>
	
		<ellipse transform="matrix(0.9571 0.2899 -0.2899 0.9571 74.4041 -150.1774)" fill="none" stroke="#FF0000" stroke-width="0.25" stroke-miterlimit="10" cx="544.158" cy="176.078" rx="4.52" ry="3.382"/>
	
		<ellipse transform="matrix(0.9247 0.3806 -0.3806 0.9247 120.894 -189.3092)" fill="none" stroke="#FF0000" stroke-width="0.25" stroke-miterlimit="10" cx="539.16" cy="211.054" rx="5.077" ry="3.681"/>
	
		<ellipse transform="matrix(0.875 0.4841 -0.4841 0.875 187.2136 -247.229)" fill="none" stroke="#FF0000" stroke-width="0.25" stroke-miterlimit="10" cx="572.379" cy="238.935" rx="5.626" ry="4.207"/>
	
		<ellipse transform="matrix(0.825 0.5651 -0.5651 0.825 250.2347 -260.9188)" fill="none" stroke="#FF0000" stroke-width="0.25" stroke-miterlimit="10" cx="546.451" cy="273.622" rx="5.626" ry="4.279"/>
	
		<ellipse transform="matrix(0.7872 0.6167 -0.6167 0.7872 313.499 -264.6357)" fill="none" stroke="#FF0000" stroke-width="0.25" stroke-miterlimit="10" cx="540.234" cy="321.975" rx="6.009" ry="4.492"/>
	
		<ellipse transform="matrix(0.7873 0.6166 -0.6166 0.7873 334.5659 -241.0497)" fill="none" stroke="#FF0000" stroke-width="0.25" stroke-miterlimit="10" cx="516.612" cy="364.328" rx="6.267" ry="4.887"/>
	
		<ellipse transform="matrix(0.7872 0.6167 -0.6167 0.7872 329.2511 -208.988)" fill="none" stroke="#FF0000" stroke-width="0.25" stroke-miterlimit="10" cx="467.458" cy="372.605" rx="6.211" ry="5.315"/>
	
		<ellipse transform="matrix(0.7872 0.6167 -0.6167 0.7872 342.1122 -180.378)" fill="none" stroke="#FF0000" stroke-width="0.25" stroke-miterlimit="10" cx="432.418" cy="405.521" rx="6.141" ry="5.394"/>
	
		<ellipse transform="matrix(0.7872 0.6167 -0.6167 0.7872 327.9516 -144.3335)" fill="none" stroke="#FF0000" stroke-width="0.25" stroke-miterlimit="10" cx="373.105" cy="403.012" rx="6.113" ry="5.209"/>
	
		<ellipse transform="matrix(0.6843 0.7292 -0.7292 0.6843 434.574 -112.5402)" fill="none" stroke="#FF0000" stroke-width="0.25" stroke-miterlimit="10" cx="347.26" cy="445.62" rx="6.46" ry="5.22"/>
	
		<ellipse transform="matrix(0.6843 0.7292 -0.7292 0.6843 395.8825 -76.1729)" fill="none" stroke="#FF0000" stroke-width="0.25" stroke-miterlimit="10" cx="285.917" cy="419.138" rx="5.786" ry="5.221"/>
	
		<ellipse transform="matrix(0.9496 -0.3135 0.3135 0.9496 -23.6442 41.2508)" fill="none" stroke="#FF0000" stroke-width="0.25" stroke-miterlimit="10" cx="116.458" cy="94.153" rx="4.667" ry="3.284"/>
	
		<ellipse transform="matrix(0.9444 -0.3287 0.3287 0.9444 -34.6367 40.2412)" fill="none" stroke="#FF0000" stroke-width="0.25" stroke-miterlimit="10" cx="101.708" cy="122.57" rx="4.667" ry="3.284"/>
	
		<ellipse transform="matrix(0.8854 -0.4648 0.4648 0.8854 -59.2153 47.7768)" fill="none" stroke="#FF0000" stroke-width="0.25" stroke-miterlimit="10" cx="67.291" cy="143.987" rx="4.667" ry="3.284"/>
	
		<ellipse transform="matrix(0.911 -0.4125 0.4125 0.911 -70.1068 40.0294)" fill="none" stroke="#FF0000" stroke-width="0.25" stroke-miterlimit="10" cx="57.667" cy="182.403" rx="4.667" ry="3.284"/>
	
		<ellipse transform="matrix(0.911 -0.4125 0.4125 0.911 -87.0886 46.5614)" fill="none" stroke="#FF0000" stroke-width="0.25" stroke-miterlimit="10" cx="64.313" cy="225.017" rx="5.03" ry="3.681"/>
	
		<ellipse transform="matrix(0.911 -0.4125 0.4125 0.911 -107.9717 44.1397)" fill="none" stroke="#FF0000" stroke-width="0.25" stroke-miterlimit="10" cx="48.264" cy="272.186" rx="5.108" ry="3.893"/>
	
		<ellipse transform="matrix(0.911 -0.4125 0.4125 0.911 -108.9342 63.1964)" fill="none" stroke="#FF0000" stroke-width="0.25" stroke-miterlimit="10" cx="91.925" cy="283.941" rx="5.319" ry="4.335"/>
	
		<ellipse transform="matrix(0.911 -0.4125 0.4125 0.911 -127.5009 70.6975)" fill="none" stroke="#FF0000" stroke-width="0.25" stroke-miterlimit="10" cx="100.014" cy="330.693" rx="5.596" ry="4.823"/>
	
		<ellipse transform="matrix(0.8166 -0.5772 0.5772 0.8166 -200.764 203.9)" fill="none" stroke="#FF0000" stroke-width="0.25" stroke-miterlimit="10" cx="220.493" cy="417.89" rx="6.426" ry="5.754"/>
	
		<ellipse transform="matrix(0.8166 -0.5772 0.5772 0.8166 -200.529 166.8898)" fill="none" stroke="#FF0000" stroke-width="0.25" stroke-miterlimit="10" cx="162.368" cy="399.015" rx="6.426" ry="5.754"/>
	
		<ellipse transform="matrix(0.8166 -0.5772 0.5772 0.8166 -178.4693 147.2692)" fill="none" stroke="#FF0000" stroke-width="0.25" stroke-miterlimit="10" cx="142.521" cy="354.489" rx="6.426" ry="5.632"/>
</g>
</svg>
