<?xml version="1.0" encoding="iso-8859-1"?>
<!-- Generator: Adobe Illustrator 16.0.0, SVG Export Plug-In . SVG Version: 6.00 Build 0)  -->
<!DOCTYPE svg PUBLIC "-//W3C//DTD SVG 1.1//EN" "http://www.w3.org/Graphics/SVG/1.1/DTD/svg11.dtd">
<svg version="1.1" xmlns="http://www.w3.org/2000/svg" xmlns:xlink="http://www.w3.org/1999/xlink" x="0px" y="0px" width="1009px"
	 height="961px" viewBox="0 0 1009 961" style="enable-background:new 0 0 1009 961;" xml:space="preserve">
<g id="&#x56FE;&#x5C42;_1">
	<image style="overflow:visible;" width="1009" height="961" xlink:href="../x/009.jpg" >
	</image>
</g>
<g id="&#x56FE;&#x5C42;_2">
	
		<ellipse transform="matrix(0.7303 -0.6831 0.6831 0.7303 -193.4323 486.4732)" style="fill:none;stroke:#FF0000;stroke-width:0.25;stroke-miterlimit:10;" cx="519.444" cy="488.235" rx="74.245" ry="74.172"/>
	<circle style="fill:none;stroke:#FF0000;stroke-width:0.25;stroke-miterlimit:10;" cx="518.333" cy="488.001" r="81.667"/>
	
		<ellipse style="fill:none;stroke:#FF0000;stroke-width:0.25;stroke-miterlimit:10;" cx="398.625" cy="474.063" rx="17.375" ry="17.563"/>
	
		<ellipse style="fill:none;stroke:#FF0000;stroke-width:0.25;stroke-miterlimit:10;" cx="495.25" cy="370.75" rx="17.25" ry="17.125"/>
	
		<ellipse style="fill:none;stroke:#FF0000;stroke-width:0.25;stroke-miterlimit:10;" cx="623.313" cy="428.563" rx="17.063" ry="17.938"/>
	
		<ellipse style="fill:none;stroke:#FF0000;stroke-width:0.25;stroke-miterlimit:10;" cx="607.521" cy="567.563" rx="17.52" ry="17.938"/>
	
		<ellipse style="fill:none;stroke:#FF0000;stroke-width:0.25;stroke-miterlimit:10;" cx="467.521" cy="596.396" rx="17.52" ry="17.938"/>
	<ellipse style="fill:none;stroke:#FF0000;stroke-width:0.25;stroke-miterlimit:10;" cx="518.333" cy="487.667" rx="164" ry="162"/>
	
		<ellipse transform="matrix(0.9885 -0.1515 0.1515 0.9885 -66.0123 82.272)" style="fill:none;stroke:#FF0000;stroke-width:0.25;stroke-miterlimit:10;" cx="506.811" cy="474.266" rx="264" ry="259.253"/>
	
		<ellipse style="fill:none;stroke:#FF0000;stroke-width:0.25;stroke-miterlimit:10;" cx="143.063" cy="353.5" rx="8.313" ry="8.25"/>
	
		<ellipse style="fill:none;stroke:#FF0000;stroke-width:0.25;stroke-miterlimit:10;" cx="156.938" cy="410.5" rx="8.313" ry="8.25"/>
	
		<ellipse style="fill:none;stroke:#FF0000;stroke-width:0.25;stroke-miterlimit:10;" cx="226.313" cy="378.5" rx="8.313" ry="8.25"/>
	<ellipse style="fill:none;stroke:#FF0000;stroke-width:0.25;stroke-miterlimit:10;" cx="159.563" cy="475" rx="8.313" ry="8.25"/>
	<ellipse style="fill:none;stroke:#FF0000;stroke-width:0.25;stroke-miterlimit:10;" cx="192.063" cy="518" rx="8.313" ry="8.25"/>
	<ellipse style="fill:none;stroke:#FF0000;stroke-width:0.25;stroke-miterlimit:10;" cx="103.563" cy="531" rx="8.313" ry="8.25"/>
	<ellipse style="fill:none;stroke:#FF0000;stroke-width:0.25;stroke-miterlimit:10;" cx="143.563" cy="579" rx="8.313" ry="8.25"/>
	<ellipse style="fill:none;stroke:#FF0000;stroke-width:0.25;stroke-miterlimit:10;" cx="214.063" cy="571" rx="8.313" ry="8.25"/>
	<ellipse style="fill:none;stroke:#FF0000;stroke-width:0.25;stroke-miterlimit:10;" cx="177.563" cy="639" rx="8.313" ry="8.25"/>
	<ellipse style="fill:none;stroke:#FF0000;stroke-width:0.25;stroke-miterlimit:10;" cx="228.063" cy="666" rx="8.313" ry="8.25"/>
	
		<ellipse style="fill:none;stroke:#FF0000;stroke-width:0.25;stroke-miterlimit:10;" cx="275.396" cy="705.833" rx="8.313" ry="8.25"/>
	
		<ellipse style="fill:none;stroke:#FF0000;stroke-width:0.25;stroke-miterlimit:10;" cx="326.396" cy="710.5" rx="8.313" ry="8.25"/>
	
		<ellipse style="fill:none;stroke:#FF0000;stroke-width:0.25;stroke-miterlimit:10;" cx="212.729" cy="743.166" rx="8.313" ry="8.25"/>
	
		<ellipse style="fill:none;stroke:#FF0000;stroke-width:0.25;stroke-miterlimit:10;" cx="274.063" cy="784.5" rx="8.313" ry="8.25"/>
	
		<ellipse style="fill:none;stroke:#FF0000;stroke-width:0.25;stroke-miterlimit:10;" cx="335.063" cy="786.5" rx="8.313" ry="8.25"/>
	
		<ellipse style="fill:none;stroke:#FF0000;stroke-width:0.25;stroke-miterlimit:10;" cx="399.729" cy="803.167" rx="8.313" ry="8.25"/>
	
		<ellipse style="fill:none;stroke:#FF0000;stroke-width:0.25;stroke-miterlimit:10;" cx="452.063" cy="784.167" rx="8.313" ry="8.25"/>
	
		<ellipse style="fill:none;stroke:#FF0000;stroke-width:0.25;stroke-miterlimit:10;" cx="510.396" cy="778.5" rx="8.313" ry="8.25"/>
	
		<ellipse style="fill:none;stroke:#FF0000;stroke-width:0.25;stroke-miterlimit:10;" cx="436.729" cy="873.167" rx="8.313" ry="8.25"/>
	
		<ellipse style="fill:none;stroke:#FF0000;stroke-width:0.25;stroke-miterlimit:10;" cx="495.729" cy="848.167" rx="8.313" ry="8.25"/>
	
		<ellipse style="fill:none;stroke:#FF0000;stroke-width:0.25;stroke-miterlimit:10;" cx="565.063" cy="833.167" rx="8.313" ry="8.25"/>
	
		<ellipse style="fill:none;stroke:#FF0000;stroke-width:0.25;stroke-miterlimit:10;" cx="606.729" cy="792.5" rx="8.313" ry="8.25"/>
	
		<ellipse style="fill:none;stroke:#FF0000;stroke-width:0.25;stroke-miterlimit:10;" cx="676.396" cy="828.5" rx="8.313" ry="8.25"/>
	
		<ellipse style="fill:none;stroke:#FF0000;stroke-width:0.25;stroke-miterlimit:10;" cx="660.063" cy="758.834" rx="8.313" ry="8.25"/>
	
		<ellipse style="fill:none;stroke:#FF0000;stroke-width:0.25;stroke-miterlimit:10;" cx="734.729" cy="782.5" rx="8.313" ry="8.25"/>
	
		<ellipse style="fill:none;stroke:#FF0000;stroke-width:0.25;stroke-miterlimit:10;" cx="680.396" cy="711.167" rx="8.313" ry="8.25"/>
	
		<ellipse style="fill:none;stroke:#FF0000;stroke-width:0.25;stroke-miterlimit:10;" cx="755.729" cy="725.166" rx="8.313" ry="8.25"/>
	
		<ellipse style="fill:none;stroke:#FF0000;stroke-width:0.25;stroke-miterlimit:10;" cx="789.729" cy="669.167" rx="8.313" ry="8.25"/>
	
		<ellipse style="fill:none;stroke:#FF0000;stroke-width:0.25;stroke-miterlimit:10;" cx="788.396" cy="615.166" rx="8.313" ry="8.25"/>
	
		<ellipse style="fill:none;stroke:#FF0000;stroke-width:0.25;stroke-miterlimit:10;" cx="867.063" cy="655.167" rx="8.313" ry="8.25"/>
	
		<ellipse style="fill:none;stroke:#FF0000;stroke-width:0.25;stroke-miterlimit:10;" cx="861.063" cy="593.5" rx="8.313" ry="8.25"/>
	
		<ellipse style="fill:none;stroke:#FF0000;stroke-width:0.25;stroke-miterlimit:10;" cx="800.396" cy="558.833" rx="8.313" ry="8.25"/>
	
		<ellipse style="fill:none;stroke:#FF0000;stroke-width:0.25;stroke-miterlimit:10;" cx="868.063" cy="524.5" rx="8.313" ry="8.25"/>
	
		<ellipse style="fill:none;stroke:#FF0000;stroke-width:0.25;stroke-miterlimit:10;" cx="842.063" cy="474.5" rx="8.313" ry="8.25"/>
	
		<ellipse style="fill:none;stroke:#FF0000;stroke-width:0.25;stroke-miterlimit:10;" cx="827.396" cy="415.167" rx="8.313" ry="8.25"/>
	
		<ellipse style="fill:none;stroke:#FF0000;stroke-width:0.25;stroke-miterlimit:10;" cx="896.729" cy="421.833" rx="8.313" ry="8.25"/>
	
		<ellipse style="fill:none;stroke:#FF0000;stroke-width:0.25;stroke-miterlimit:10;" cx="788.729" cy="382.833" rx="8.313" ry="8.25"/>
	
		<ellipse style="fill:none;stroke:#FF0000;stroke-width:0.25;stroke-miterlimit:10;" cx="871.396" cy="354.833" rx="8.313" ry="8.25"/>
	
		<ellipse style="fill:none;stroke:#FF0000;stroke-width:0.25;stroke-miterlimit:10;" cx="824.729" cy="318.5" rx="8.313" ry="8.25"/>
	
		<ellipse style="fill:none;stroke:#FF0000;stroke-width:0.25;stroke-miterlimit:10;" cx="783.063" cy="269.5" rx="8.313" ry="8.25"/>
	
		<ellipse style="fill:none;stroke:#FF0000;stroke-width:0.25;stroke-miterlimit:10;" cx="731.729" cy="254.833" rx="8.313" ry="8.25"/>
	
		<ellipse style="fill:none;stroke:#FF0000;stroke-width:0.25;stroke-miterlimit:10;" cx="682.729" cy="225.833" rx="8.313" ry="8.25"/>
	
		<ellipse style="fill:none;stroke:#FF0000;stroke-width:0.25;stroke-miterlimit:10;" cx="734.063" cy="181.792" rx="8.313" ry="8.208"/>
	
		<ellipse style="fill:none;stroke:#FF0000;stroke-width:0.25;stroke-miterlimit:10;" cx="793.729" cy="195.208" rx="8.313" ry="7.542"/>
	
		<ellipse style="fill:none;stroke:#FF0000;stroke-width:0.25;stroke-miterlimit:10;" cx="671.396" cy="153.708" rx="8.313" ry="7.708"/>
	
		<ellipse style="fill:none;stroke:#FF0000;stroke-width:0.25;stroke-miterlimit:10;" cx="615.729" cy="161.708" rx="8.313" ry="7.708"/>
	
		<ellipse style="fill:none;stroke:#FF0000;stroke-width:0.25;stroke-miterlimit:10;" cx="554.729" cy="156.708" rx="8.313" ry="7.708"/>
	
		<ellipse style="fill:none;stroke:#FF0000;stroke-width:0.25;stroke-miterlimit:10;" cx="582.729" cy="95.708" rx="8.313" ry="7.708"/>
	
		<ellipse style="fill:none;stroke:#FF0000;stroke-width:0.25;stroke-miterlimit:10;" cx="511.062" cy="97.708" rx="8.313" ry="7.708"/>
	
		<ellipse style="fill:none;stroke:#FF0000;stroke-width:0.25;stroke-miterlimit:10;" cx="512.062" cy="181.708" rx="8.313" ry="7.708"/>
	
		<ellipse style="fill:none;stroke:#FF0000;stroke-width:0.25;stroke-miterlimit:10;" cx="462.021" cy="128.208" rx="8.021" ry="7.542"/>
	
		<ellipse style="fill:none;stroke:#FF0000;stroke-width:0.25;stroke-miterlimit:10;" cx="401.021" cy="151.875" rx="8.021" ry="7.542"/>
	
		<ellipse style="fill:none;stroke:#FF0000;stroke-width:0.25;stroke-miterlimit:10;" cx="370.354" cy="193.875" rx="8.021" ry="7.542"/>
	
		<ellipse style="fill:none;stroke:#FF0000;stroke-width:0.25;stroke-miterlimit:10;" cx="332.687" cy="118.875" rx="8.021" ry="7.542"/>
	
		<ellipse style="fill:none;stroke:#FF0000;stroke-width:0.25;stroke-miterlimit:10;" cx="298.687" cy="169.542" rx="8.021" ry="7.542"/>
	
		<ellipse style="fill:none;stroke:#FF0000;stroke-width:0.25;stroke-miterlimit:10;" cx="325.688" cy="231.541" rx="8.021" ry="7.542"/>
	
		<ellipse style="fill:none;stroke:#FF0000;stroke-width:0.25;stroke-miterlimit:10;" cx="251.521" cy="219.708" rx="8.021" ry="7.542"/>
	
		<ellipse style="fill:none;stroke:#FF0000;stroke-width:0.25;stroke-miterlimit:10;" cx="241.021" cy="273.708" rx="8.021" ry="7.542"/>
	
		<ellipse style="fill:none;stroke:#FF0000;stroke-width:0.25;stroke-miterlimit:10;" cx="216.521" cy="329.708" rx="8.021" ry="7.542"/>
	
		<ellipse style="fill:none;stroke:#FF0000;stroke-width:0.25;stroke-miterlimit:10;" cx="164.521" cy="284.708" rx="8.021" ry="7.542"/>
	<ellipse style="fill:none;stroke:#FF0000;stroke-miterlimit:10;" cx="505.59" cy="480.841" rx="437.978" ry="432.728"/>
	
		<ellipse transform="matrix(0.8475 -0.5308 0.5308 0.8475 -177.8463 345.8513)" style="fill:none;stroke:#FF0000;stroke-miterlimit:10;" cx="512.913" cy="482.407" rx="242.821" ry="239.844"/>
</g>
</svg>
