<?xml version="1.0" encoding="utf-8"?>
<!-- Generator: Adobe Illustrator 16.0.0, SVG Export Plug-In . SVG Version: 6.00 Build 0)  -->
<!DOCTYPE svg PUBLIC "-//W3C//DTD SVG 1.1 Tiny//EN" "http://www.w3.org/Graphics/SVG/1.1/DTD/svg11-tiny.dtd">
<svg version="1.1" baseProfile="tiny" xmlns="http://www.w3.org/2000/svg" xmlns:xlink="http://www.w3.org/1999/xlink" x="0px"
	 y="0px" width="240px" height="237px" viewBox="0 0 240 237" xml:space="preserve">
<g id="图层_1">
	<image width="320" height="316" xlink:href="../x/010.jpg"  transform="matrix(0.75 0 0 0.75 0 0)">
	</image>
</g>
<g id="图层_2">
	
		<ellipse fill="none" stroke="#FF0000" stroke-width="0.25" stroke-miterlimit="10" cx="120.333" cy="124.668" rx="25.5" ry="24.832"/>
	<ellipse fill="none" stroke="#FF0000" stroke-width="0.25" stroke-miterlimit="10" cx="126.75" cy="155" rx="4.25" ry="3.834"/>
	
		<ellipse fill="none" stroke="#FF0000" stroke-width="0.25" stroke-miterlimit="10" cx="150.916" cy="133.75" rx="4.25" ry="4.084"/>
	
		<ellipse fill="none" stroke="#FF0000" stroke-width="0.25" stroke-miterlimit="10" cx="144.582" cy="103.083" rx="4.25" ry="4.084"/>
	
		<ellipse fill="none" stroke="#FF0000" stroke-width="0.25" stroke-miterlimit="10" cx="114.082" cy="93.416" rx="4.25" ry="4.084"/>
	
		<ellipse fill="none" stroke="#FF0000" stroke-width="0.25" stroke-miterlimit="10" cx="90.416" cy="113.749" rx="4.25" ry="4.084"/>
	
		<ellipse fill="none" stroke="#FF0000" stroke-width="0.25" stroke-miterlimit="10" cx="96.083" cy="144.749" rx="4.25" ry="4.084"/>
	
		<ellipse fill="none" stroke="#FF0000" stroke-width="0.25" stroke-miterlimit="10" cx="120.583" cy="124.668" rx="40.417" ry="39.499"/>
	
		<ellipse fill="none" stroke="#FF0000" stroke-width="0.25" stroke-miterlimit="10" cx="119.375" cy="114.125" rx="65.625" ry="63.875"/>
	
		<ellipse fill="none" stroke="#FF0000" stroke-width="0.25" stroke-miterlimit="10" cx="96.083" cy="31.876" rx="11.167" ry="10.625"/>
	
		<ellipse fill="none" stroke="#FF0000" stroke-width="0.25" stroke-miterlimit="10" cx="161.583" cy="39.001" rx="11.354" ry="10.625"/>
	
		<ellipse fill="none" stroke="#FF0000" stroke-width="0.25" stroke-miterlimit="10" cx="129.499" cy="8.46" rx="11.167" ry="10.625"/>
	
		<ellipse fill="none" stroke="#FF0000" stroke-width="0.25" stroke-miterlimit="10" cx="203.5" cy="44.876" rx="11.167" ry="10.625"/>
	
		<ellipse fill="none" stroke="#FF0000" stroke-width="0.25" stroke-miterlimit="10" cx="204.063" cy="89.313" rx="11.688" ry="10.937"/>
	
		<ellipse fill="none" stroke="#FF0000" stroke-width="0.25" stroke-miterlimit="10" cx="231.354" cy="122.479" rx="11.479" ry="10.937"/>
	
		<ellipse fill="none" stroke="#FF0000" stroke-width="0.25" stroke-miterlimit="10" cx="198" cy="155.188" rx="11.875" ry="11.437"/>
	
		<ellipse fill="none" stroke="#FF0000" stroke-width="0.25" stroke-miterlimit="10" cx="192.396" cy="198.439" rx="11.688" ry="11.062"/>
	
		<ellipse fill="none" stroke="#FF0000" stroke-width="0.25" stroke-miterlimit="10" cx="107.771" cy="224.564" rx="11.688" ry="11.062"/>
	
		<ellipse transform="matrix(0.7614 0.6482 -0.6482 0.7614 126.3784 23.6746)" fill="none" stroke="#FF0000" stroke-width="0.25" stroke-miterlimit="10" cx="31.023" cy="183.543" rx="11.688" ry="11.634"/>
	
		<ellipse fill="none" stroke="#FF0000" stroke-width="0.25" stroke-miterlimit="10" cx="33.125" cy="136.334" rx="11.708" ry="11.665"/>
	
		<ellipse fill="none" stroke="#FF0000" stroke-width="0.25" stroke-miterlimit="10" cx="8.125" cy="102.251" rx="11.708" ry="11.333"/>
	
		<ellipse fill="none" stroke="#FF0000" stroke-width="0.25" stroke-miterlimit="10" cx="43.125" cy="71.021" rx="11.708" ry="11.104"/>
	<ellipse fill="none" stroke="#FF0000" stroke-width="0.25" stroke-miterlimit="10" cx="50" cy="30.646" rx="11.708" ry="11.104"/>
	<ellipse fill="none" stroke="#FF0000" stroke-width="0.25" stroke-miterlimit="10" cx="119.75" cy="117.5" rx="113.75" ry="111"/>
	
		<ellipse fill="none" stroke="#FF0000" stroke-width="0.25" stroke-miterlimit="10" cx="120.917" cy="124.501" rx="44.417" ry="43.409"/>
	
		<ellipse transform="matrix(0.7614 0.6482 -0.6482 0.7614 140.969 -2.9727)" fill="none" stroke="#FF0000" stroke-width="0.25" stroke-miterlimit="10" cx="74.523" cy="190.043" rx="11.688" ry="11.634"/>
	
		<ellipse fill="none" stroke="#FF0000" stroke-width="0.25" stroke-miterlimit="10" cx="143.917" cy="198.168" rx="11.833" ry="11.916"/>
</g>
</svg>
