<?xml version="1.0" encoding="utf-8"?>
<!-- Generator: Adobe Illustrator 16.0.0, SVG Export Plug-In . SVG Version: 6.00 Build 0)  -->
<!DOCTYPE svg PUBLIC "-//W3C//DTD SVG 1.1 Tiny//EN" "http://www.w3.org/Graphics/SVG/1.1/DTD/svg11-tiny.dtd">
<svg version="1.1" baseProfile="tiny" xmlns="http://www.w3.org/2000/svg" xmlns:xlink="http://www.w3.org/1999/xlink" x="0px"
	 y="0px" width="500px" height="500px" viewBox="0 0 500 500" xml:space="preserve">
<g id="图层_1">
	<image width="500" height="500" xlink:href="../x/011.jpg" >
	</image>
</g>
<g id="图层_2">
	
		<ellipse transform="matrix(0.9336 -0.3582 0.3582 0.9336 -129.4278 66.1392)" fill="none" stroke="#FF0000" stroke-width="0.25" stroke-miterlimit="10" cx="113.79" cy="382.384" rx="49.081" ry="40.816"/>
	
		<ellipse transform="matrix(0.9353 -0.354 0.354 0.9353 -128.8301 65.1937)" fill="none" stroke="#FF0000" stroke-width="0.25" stroke-miterlimit="10" cx="113.802" cy="384.774" rx="80.154" ry="64.765"/>
	
		<ellipse transform="matrix(0.942 -0.3357 0.3357 0.942 -122.7748 60.4232)" fill="none" stroke="#FF0000" stroke-width="0.25" stroke-miterlimit="10" cx="113.408" cy="385.382" rx="88.898" ry="73.362"/>
	
		<ellipse transform="matrix(0.9359 -0.3524 0.3524 0.9359 -128.7491 64.8578)" fill="none" stroke="#FF0000" stroke-width="0.25" stroke-miterlimit="10" cx="113.792" cy="386.106" rx="99.776" ry="81.45"/>
	
		<ellipse transform="matrix(0.9166 -0.3998 0.3998 0.9166 -109.8071 60.178)" fill="none" stroke="#FF0000" stroke-width="0.25" stroke-miterlimit="10" cx="89.355" cy="293.319" rx="13.584" ry="10.717"/>
	
		<ellipse transform="matrix(0.9166 -0.3998 0.3998 0.9166 -102.9305 83.1471)" fill="none" stroke="#FF0000" stroke-width="0.25" stroke-miterlimit="10" cx="147.855" cy="288.319" rx="13.584" ry="10.717"/>
	
		<ellipse transform="matrix(0.9086 -0.4177 0.4177 0.9086 -131.1172 44.5638)" fill="none" stroke="#FF0000" stroke-width="0.25" stroke-miterlimit="10" cx="36.263" cy="321.866" rx="13.794" ry="10.814"/>
	
		<ellipse transform="matrix(0.9586 -0.2848 0.2848 0.9586 -79.2766 69.8891)" fill="none" stroke="#FF0000" stroke-width="0.25" stroke-miterlimit="10" cx="200.694" cy="307.558" rx="13.794" ry="11.364"/>
	
		<ellipse transform="matrix(0.9586 -0.2848 0.2848 0.9586 -89.6493 80.9622)" fill="none" stroke="#FF0000" stroke-width="0.25" stroke-miterlimit="10" cx="233.586" cy="348.765" rx="14.102" ry="12.457"/>
	
		<ellipse transform="matrix(0.9668 -0.2557 0.2557 0.9668 -95.0837 74.0189)" fill="none" stroke="#FF0000" stroke-width="0.25" stroke-miterlimit="10" cx="237.112" cy="402.671" rx="15.328" ry="13.405"/>
	
		<ellipse transform="matrix(0.9668 -0.2557 0.2557 0.9668 -110.0626 67.9155)" fill="none" stroke="#FF0000" stroke-width="0.25" stroke-miterlimit="10" cx="206.147" cy="457.218" rx="15.776" ry="14.57"/>
	
		<ellipse transform="matrix(0.9668 -0.2557 0.2557 0.9668 -121.2891 53.9031)" fill="none" stroke="#FF0000" stroke-width="0.25" stroke-miterlimit="10" cx="146.647" cy="493.385" rx="15.776" ry="14.57"/>
	
		<ellipse transform="matrix(0.8603 -0.5098 0.5098 0.8603 -237.6864 76.4777)" fill="none" stroke="#FF0000" stroke-width="0.25" stroke-miterlimit="10" cx="20.686" cy="471.883" rx="15.776" ry="13.922"/>
	
		<ellipse transform="matrix(0.9668 -0.2557 0.2557 0.9668 -124.7225 36.2666)" fill="none" stroke="#FF0000" stroke-width="0.25" stroke-miterlimit="10" cx="77.11" cy="497.78" rx="15.547" ry="14.048"/>
	
		<ellipse transform="matrix(0.924 -0.3824 0.3824 0.924 -144.5461 74.353)" fill="none" stroke="#FF0000" stroke-width="0.25" stroke-miterlimit="10" cx="114.769" cy="400.795" rx="157.059" ry="129.704"/>
	
		<ellipse transform="matrix(0.9867 0.1624 -0.1624 0.9867 63.8578 -68.0732)" fill="none" stroke="#FF0000" stroke-width="0.25" stroke-miterlimit="10" cx="448.339" cy="356.587" rx="50.806" ry="41.892"/>
	
		<ellipse transform="matrix(0.9906 0.1364 -0.1364 0.9906 53.0935 -57.989)" fill="none" stroke="#FF0000" stroke-width="0.25" stroke-miterlimit="10" cx="449.578" cy="358.323" rx="81.624" ry="67.088"/>
	
		<ellipse transform="matrix(0.9867 0.1624 -0.1624 0.9867 64.308 -68.1631)" fill="none" stroke="#FF0000" stroke-width="0.25" stroke-miterlimit="10" cx="449.189" cy="359.368" rx="91.775" ry="76.368"/>
	
		<ellipse transform="matrix(0.9888 0.1492 -0.1492 0.9888 58.7737 -62.9869)" fill="none" stroke="#FF0000" stroke-width="0.25" stroke-miterlimit="10" cx="449.07" cy="360.117" rx="101.49" ry="84.844"/>
	
		<ellipse transform="matrix(0.9931 0.1171 -0.1171 0.9931 33.8363 -52.4938)" fill="none" stroke="#FF0000" stroke-width="0.25" stroke-miterlimit="10" cx="463.642" cy="261.701" rx="14.652" ry="11.325"/>
	
		<ellipse transform="matrix(0.9931 0.1171 -0.1171 0.9931 33.9565 -45.2894)" fill="none" stroke="#FF0000" stroke-width="0.25" stroke-miterlimit="10" cx="402.392" cy="266.326" rx="14.652" ry="11.325"/>
	
		<ellipse transform="matrix(0.9931 0.1171 -0.1171 0.9931 36.863 -39.1747)" fill="none" stroke="#FF0000" stroke-width="0.25" stroke-miterlimit="10" cx="351.809" cy="294.118" rx="14.652" ry="11.325"/>
	
		<ellipse transform="matrix(0.9931 0.1171 -0.1171 0.9931 42.0497 -35.5422)" fill="none" stroke="#FF0000" stroke-width="0.25" stroke-miterlimit="10" cx="323.49" cy="340.073" rx="14.652" ry="12.623"/>
	
		<ellipse transform="matrix(0.9987 0.0515 -0.0515 0.9987 20.787 -16.3086)" fill="none" stroke="#FF0000" stroke-width="0.25" stroke-miterlimit="10" cx="326.794" cy="395.131" rx="15.148" ry="13.765"/>
	
		<ellipse transform="matrix(0.9999 0.0159 -0.0159 0.9999 7.1195 -5.7321)" fill="none" stroke="#FF0000" stroke-width="0.25" stroke-miterlimit="10" cx="364.179" cy="445.04" rx="15.821" ry="14.799"/>
	
		<ellipse fill="none" stroke="#FF0000" stroke-width="0.25" stroke-miterlimit="10" cx="337.917" cy="94.999" rx="61.75" ry="42.667"/>
	
		<ellipse fill="none" stroke="#FF0000" stroke-width="0.25" stroke-miterlimit="10" cx="338.083" cy="95.664" rx="69.917" ry="48.333"/>
	
		<ellipse fill="none" stroke="#FF0000" stroke-width="0.25" stroke-miterlimit="10" cx="338.25" cy="95.994" rx="77.583" ry="54.664"/>
	
		<ellipse fill="none" stroke="#FF0000" stroke-width="0.25" stroke-miterlimit="10" cx="344.594" cy="171.219" rx="12.906" ry="9.281"/>
	
		<ellipse fill="none" stroke="#FF0000" stroke-width="0.25" stroke-miterlimit="10" cx="396.094" cy="158.594" rx="12.906" ry="9.281"/>
	
		<ellipse transform="matrix(0.9993 0.0381 -0.0381 0.9993 5.2422 -16.2444)" fill="none" stroke="#FF0000" stroke-width="0.25" stroke-miterlimit="10" cx="428.984" cy="129.469" rx="12.75" ry="9.342"/>
	
		<ellipse transform="matrix(0.9993 0.0381 -0.0381 0.9993 3.882 -16.5377)" fill="none" stroke="#FF0000" stroke-width="0.25" stroke-miterlimit="10" cx="436.004" cy="93.623" rx="12.641" ry="8.88"/>
	
		<ellipse transform="matrix(0.998 0.0628 -0.0628 0.998 4.6764 -26.1157)" fill="none" stroke="#FF0000" stroke-width="0.25" stroke-miterlimit="10" cx="417.581" cy="61.298" rx="11.762" ry="8.441"/>
	
		<ellipse transform="matrix(0.9993 0.0381 -0.0381 0.9993 1.7892 -14.4276)" fill="none" stroke="#FF0000" stroke-width="0.25" stroke-miterlimit="10" cx="379.67" cy="39.76" rx="11.612" ry="8.496"/>
	
		<ellipse transform="matrix(0.9993 0.0381 -0.0381 0.9993 1.5099 -12.6228)" fill="none" stroke="#FF0000" stroke-width="0.25" stroke-miterlimit="10" cx="332.11" cy="33.325" rx="11.489" ry="8.313"/>
	
		<ellipse transform="matrix(0.9919 -0.127 0.127 0.9919 -3.2057 36.6921)" fill="none" stroke="#FF0000" stroke-width="0.25" stroke-miterlimit="10" cx="286.106" cy="43.483" rx="11.612" ry="8.545"/>
	
		<ellipse transform="matrix(0.9997 -0.0262 0.0262 0.9997 -1.6959 6.6584)" fill="none" stroke="#FF0000" stroke-width="0.25" stroke-miterlimit="10" cx="253.111" cy="68.013" rx="11.549" ry="8.551"/>
	
		<ellipse transform="matrix(0.9919 -0.127 0.127 0.9919 -11.0055 31.34)" fill="none" stroke="#FF0000" stroke-width="0.25" stroke-miterlimit="10" cx="240.206" cy="101.955" rx="12.115" ry="9.214"/>
	
		<ellipse transform="matrix(0.9983 -0.0582 0.0582 0.9983 -7.5328 14.9853)" fill="none" stroke="#FF0000" stroke-width="0.25" stroke-miterlimit="10" cx="253.649" cy="136.891" rx="12.336" ry="9.493"/>
	
		<ellipse transform="matrix(0.9983 -0.0582 0.0582 0.9983 -8.963 17.2251)" fill="none" stroke="#FF0000" stroke-width="0.25" stroke-miterlimit="10" cx="291.439" cy="162.594" rx="13.022" ry="9.838"/>
	
		<ellipse fill="none" stroke="#FF0000" stroke-width="0.25" stroke-miterlimit="10" cx="338.833" cy="104.667" rx="121.5" ry="85.333"/>
	
		<ellipse transform="matrix(0.9766 -0.2151 0.2151 0.9766 -10.5294 23.1446)" fill="none" stroke="#FF0000" stroke-width="0.25" stroke-miterlimit="10" cx="101.061" cy="59.944" rx="35.758" ry="22.777"/>
	
		<ellipse transform="matrix(0.9851 -0.1717 0.1717 0.9851 -9.0067 18.1266)" fill="none" stroke="#FF0000" stroke-width="0.25" stroke-miterlimit="10" cx="100.268" cy="61.122" rx="57.766" ry="35.591"/>
	
		<ellipse transform="matrix(0.9753 -0.221 0.221 0.9753 -11.0916 23.705)" fill="none" stroke="#FF0000" stroke-width="0.25" stroke-miterlimit="10" cx="100.405" cy="61.427" rx="64.285" ry="40.74"/>
	
		<ellipse transform="matrix(0.973 -0.2307 0.2307 0.973 -11.5783 24.9398)" fill="none" stroke="#FF0000" stroke-width="0.25" stroke-miterlimit="10" cx="100.845" cy="61.975" rx="70.924" ry="44.641"/>
	
		<ellipse transform="matrix(0.9646 -0.2635 0.2635 0.9646 -4.347 15.2607)" fill="none" stroke="#FF0000" stroke-width="0.25" stroke-miterlimit="10" cx="54.708" cy="23.833" rx="9.58" ry="5.185"/>
	
		<ellipse transform="matrix(0.9647 -0.2635 0.2635 0.9647 -11.7184 7.8457)" fill="none" stroke="#FF0000" stroke-width="0.25" stroke-miterlimit="10" cx="23.386" cy="47.604" rx="9.84" ry="5.889"/>
	
		<ellipse transform="matrix(0.9647 -0.2635 0.2635 0.9647 -20.0859 5.7611)" fill="none" stroke="#FF0000" stroke-width="0.25" stroke-miterlimit="10" cx="11.433" cy="77.756" rx="9.242" ry="5.636"/>
	
		<ellipse transform="matrix(0.9647 -0.2635 0.2635 0.9647 -26.9858 9.9484)" fill="none" stroke="#FF0000" stroke-width="0.25" stroke-miterlimit="10" cx="23.594" cy="105.577" rx="9.823" ry="6.891"/>
	
		<ellipse transform="matrix(0.9709 -0.2393 0.2393 0.9709 -27.7822 17.6654)" fill="none" stroke="#FF0000" stroke-width="0.25" stroke-miterlimit="10" cx="58.859" cy="123.247" rx="10.211" ry="7.298"/>
	
		<ellipse transform="matrix(0.9646 -0.2636 0.2636 0.9646 -29.0829 32.7717)" fill="none" stroke="#FF0000" stroke-width="0.25" stroke-miterlimit="10" cx="107.607" cy="124.785" rx="10.983" ry="8.011"/>
	
		<ellipse transform="matrix(0.9647 -0.2635 0.2635 0.9647 -23.1399 44.4017)" fill="none" stroke="#FF0000" stroke-width="0.25" stroke-miterlimit="10" cx="153.94" cy="108.456" rx="11.136" ry="7.53"/>
	
		<ellipse transform="matrix(0.981 -0.1942 0.1942 0.981 -12.1616 37.447)" fill="none" stroke="#FF0000" stroke-width="0.25" stroke-miterlimit="10" cx="184.864" cy="80.736" rx="10.852" ry="7.663"/>
	
		<ellipse transform="matrix(0.9692 -0.2463 0.2463 0.9692 -6.4222 48.6109)" fill="none" stroke="#FF0000" stroke-width="0.25" stroke-miterlimit="10" cx="191.129" cy="49.98" rx="10.163" ry="6.718"/>
	
		<ellipse transform="matrix(0.9706 -0.2409 0.2409 0.9706 -0.7712 42.734)" fill="none" stroke="#FF0000" stroke-width="0.25" stroke-miterlimit="10" cx="174.42" cy="24.522" rx="9.744" ry="5.694"/>
	
		<ellipse transform="matrix(0.972 -0.2349 0.2349 0.972 1.3549 33.0035)" fill="none" stroke="#FF0000" stroke-width="0.25" stroke-miterlimit="10" cx="139.237" cy="10.813" rx="9.401" ry="6.43"/>
	
		<ellipse transform="matrix(0.9738 -0.2273 0.2273 0.9738 0.2318 22.1496)" fill="none" stroke="#FF0000" stroke-width="0.25" stroke-miterlimit="10" cx="96.292" cy="10.068" rx="9.625" ry="6.482"/>
	
		<ellipse transform="matrix(0.9775 -0.2109 0.2109 0.9775 -12.1756 23.1848)" fill="none" stroke="#FF0000" stroke-width="0.25" stroke-miterlimit="10" cx="102.61" cy="68.676" rx="112.504" ry="72.148"/>
	
		<ellipse transform="matrix(0.9209 -0.3897 0.3897 0.9209 -96.8716 22.0516)" fill="none" stroke="#FF0000" stroke-width="0.25" stroke-miterlimit="10" cx="5.914" cy="249.781" rx="14.611" ry="10.174"/>
	
		<ellipse transform="matrix(0.9209 -0.3897 0.3897 0.9209 -82.8405 15.2153)" fill="none" stroke="#FF0000" stroke-width="0.25" stroke-miterlimit="10" cx="-3.92" cy="211.781" rx="14.611" ry="10.174"/>
	
		<ellipse fill="none" stroke="#FF0000" stroke-width="0.25" stroke-miterlimit="10" cx="337.625" cy="93.875" rx="38.375" ry="26.375"/>
	
		<ellipse transform="matrix(0.9824 0.1866 -0.1866 0.9824 77.5312 -77.5217)" fill="none" stroke="#FF0000" stroke-width="0.25" stroke-miterlimit="10" cx="450.48" cy="373.004" rx="161.272" ry="132.333"/>
	
		<ellipse transform="matrix(0.9609 0.277 -0.277 0.9609 147.914 -100.1125)" fill="none" stroke="#FF0000" stroke-width="0.25" stroke-miterlimit="10" cx="428.37" cy="473.58" rx="16.834" ry="14.5"/>
	
		<ellipse transform="matrix(0.9695 0.2452 -0.2452 0.9695 130.4373 -108.1778)" fill="none" stroke="#FF0000" stroke-width="0.25" stroke-miterlimit="10" cx="499.684" cy="469.775" rx="16.656" ry="14.667"/>
</g>
</svg>
