<?xml version="1.0" encoding="utf-8"?>
<!-- Generator: Adobe Illustrator 16.0.0, SVG Export Plug-In . SVG Version: 6.00 Build 0)  -->
<!DOCTYPE svg PUBLIC "-//W3C//DTD SVG 1.1 Tiny//EN" "http://www.w3.org/Graphics/SVG/1.1/DTD/svg11-tiny.dtd">
<svg version="1.1" baseProfile="tiny" xmlns="http://www.w3.org/2000/svg" xmlns:xlink="http://www.w3.org/1999/xlink" x="0px"
	 y="0px" width="161.28px" height="133.92px" viewBox="0 0 161.28 133.92" xml:space="preserve">
<g id="图层_1">
	<image width="224" height="186" xlink:href="../x/012.jpg"  transform="matrix(0.72 0 0 0.72 0 0)">
	</image>
</g>
<g id="图层_2">
	
		<ellipse fill="none" stroke="#FF0000" stroke-width="0.25" stroke-miterlimit="10" cx="80.063" cy="66.938" rx="27.313" ry="20.938"/>
	
		<ellipse fill="none" stroke="#FF0000" stroke-width="0.25" stroke-miterlimit="10" cx="78.729" cy="16.813" rx="7.813" ry="5.188"/>
	
		<ellipse fill="none" stroke="#FF0000" stroke-width="0.25" stroke-miterlimit="10" cx="118.854" cy="27.328" rx="7.813" ry="5.578"/>
	
		<ellipse fill="none" stroke="#FF0000" stroke-width="0.25" stroke-miterlimit="10" cx="138.859" cy="56.609" rx="8.391" ry="6.328"/>
	
		<ellipse fill="none" stroke="#FF0000" stroke-width="0.25" stroke-miterlimit="10" cx="124.875" cy="89.891" rx="8.833" ry="7.109"/>
	
		<ellipse fill="none" stroke="#FF0000" stroke-width="0.25" stroke-miterlimit="10" cx="81.208" cy="105.933" rx="8.833" ry="7.109"/>
	
		<ellipse transform="matrix(0.9991 -0.0425 0.0425 0.9991 -3.8853 1.6373)" fill="none" stroke="#FF0000" stroke-width="0.25" stroke-miterlimit="10" cx="36.542" cy="92.141" rx="8.979" ry="7.109"/>
	
		<ellipse transform="matrix(0.9991 -0.0426 0.0426 0.9991 -2.5125 0.9351)" fill="none" stroke="#FF0000" stroke-width="0.25" stroke-miterlimit="10" cx="20.707" cy="59.479" rx="8.639" ry="6.818"/>
	
		<ellipse transform="matrix(0.9991 -0.0426 0.0426 0.9991 -1.2176 1.6969)" fill="none" stroke="#FF0000" stroke-width="0.25" stroke-miterlimit="10" cx="39.233" cy="29.436" rx="8.287" ry="5.927"/>
	
		<ellipse transform="matrix(0.9994 -0.0355 0.0355 0.9994 -2.1876 2.8818)" fill="none" stroke="#FF0000" stroke-width="0.25" stroke-miterlimit="10" cx="80" cy="63" rx="74" ry="56.25"/>
	
		<ellipse fill="none" stroke="#FF0000" stroke-width="0.25" stroke-miterlimit="10" cx="79.75" cy="56.438" rx="32.875" ry="24.563"/>
	
		<ellipse fill="none" stroke="#FF0000" stroke-width="0.25" stroke-miterlimit="10" cx="79.833" cy="53.584" rx="40.333" ry="29.25"/>
</g>
</svg>
