<?xml version="1.0" encoding="utf-8"?>
<!-- Generator: Adobe Illustrator 16.0.0, SVG Export Plug-In . SVG Version: 6.00 Build 0)  -->
<!DOCTYPE svg PUBLIC "-//W3C//DTD SVG 1.1 Tiny//EN" "http://www.w3.org/Graphics/SVG/1.1/DTD/svg11-tiny.dtd">
<svg version="1.1" baseProfile="tiny" xmlns="http://www.w3.org/2000/svg" xmlns:xlink="http://www.w3.org/1999/xlink" x="0px"
	 y="0px" width="500px" height="500px" viewBox="0 0 500 500" xml:space="preserve">
<g id="图层_1">
	<image width="500" height="500" xlink:href="../x/014.jpg" >
	</image>
</g>
<g id="图层_2">
	
		<ellipse transform="matrix(0.9999 -0.0116 0.0116 0.9999 -2.7583 2.7642)" fill="none" stroke="#FF0000" stroke-width="0.25" stroke-miterlimit="10" cx="236.875" cy="239.125" rx="83.375" ry="61.375"/>
	
		<ellipse fill="none" stroke="#FF0000" stroke-width="0.25" stroke-miterlimit="10" cx="236.167" cy="199.501" rx="122.167" ry="89.833"/>
	
		<ellipse transform="matrix(0.9992 -0.0407 0.0407 0.9992 -9.1268 9.8182)" fill="none" stroke="#FF0000" stroke-width="0.25" stroke-miterlimit="10" cx="236.565" cy="229.058" rx="225.103" ry="169.001"/>
	
		<ellipse transform="matrix(0.9998 -0.0203 0.0203 0.9998 -1.7588 4.7427)" fill="none" stroke="#FF0000" stroke-width="0.25" stroke-miterlimit="10" cx="232.5" cy="88.917" rx="23.333" ry="16.416"/>
	
		<ellipse transform="matrix(0.9968 -0.0794 0.0794 0.9968 -9.7367 9.3858)" fill="none" stroke="#FF0000" stroke-width="0.25" stroke-miterlimit="10" cx="113.199" cy="127.175" rx="24.07" ry="16.863"/>
	
		<ellipse transform="matrix(0.9902 -0.14 0.14 0.9902 -29.9699 10.0578)" fill="none" stroke="#FF0000" stroke-width="0.25" stroke-miterlimit="10" cx="56.505" cy="218.052" rx="25.991" ry="18.166"/>
	
		<ellipse transform="matrix(0.9902 -0.14 0.14 0.9902 -43.3115 17.7608)" fill="none" stroke="#FF0000" stroke-width="0.25" stroke-miterlimit="10" cx="104.589" cy="316.741" rx="26.871" ry="20.15"/>
	
		<ellipse transform="matrix(0.9991 -0.0413 0.0413 0.9991 -14.5847 10.2082)" fill="none" stroke="#FF0000" stroke-width="0.25" stroke-miterlimit="10" cx="239.641" cy="357.903" rx="26.871" ry="20.814"/>
	
		<ellipse transform="matrix(0.9936 0.1129 -0.1129 0.9936 37.287 -40.0713)" fill="none" stroke="#FF0000" stroke-width="0.25" stroke-miterlimit="10" cx="372.46" cy="309.197" rx="26.522" ry="20.814"/>
	
		<ellipse transform="matrix(0.9936 0.1129 -0.1129 0.9936 26.2459 -45.4955)" fill="none" stroke="#FF0000" stroke-width="0.25" stroke-miterlimit="10" cx="414.842" cy="209.001" rx="24.892" ry="18.48"/>
	
		<ellipse transform="matrix(0.9992 0.0396 -0.0396 0.9992 5.0385 -13.9324)" fill="none" stroke="#FF0000" stroke-width="0.25" stroke-miterlimit="10" cx="353.833" cy="120.083" rx="23.834" ry="17.084"/>
	
		<ellipse transform="matrix(0.9996 -0.0292 0.0292 0.9996 -5.9987 6.965)" fill="none" stroke="#FF0000" stroke-width="0.25" stroke-miterlimit="10" cx="235.849" cy="209.197" rx="99.501" ry="73.864"/>
</g>
</svg>
