<?xml version="1.0" encoding="utf-8"?>
<!-- Generator: Adobe Illustrator 16.0.0, SVG Export Plug-In . SVG Version: 6.00 Build 0)  -->
<!DOCTYPE svg PUBLIC "-//W3C//DTD SVG 1.1 Tiny//EN" "http://www.w3.org/Graphics/SVG/1.1/DTD/svg11-tiny.dtd">
<svg version="1.1" baseProfile="tiny" xmlns="http://www.w3.org/2000/svg" xmlns:xlink="http://www.w3.org/1999/xlink" x="0px"
	 y="0px" width="547.5px" height="547.5px" viewBox="0 0 547.5 547.5" xml:space="preserve">
<g id="图层_1">
	<image width="730" height="730" xlink:href="../x/015.jpg"  transform="matrix(0.75 0 0 0.75 0 0)">
	</image>
</g>
<g id="图层_2">
	
		<ellipse fill="none" stroke="#FF0000" stroke-width="0.25" stroke-miterlimit="10" cx="278.167" cy="292.501" rx="95.833" ry="95.166"/>
	<ellipse fill="none" stroke="#FF0000" stroke-width="0.25" stroke-miterlimit="10" cx="278" cy="288.834" rx="102" ry="102.833"/>
	<ellipse fill="none" stroke="#FF0000" stroke-width="0.25" stroke-miterlimit="10" cx="278" cy="288.834" rx="102" ry="102.833"/>
	
		<ellipse fill="none" stroke="#FF0000" stroke-width="0.25" stroke-miterlimit="10" cx="278.333" cy="289.168" rx="118.333" ry="117.498"/>
	
		<ellipse fill="none" stroke="#FF0000" stroke-width="0.25" stroke-miterlimit="10" cx="278.499" cy="289.001" rx="128.833" ry="127.664"/>
	
		<ellipse fill="none" stroke="#FF0000" stroke-width="0.25" stroke-miterlimit="10" cx="277.833" cy="289.832" rx="140.499" ry="139.162"/>
	
		<ellipse fill="none" stroke="#FF0000" stroke-width="0.25" stroke-miterlimit="10" cx="301.125" cy="118.125" rx="20" ry="19.375"/>
	
		<ellipse transform="matrix(0.6771 -0.7359 0.7359 0.6771 -0.9086 365.6486)" fill="none" stroke="#FF0000" stroke-width="0.25" stroke-miterlimit="10" cx="416.221" cy="183.86" rx="19.461" ry="19.708"/>
	
		<ellipse fill="none" stroke="#FF0000" stroke-width="0.25" stroke-miterlimit="10" cx="172.875" cy="151.125" rx="20" ry="19.375"/>
	
		<ellipse fill="none" stroke="#FF0000" stroke-width="0.25" stroke-miterlimit="10" cx="103.75" cy="265.604" rx="21.25" ry="21.271"/>
	
		<ellipse fill="none" stroke="#FF0000" stroke-width="0.25" stroke-miterlimit="10" cx="136.042" cy="397.124" rx="21.542" ry="22.126"/>
	
		<ellipse fill="none" stroke="#FF0000" stroke-width="0.25" stroke-miterlimit="10" cx="254.75" cy="466.208" rx="22.084" ry="22.126"/>
	
		<ellipse fill="none" stroke="#FF0000" stroke-width="0.25" stroke-miterlimit="10" cx="386.833" cy="429.875" rx="22.084" ry="22.126"/>
	
		<ellipse fill="none" stroke="#FF0000" stroke-width="0.25" stroke-miterlimit="10" cx="451.5" cy="312.625" rx="19.751" ry="20.876"/>
	<ellipse fill="none" stroke="#FF0000" stroke-width="0.25" stroke-miterlimit="10" cx="278" cy="291.334" rx="151" ry="151.333"/>
	<ellipse fill="none" stroke="#FF0000" stroke-width="0.25" stroke-miterlimit="10" cx="277" cy="295" rx="218" ry="217"/>
</g>
</svg>
