<?xml version="1.0" encoding="utf-8"?>
<!-- Generator: Adobe Illustrator 16.0.0, SVG Export Plug-In . SVG Version: 6.00 Build 0)  -->
<!DOCTYPE svg PUBLIC "-//W3C//DTD SVG 1.1 Tiny//EN" "http://www.w3.org/Graphics/SVG/1.1/DTD/svg11-tiny.dtd">
<svg version="1.1" baseProfile="tiny" xmlns="http://www.w3.org/2000/svg" xmlns:xlink="http://www.w3.org/1999/xlink" x="0px"
	 y="0px" width="309.75px" height="300.75px" viewBox="0 0 309.75 300.75" xml:space="preserve">
<g id="图层_1">
	<image width="413" height="401" xlink:href="../x/016.jpg"  transform="matrix(0.75 0 0 0.75 0 0)">
	</image>
</g>
<g id="图层_2">
	
		<ellipse fill="none" stroke="#FF0000" stroke-width="0.25" stroke-miterlimit="10" cx="157.313" cy="139.625" rx="8.938" ry="9.125"/>
	<circle fill="none" stroke="#FF0000" stroke-width="0.25" stroke-miterlimit="10" cx="272.188" cy="176.563" r="11.875"/>
	
		<ellipse fill="none" stroke="#FF0000" stroke-width="0.25" stroke-miterlimit="10" cx="183.834" cy="259.844" rx="12.5" ry="12.739"/>
	
		<ellipse fill="none" stroke="#FF0000" stroke-width="0.25" stroke-miterlimit="10" cx="64.417" cy="222.303" rx="13.25" ry="13.364"/>
	
		<ellipse fill="none" stroke="#FF0000" stroke-width="0.25" stroke-miterlimit="10" cx="42.167" cy="103.428" rx="13.25" ry="13.156"/>
	
		<ellipse fill="none" stroke="#FF0000" stroke-width="0.25" stroke-miterlimit="10" cx="132.854" cy="27.053" rx="13.249" ry="13.364"/>
	
		<ellipse fill="none" stroke="#FF0000" stroke-width="0.25" stroke-miterlimit="10" cx="244.583" cy="62.386" rx="12.916" ry="13.114"/>
	
		<ellipse fill="none" stroke="#FF0000" stroke-width="0.25" stroke-miterlimit="10" cx="258.156" cy="124.531" rx="16.344" ry="16.156"/>
	
		<ellipse fill="none" stroke="#FF0000" stroke-width="0.25" stroke-miterlimit="10" cx="229.156" cy="223.594" rx="16.469" ry="16.531"/>
	
		<ellipse fill="none" stroke="#FF0000" stroke-width="0.25" stroke-miterlimit="10" cx="125.239" cy="247.344" rx="16.469" ry="16.531"/>
	
		<ellipse transform="matrix(0.9941 -0.1086 0.1086 0.9941 -17.9557 6.8077)" fill="none" stroke="#FF0000" stroke-width="0.25" stroke-miterlimit="10" cx="53.51" cy="168.219" rx="16.677" ry="16.531"/>
	
		<ellipse transform="matrix(0.8254 -0.5645 0.5645 0.8254 -23.8863 62.0584)" fill="none" stroke="#FF0000" stroke-width="0.25" stroke-miterlimit="10" cx="88.395" cy="69.649" rx="16.54" ry="15.408"/>
	
		<ellipse transform="matrix(0.9111 0.4122 -0.4122 0.9111 37.2742 -73.5437)" fill="none" stroke="#FF0000" stroke-width="0.25" stroke-miterlimit="10" cx="189.107" cy="49.627" rx="16.209" ry="15.173"/>
</g>
</svg>
