<?xml version="1.0" encoding="utf-8"?>
<!-- Generator: Adobe Illustrator 16.0.0, SVG Export Plug-In . SVG Version: 6.00 Build 0)  -->
<!DOCTYPE svg PUBLIC "-//W3C//DTD SVG 1.1 Tiny//EN" "http://www.w3.org/Graphics/SVG/1.1/DTD/svg11-tiny.dtd">
<svg version="1.1" baseProfile="tiny" xmlns="http://www.w3.org/2000/svg" xmlns:xlink="http://www.w3.org/1999/xlink" x="0px"
	 y="0px" width="700px" height="574px" viewBox="0 0 700 574" xml:space="preserve">
<g id="图层_1">
	<image width="700" height="574" xlink:href="../x/018.jpg" >
	</image>
</g>
<g id="图层_2">
	
		<ellipse transform="matrix(0.9995 0.032 -0.032 0.9995 5.0221 -11.4408)" fill="none" stroke="#FF0000" stroke-width="0.25" stroke-miterlimit="10" cx="359.917" cy="151.167" rx="55.583" ry="35.166"/>
	
		<ellipse transform="matrix(0.9997 0.0258 -0.0258 0.9997 4.1577 -9.2316)" fill="none" stroke="#FF0000" stroke-width="0.25" stroke-miterlimit="10" cx="359.793" cy="156.489" rx="150.867" ry="94.523"/>
	
		<ellipse transform="matrix(0.9995 0.0303 -0.0303 0.9995 10.9477 -9.5476)" fill="none" stroke="#FF0000" stroke-width="0.25" stroke-miterlimit="10" cx="320" cy="355.875" rx="39" ry="25.875"/>
	
		<ellipse transform="matrix(1 0.0029 -0.0029 1 0.7378 -0.4252)" fill="none" stroke="#FF0000" stroke-width="0.25" stroke-miterlimit="10" cx="145.499" cy="251.625" rx="39" ry="25.625"/>
	
		<ellipse transform="matrix(0.999 0.0444 -0.0444 0.999 8.6448 -24.6987)" fill="none" stroke="#FF0000" stroke-width="0.25" stroke-miterlimit="10" cx="560.415" cy="182.29" rx="38.084" ry="24.456"/>
	
		<ellipse transform="matrix(0.9997 0.0247 -0.0247 0.9997 5.5467 -8.7076)" fill="none" stroke="#FF0000" stroke-width="0.25" stroke-miterlimit="10" cx="355.189" cy="220.131" rx="171.667" ry="108.532"/>
</g>
</svg>
