<?xml version="1.0" encoding="utf-8"?>
<!-- Generator: Adobe Illustrator 16.0.0, SVG Export Plug-In . SVG Version: 6.00 Build 0)  -->
<!DOCTYPE svg PUBLIC "-//W3C//DTD SVG 1.1 Tiny//EN" "http://www.w3.org/Graphics/SVG/1.1/DTD/svg11-tiny.dtd">
<svg version="1.1" baseProfile="tiny" xmlns="http://www.w3.org/2000/svg" xmlns:xlink="http://www.w3.org/1999/xlink" x="0px"
	 y="0px" width="232px" height="208px" viewBox="0 0 232 208" xml:space="preserve">
<g id="图层_1">
	<image width="232" height="208" xlink:href="../x/019.jpg" >
	</image>
</g>
<g id="图层_2">
	
		<ellipse transform="matrix(0.7665 -0.6422 0.6422 0.7665 10.0468 119.4371)" fill="none" stroke="#FF0000" stroke-width="0.25" stroke-miterlimit="10" cx="169.295" cy="45.9" rx="23.762" ry="25.802"/>
	
		<ellipse transform="matrix(0.7426 -0.6698 0.6698 0.7426 12.0829 125.3733)" fill="none" stroke="#FF0000" stroke-width="0.25" stroke-miterlimit="10" cx="169.135" cy="46.969" rx="38.606" ry="41.849"/>
	
		<ellipse transform="matrix(0.758 0.6523 -0.6523 0.758 44.9124 -26.9884)" fill="none" stroke="#FF0000" stroke-width="0.25" stroke-miterlimit="10" cx="58.826" cy="47.03" rx="39.011" ry="41.934"/>
	
		<ellipse transform="matrix(0.9863 0.1649 -0.1649 0.9863 24.5084 -6.9505)" fill="none" stroke="#FF0000" stroke-width="0.25" stroke-miterlimit="10" cx="54.106" cy="144.101" rx="44.294" ry="51.047"/>
	
		<ellipse transform="matrix(0.9677 -0.2522 0.2522 0.9677 -31.0777 49.4113)" fill="none" stroke="#FF0000" stroke-width="0.25" stroke-miterlimit="10" cx="177.2" cy="145.93" rx="44.3" ry="50.749"/>
	
		<ellipse transform="matrix(0.9822 -0.188 0.188 0.9822 -24.0792 35.9365)" fill="none" stroke="#FF0000" stroke-width="0.25" stroke-miterlimit="10" cx="177.412" cy="144.91" rx="26.968" ry="31.759"/>
</g>
</svg>
