<?xml version="1.0" encoding="iso-8859-1"?>
<!-- Generator: Adobe Illustrator 16.0.0, SVG Export Plug-In . SVG Version: 6.00 Build 0)  -->
<!DOCTYPE svg PUBLIC "-//W3C//DTD SVG 1.1//EN" "http://www.w3.org/Graphics/SVG/1.1/DTD/svg11.dtd">
<svg version="1.1" xmlns="http://www.w3.org/2000/svg" xmlns:xlink="http://www.w3.org/1999/xlink" x="0px" y="0px" width="184px"
	 height="180px" viewBox="0 0 184 180" style="enable-background:new 0 0 184 180;" xml:space="preserve">
<g id="&#x56FE;&#x5C42;_1">
	<image style="overflow:visible;" width="184" height="180" xlink:href="../x/022.jpg" >
	</image>
</g>
<g id="&#x56FE;&#x5C42;_2">
	
		<ellipse transform="matrix(0.5941 -0.8044 0.8044 0.5941 -33.4632 106.8778)" style="fill:none;stroke:#FF0000;stroke-width:0.25;stroke-miterlimit:10;" cx="89.165" cy="86.595" rx="41.979" ry="38.547"/>
	
		<ellipse transform="matrix(0.885 0.4656 -0.4656 0.885 62.3264 -61.9238)" style="fill:none;stroke:#FF0000;stroke-width:0.25;stroke-miterlimit:10;" cx="156.518" cy="95.208" rx="6.155" ry="6.693"/>
	
		<ellipse transform="matrix(0.885 0.4656 -0.4656 0.885 76.6514 -60.1729)" style="fill:none;stroke:#FF0000;stroke-width:0.25;stroke-miterlimit:10;" cx="160.136" cy="125.082" rx="6.155" ry="6.976"/>
	
		<ellipse transform="matrix(0.885 0.4656 -0.4656 0.885 77.606 -10.4099)" style="fill:none;stroke:#FF0000;stroke-width:0.25;stroke-miterlimit:10;" cx="59.875" cy="151.889" rx="6.44" ry="7.236"/>
	
		<ellipse transform="matrix(0.885 0.4656 -0.4656 0.885 77.1924 1.2334)" style="fill:none;stroke:#FF0000;stroke-width:0.25;stroke-miterlimit:10;" cx="36.099" cy="156.88" rx="6.657" ry="7.347"/>
	
		<ellipse transform="matrix(0.885 0.4656 -0.4656 0.885 25.2031 -14.9721)" style="fill:none;stroke:#FF0000;stroke-width:0.25;stroke-miterlimit:10;" cx="42.908" cy="43.53" rx="6.727" ry="7.56"/>
	
		<ellipse transform="matrix(0.8255 0.5645 -0.5645 0.8255 20.9788 -17.0769)" style="fill:none;stroke:#FF0000;stroke-width:0.25;stroke-miterlimit:10;" cx="38.102" cy="25.384" rx="6.91" ry="7.582"/>
	
		<ellipse transform="matrix(0.696 -0.718 0.718 0.696 -35.3826 91.6883)" style="fill:none;stroke:#FF0000;stroke-width:0.25;stroke-miterlimit:10;" cx="90.59" cy="87.63" rx="59.215" ry="55.671"/>
</g>
</svg>
