<?xml version="1.0" encoding="utf-8"?>
<!-- Generator: Adobe Illustrator 16.0.0, SVG Export Plug-In . SVG Version: 6.00 Build 0)  -->
<!DOCTYPE svg PUBLIC "-//W3C//DTD SVG 1.1 Tiny//EN" "http://www.w3.org/Graphics/SVG/1.1/DTD/svg11-tiny.dtd">
<svg version="1.1" baseProfile="tiny" xmlns="http://www.w3.org/2000/svg" xmlns:xlink="http://www.w3.org/1999/xlink" x="0px"
	 y="0px" width="435px" height="500px" viewBox="0 0 435 500" xml:space="preserve">
<g id="图层_1">
	<image width="435" height="500" xlink:href="../x/023.jpg" >
	</image>
</g>
<g id="图层_2">
	
		<ellipse transform="matrix(0.9848 0.1734 -0.1734 0.9848 49.0909 -45.2439)" fill="none" stroke="#FF0000" stroke-width="0.25" stroke-miterlimit="10" cx="283.438" cy="258.284" rx="111.874" ry="151.454"/>
	
		<ellipse transform="matrix(0.9847 0.1745 -0.1745 0.9847 47.3195 -38.2048)" fill="none" stroke="#FF0000" stroke-width="0.25" stroke-miterlimit="10" cx="240.966" cy="250.048" rx="188.297" ry="248.855"/>
	
		<ellipse transform="matrix(0.9822 0.1877 -0.1877 0.9822 40.8935 -16.8316)" fill="none" stroke="#FF0000" stroke-width="0.25" stroke-miterlimit="10" cx="109.336" cy="207.547" rx="19.761" ry="23.944"/>
	
		<ellipse transform="matrix(0.9647 0.2633 -0.2633 0.9647 111.3323 -24.4227)" fill="none" stroke="#FF0000" stroke-width="0.25" stroke-miterlimit="10" cx="146.79" cy="403.181" rx="18.523" ry="23.005"/>
	
		<ellipse transform="matrix(0.977 0.2134 -0.2134 0.977 99.1156 -52.3794)" fill="none" stroke="#FF0000" stroke-width="0.25" stroke-miterlimit="10" cx="292.193" cy="432.94" rx="15.855" ry="21.574"/>
	
		<ellipse transform="matrix(0.977 0.2134 -0.2134 0.977 88.6065 -67.1745)" fill="none" stroke="#FF0000" stroke-width="0.25" stroke-miterlimit="10" cx="355.454" cy="376.836" rx="19.389" ry="27.524"/>
	
		<ellipse transform="matrix(0.977 0.2134 -0.2134 0.977 71.5917 -76.8593)" fill="none" stroke="#FF0000" stroke-width="0.25" stroke-miterlimit="10" cx="391.731" cy="293.112" rx="17.063" ry="21.056"/>
	
		<ellipse transform="matrix(0.9994 0.0338 -0.0338 0.9994 4.2009 -12.3915)" fill="none" stroke="#FF0000" stroke-width="0.25" stroke-miterlimit="10" cx="368.499" cy="118.017" rx="15.662" ry="21.056"/>
	
		<ellipse transform="matrix(0.9994 0.0338 -0.0338 0.9994 2.437 -10.709)" fill="none" stroke="#FF0000" stroke-width="0.25" stroke-miterlimit="10" cx="317.835" cy="66.697" rx="20.18" ry="27"/>
	
		<ellipse transform="matrix(0.9828 0.1848 -0.1848 0.9828 50.8979 -42.7173)" fill="none" stroke="#FF0000" stroke-width="0.25" stroke-miterlimit="10" cx="254.558" cy="251.626" rx="136.057" ry="178.368"/>
	<ellipse fill="none" stroke="#FF0000" stroke-miterlimit="10" cx="156.75" cy="113.5" rx="25.25" ry="31.25"/>
	<ellipse fill="none" stroke="#FF0000" stroke-miterlimit="10" cx="231.625" cy="62.5" rx="17.625" ry="22.5"/>
	
		<ellipse transform="matrix(0.9844 0.176 -0.176 0.9844 49.8977 -45.7443)" fill="none" stroke="#FF0000" stroke-miterlimit="10" cx="282.904" cy="258.504" rx="100.851" ry="135.726"/>
</g>
</svg>
