<?xml version="1.0" encoding="utf-8"?>
<!-- Generator: Adobe Illustrator 16.0.0, SVG Export Plug-In . SVG Version: 6.00 Build 0)  -->
<!DOCTYPE svg PUBLIC "-//W3C//DTD SVG 1.1 Tiny//EN" "http://www.w3.org/Graphics/SVG/1.1/DTD/svg11-tiny.dtd">
<svg version="1.1" baseProfile="tiny" xmlns="http://www.w3.org/2000/svg" xmlns:xlink="http://www.w3.org/1999/xlink" x="0px"
	 y="0px" width="250px" height="250px" viewBox="0 0 250 250" xml:space="preserve">
<g id="图层_1">
	<image width="250" height="250" xlink:href="../x/024.jpg" >
	</image>
</g>
<g id="图层_2">
	
		<ellipse fill="none" stroke="#E71F19" stroke-width="0.25" stroke-miterlimit="10" cx="125.834" cy="125.999" rx="34.5" ry="29.001"/>
	
		<ellipse fill="none" stroke="#E71F19" stroke-width="0.25" stroke-miterlimit="10" cx="125.333" cy="110.5" rx="81.667" ry="65.167"/>
	
		<ellipse fill="none" stroke="#E71F19" stroke-width="0.25" stroke-miterlimit="10" cx="125.833" cy="125.667" rx="76.833" ry="64"/>
	<ellipse fill="none" stroke="#E71F19" stroke-width="0.25" stroke-miterlimit="10" cx="75.938" cy="40.75" rx="13.313" ry="10.5"/>
	<ellipse fill="none" stroke="#E71F19" stroke-width="0.25" stroke-miterlimit="10" cx="53" cy="50.875" rx="9" ry="7"/>
	
		<ellipse fill="none" stroke="#E71F19" stroke-width="0.25" stroke-miterlimit="10" cx="124.896" cy="30.854" rx="17.187" ry="12.771"/>
	
		<ellipse fill="none" stroke="#E71F19" stroke-width="0.25" stroke-miterlimit="10" cx="210.98" cy="67.333" rx="13.937" ry="11.333"/>
	
		<ellipse fill="none" stroke="#E71F19" stroke-width="0.25" stroke-miterlimit="10" cx="225.375" cy="85.75" rx="9.208" ry="7.083"/>
	
		<ellipse fill="none" stroke="#E71F19" stroke-width="0.25" stroke-miterlimit="10" cx="178.625" cy="181.083" rx="14.958" ry="12.168"/>
	
		<ellipse fill="none" stroke="#E71F19" stroke-width="0.25" stroke-miterlimit="10" cx="98.292" cy="193.5" rx="10.292" ry="8.333"/>
	
		<ellipse transform="matrix(0.9999 -0.0135 0.0135 0.9999 -1.5091 1.6898)" fill="none" stroke="#E71F19" stroke-width="0.25" stroke-miterlimit="10" cx="124.833" cy="113" rx="121.5" ry="96.333"/>
	
		<ellipse transform="matrix(0.9819 -0.1893 0.1893 0.9819 -27.9891 9.5369)" fill="none" stroke="#E71F19" stroke-width="0.25" stroke-miterlimit="10" cx="35.935" cy="151.303" rx="14.317" ry="11.875"/>
</g>
</svg>
