<?xml version="1.0" encoding="utf-8"?>
<!-- Generator: Adobe Illustrator 16.0.0, SVG Export Plug-In . SVG Version: 6.00 Build 0)  -->
<!DOCTYPE svg PUBLIC "-//W3C//DTD SVG 1.1 Tiny//EN" "http://www.w3.org/Graphics/SVG/1.1/DTD/svg11-tiny.dtd">
<svg version="1.1" baseProfile="tiny" xmlns="http://www.w3.org/2000/svg" xmlns:xlink="http://www.w3.org/1999/xlink" x="0px"
	 y="0px" width="600px" height="604px" viewBox="0 0 600 604" xml:space="preserve">
<g id="图层_1">
	<image width="600" height="604" xlink:href="../x/025.jpg" >
	</image>
</g>
<g id="图层_2">
	
		<ellipse transform="matrix(0.7984 0.6021 -0.6021 0.7984 252.6007 -127.5584)" fill="none" stroke="#FF0000" stroke-width="0.25" stroke-miterlimit="10" cx="316.784" cy="313.431" rx="126.698" ry="139.242"/>
	
		<ellipse transform="matrix(0.9524 0.3047 -0.3047 0.9524 48.7249 -107.5537)" fill="none" stroke="#FF0000" stroke-width="0.25" stroke-miterlimit="10" cx="368.952" cy="102.332" rx="19.342" ry="21.587"/>
	
		<ellipse transform="matrix(0.9524 0.3047 -0.3047 0.9524 68.4604 -113.8807)" fill="none" stroke="#FF0000" stroke-width="0.25" stroke-miterlimit="10" cx="399.09" cy="162.398" rx="19.342" ry="20.83"/>
	
		<ellipse transform="matrix(0.9524 0.3047 -0.3047 0.9524 67.6827 -134.1626)" fill="none" stroke="#FF0000" stroke-width="0.25" stroke-miterlimit="10" cx="463.689" cy="149.77" rx="19.137" ry="20.412"/>
	
		<ellipse transform="matrix(0.9524 0.3047 -0.3047 0.9524 96.9736 -145.5695)" fill="none" stroke="#FF0000" stroke-width="0.25" stroke-miterlimit="10" cx="514.871" cy="237.905" rx="19.301" ry="20.209"/>
	
		<ellipse transform="matrix(0.9525 0.3047 -0.3047 0.9525 113.3734 -132.0433)" fill="none" stroke="#FF0000" stroke-width="0.25" stroke-miterlimit="10" cx="479.759" cy="297.231" rx="18.065" ry="19.397"/>
	
		<ellipse transform="matrix(0.9497 0.313 -0.313 0.9497 133.9891 -143.3194)" fill="none" stroke="#FF0000" stroke-width="0.25" stroke-miterlimit="10" cx="513.333" cy="345.622" rx="18.938" ry="22.245"/>
	
		<ellipse transform="matrix(0.7713 0.6365 -0.6365 0.7713 375.569 -153.2648)" fill="none" stroke="#FF0000" stroke-width="0.25" stroke-miterlimit="10" cx="401.039" cy="445.938" rx="18.028" ry="20.654"/>
	
		<ellipse transform="matrix(0.7713 0.6365 -0.6365 0.7713 407.8586 -122.2432)" fill="none" stroke="#FF0000" stroke-width="0.25" stroke-miterlimit="10" cx="374.018" cy="506.37" rx="20.269" ry="22.908"/>
	
		<ellipse transform="matrix(0.7518 0.6594 -0.6594 0.7518 367.0767 -41.9638)" fill="none" stroke="#FF0000" stroke-width="0.25" stroke-miterlimit="10" cx="239.282" cy="466.63" rx="18.391" ry="20.689"/>
	
		<ellipse transform="matrix(0.7518 0.6594 -0.6594 0.7518 257.9918 -16.3629)" fill="none" stroke="#FF0000" stroke-width="0.25" stroke-miterlimit="10" cx="150.731" cy="334.521" rx="19.271" ry="20.17"/>
	
		<ellipse transform="matrix(0.7322 0.681 -0.681 0.7322 290.8591 -127.7862)" fill="none" stroke="#FF0000" stroke-width="0.25" stroke-miterlimit="10" cx="307.944" cy="306.012" rx="253.177" ry="278.647"/>
	
		<ellipse fill="none" stroke="#FF0000" stroke-width="0.25" stroke-miterlimit="10" cx="258.167" cy="112.583" rx="21.167" ry="21.083"/>
	
		<ellipse fill="none" stroke="#FF0000" stroke-width="0.25" stroke-miterlimit="10" cx="160.25" cy="176.75" rx="17.083" ry="16.75"/>
	
		<ellipse fill="none" stroke="#FF0000" stroke-width="0.25" stroke-miterlimit="10" cx="231.25" cy="177.938" rx="19.625" ry="19.063"/>
	
		<ellipse fill="none" stroke="#FF0000" stroke-width="0.25" stroke-miterlimit="10" cx="170.083" cy="246.917" rx="28.25" ry="27.583"/>
	
		<ellipse fill="none" stroke="#FF0000" stroke-width="0.25" stroke-miterlimit="10" cx="106.167" cy="282.333" rx="19.167" ry="18.833"/>
	<ellipse fill="none" stroke="#FF0000" stroke-width="0.25" stroke-miterlimit="10" cx="113" cy="394.063" rx="21" ry="20.063"/>
	
		<ellipse transform="matrix(0.841 -0.541 0.541 0.841 -232.3833 168.8939)" fill="none" stroke="#FF0000" stroke-width="0.25" stroke-miterlimit="10" cx="171.196" cy="479.867" rx="20.26" ry="17.667"/>
	
		<ellipse transform="matrix(0.7663 -0.6425 0.6425 0.7663 -270.8922 293.0388)" fill="none" stroke="#FF0000" stroke-width="0.25" stroke-miterlimit="10" cx="267.343" cy="518.867" rx="20.762" ry="18.814"/>
	
		<ellipse transform="matrix(0.7775 -0.6288 0.6288 0.7775 -228.606 307.7583)" fill="none" stroke="#FF0000" stroke-width="0.25" stroke-miterlimit="10" cx="320.663" cy="476.976" rx="28.721" ry="25.565"/>
	
		<ellipse transform="matrix(0.7546 -0.6562 0.6562 0.7546 -176.3398 411.3968)" fill="none" stroke="#FF0000" stroke-width="0.25" stroke-miterlimit="10" cx="461.846" cy="441.456" rx="20.593" ry="17.945"/>
	
		<ellipse transform="matrix(0.7441 0.6681 -0.6681 0.7441 262.5104 -250.5066)" fill="none" stroke="#FF0000" stroke-width="0.25" stroke-miterlimit="10" cx="458.232" cy="217.392" rx="25.904" ry="28.64"/>
	
		<ellipse transform="matrix(0.6805 -0.7327 0.7327 0.6805 -127.66 328.556)" fill="none" stroke="#FF0000" stroke-width="0.25" stroke-miterlimit="10" cx="312.963" cy="310.68" rx="225.962" ry="203.107"/>
</g>
</svg>
