<?xml version="1.0" encoding="utf-8"?>
<!-- Generator: Adobe Illustrator 16.0.0, SVG Export Plug-In . SVG Version: 6.00 Build 0)  -->
<!DOCTYPE svg PUBLIC "-//W3C//DTD SVG 1.1 Tiny//EN" "http://www.w3.org/Graphics/SVG/1.1/DTD/svg11-tiny.dtd">
<svg version="1.1" baseProfile="tiny" xmlns="http://www.w3.org/2000/svg" xmlns:xlink="http://www.w3.org/1999/xlink" x="0px"
	 y="0px" width="120px" height="102.72px" viewBox="0 0 120 102.72" xml:space="preserve">
<g id="图层_1">
	<image width="500" height="428" xlink:href="../x/026.jpg"  transform="matrix(0.24 0 0 0.24 0 0)">
	</image>
</g>
<g id="图层_2">
	
		<ellipse transform="matrix(0.7249 -0.6889 0.6889 0.7249 -9.4652 40.7258)" fill="none" stroke="#FF0000" stroke-width="0.25" stroke-miterlimit="10" cx="46.253" cy="32.213" rx="12.964" ry="10.878"/>
	
		<ellipse transform="matrix(0.7678 -0.6407 0.6407 0.7678 -7.0547 27.4939)" fill="none" stroke="#FF0000" stroke-width="0.25" stroke-miterlimit="10" cx="34.404" cy="23.48" rx="2.015" ry="1.677"/>
	
		<ellipse transform="matrix(0.7678 -0.6407 0.6407 0.7678 -13.1274 27.0016)" fill="none" stroke="#FF0000" stroke-width="0.25" stroke-miterlimit="10" cx="30.688" cy="31.611" rx="2.071" ry="1.764"/>
	
		<ellipse transform="matrix(0.7678 -0.6407 0.6407 0.7678 -20.6005 38.7115)" fill="none" stroke="#FF0000" stroke-width="0.25" stroke-miterlimit="10" cx="43.107" cy="47.777" rx="2.015" ry="1.677"/>
	
		<ellipse transform="matrix(0.7678 -0.6407 0.6407 0.7678 -17.6437 43.3673)" fill="none" stroke="#FF0000" stroke-width="0.25" stroke-miterlimit="10" cx="51.011" cy="46.026" rx="1.991" ry="1.677"/>
	
		<ellipse transform="matrix(0.6858 -0.7278 0.7278 0.6858 0.7011 52.5823)" fill="none" stroke="#FF0000" stroke-width="0.25" stroke-miterlimit="10" cx="61.245" cy="25.479" rx="1.991" ry="1.677"/>
	
		<ellipse transform="matrix(0.6858 -0.7278 0.7278 0.6858 3.8726 47.6781)" fill="none" stroke="#FF0000" stroke-width="0.25" stroke-miterlimit="10" cx="57.151" cy="19.354" rx="1.991" ry="1.677"/>
	
		<ellipse transform="matrix(0.696 0.718 -0.718 0.696 36.4313 -23.014)" fill="none" stroke="#FF0000" stroke-width="0.25" stroke-miterlimit="10" cx="45.397" cy="31.521" rx="23.219" ry="27.371"/>
	
		<ellipse transform="matrix(0.9979 -0.0643 0.0643 0.9979 -4.8618 2.1735)" fill="none" stroke="#FF0000" stroke-width="0.25" stroke-miterlimit="10" cx="31.323" cy="76.59" rx="11.007" ry="7.25"/>
	
		<ellipse transform="matrix(0.9882 -0.1533 0.1533 0.9882 -10.4617 4.0826)" fill="none" stroke="#FF0000" stroke-width="0.25" stroke-miterlimit="10" cx="21.244" cy="69.884" rx="1.898" ry="1.366"/>
	
		<ellipse transform="matrix(0.999 -0.0458 0.0458 0.999 -3.3119 2.1501)" fill="none" stroke="#FF0000" stroke-width="0.25" stroke-miterlimit="10" cx="45.278" cy="73.369" rx="1.898" ry="1.366"/>
	
		<ellipse transform="matrix(0.9989 -0.0459 0.0459 0.9989 -3.9348 1.3483)" fill="none" stroke="#FF0000" stroke-width="0.25" stroke-miterlimit="10" cx="27.376" cy="86.311" rx="2.19" ry="1.395"/>
	
		<ellipse transform="matrix(0.9995 -0.0318 0.0318 0.9995 -2.4527 1.0333)" fill="none" stroke="#FF0000" stroke-width="0.25" stroke-miterlimit="10" cx="31.247" cy="77.594" rx="24.511" ry="16.474"/>
	
		<ellipse transform="matrix(0.9907 0.1359 -0.1359 0.9907 9.9552 -10.9752)" fill="none" stroke="#FF0000" stroke-width="0.25" stroke-miterlimit="10" cx="85.352" cy="67.417" rx="17.262" ry="10.911"/>
	
		<ellipse transform="matrix(0.9949 0.1012 -0.1012 0.9949 5.9032 -7.243)" fill="none" stroke="#FF0000" stroke-width="0.25" stroke-miterlimit="10" cx="74.361" cy="54.579" rx="2.235" ry="1.307"/>
	
		<ellipse transform="matrix(0.9949 0.1011 -0.1011 0.9949 6.2758 -6.4188)" fill="none" stroke="#FF0000" stroke-width="0.25" stroke-miterlimit="10" cx="66.445" cy="58.688" rx="2.318" ry="1.381"/>
	
		<ellipse transform="matrix(0.9889 0.1489 -0.1489 0.9889 11.1463 -11.9548)" fill="none" stroke="#FF0000" stroke-width="0.25" stroke-miterlimit="10" cx="85.42" cy="68.47" rx="28.388" ry="17.931"/>
	
		<ellipse transform="matrix(0.9966 0.0818 -0.0818 0.9966 6.7049 -5.7915)" fill="none" stroke="#FF0000" stroke-width="0.25" stroke-miterlimit="10" cx="74.003" cy="78.899" rx="2.572" ry="1.751"/>
	
		<ellipse transform="matrix(0.9946 0.1042 -0.1042 0.9946 9.0058 -8.5024)" fill="none" stroke="#FF0000" stroke-width="0.25" stroke-miterlimit="10" cx="85.853" cy="81.916" rx="2.525" ry="1.659"/>
	
		<ellipse transform="matrix(0.9761 0.2173 -0.2173 0.9761 17.3973 -21.7535)" fill="none" stroke="#FF0000" stroke-width="0.25" stroke-miterlimit="10" cx="107.628" cy="68.242" rx="2.185" ry="1.344"/>
	
		<ellipse transform="matrix(0.9962 0.0874 -0.0874 0.9962 5.75 -8.8311)" fill="none" stroke="#FF0000" stroke-width="0.25" stroke-miterlimit="10" cx="103.759" cy="61.271" rx="2.476" ry="1.27"/>
</g>
</svg>
