<?xml version="1.0" encoding="utf-8"?>
<!-- Generator: Adobe Illustrator 16.0.0, SVG Export Plug-In . SVG Version: 6.00 Build 0)  -->
<!DOCTYPE svg PUBLIC "-//W3C//DTD SVG 1.1 Tiny//EN" "http://www.w3.org/Graphics/SVG/1.1/DTD/svg11-tiny.dtd">
<svg version="1.1" baseProfile="tiny" id="图层_1"
	 xmlns="http://www.w3.org/2000/svg" xmlns:xlink="http://www.w3.org/1999/xlink" x="0px" y="0px" width="533.521px"
	 height="607.426px" viewBox="0 0 533.521 607.426" xml:space="preserve">
<g id="图层_1_1_">
	<image width="527" height="600" xlink:href="../x/027.jpg"  transform="matrix(1.0124 0 0 1.0124 -2.441406e-004 2.441406e-004)">
	</image>
</g>
<g id="图层_2">
	
		<ellipse transform="matrix(0.2982 -0.9545 0.9545 0.2982 -79.9549 527.8314)" fill="none" stroke="#FF0000" stroke-width="0.25" stroke-miterlimit="10" cx="318.969" cy="318.288" rx="131.598" ry="102.681"/>
	
		<ellipse fill="none" stroke="#FF0000" stroke-width="0.25" stroke-miterlimit="10" cx="275.125" cy="106.75" rx="26.625" ry="32.75"/>
	
		<ellipse transform="matrix(0.1721 -0.9851 0.9851 0.1721 -151.0256 351.7356)" fill="none" stroke="#FF0000" stroke-width="0.25" stroke-miterlimit="10" cx="133.741" cy="265.716" rx="33.468" ry="28.319"/>
	
		<ellipse transform="matrix(0.2673 -0.9636 0.9636 0.2673 -330.7205 500.476)" fill="none" stroke="#FF0000" stroke-width="0.25" stroke-miterlimit="10" cx="163.739" cy="467.711" rx="34.151" ry="29.006"/>
	
		<ellipse transform="matrix(0.2673 -0.9636 0.9636 0.2673 -250.4587 685.0353)" fill="none" stroke="#FF0000" stroke-width="0.25" stroke-miterlimit="10" cx="325.236" cy="507.214" rx="34.152" ry="29.006"/>
	
		<ellipse transform="matrix(0.2673 -0.9636 0.9636 0.2673 -11.3032 696.5764)" fill="none" stroke="#FF0000" stroke-width="0.25" stroke-miterlimit="10" cx="452.403" cy="355.721" rx="34.152" ry="29.006"/>
	
		<ellipse transform="matrix(0.2673 -0.9636 0.9636 0.2673 158.6652 532.1196)" fill="none" stroke="#FF0000" stroke-width="0.25" stroke-miterlimit="10" cx="429.243" cy="161.725" rx="34.152" ry="29.006"/>
	<ellipse fill="none" stroke="#FF0000" stroke-width="0.25" stroke-miterlimit="10" cx="381" cy="48.75" rx="13" ry="15.25"/>
	
		<ellipse transform="matrix(0.2161 -0.9764 0.9764 0.2161 4.1594 246.9877)" fill="none" stroke="#FF0000" stroke-width="0.25" stroke-miterlimit="10" cx="155.893" cy="120.904" rx="17.277" ry="14.168"/>
	
		<ellipse transform="matrix(0.2161 -0.9764 0.9764 0.2161 -328.1634 381.1904)" fill="none" stroke="#FF0000" stroke-width="0.25" stroke-miterlimit="10" cx="73.312" cy="394.966" rx="17.278" ry="14.441"/>
	
		<ellipse transform="matrix(0.3272 -0.945 0.945 0.3272 -394.7716 598.1065)" fill="none" stroke="#FF0000" stroke-width="0.25" stroke-miterlimit="10" cx="222.639" cy="576.285" rx="16.438" ry="13.157"/>
	
		<ellipse transform="matrix(0.3272 -0.945 0.945 0.3272 -168.8895 739.8505)" fill="none" stroke="#FF0000" stroke-width="0.25" stroke-miterlimit="10" cx="435.127" cy="488.531" rx="16.437" ry="13.157"/>
	
		<ellipse transform="matrix(0.3129 -0.9498 0.9498 0.3129 -93.9357 484.3284)" fill="none" stroke="#FF0000" stroke-width="0.25" stroke-miterlimit="10" cx="287.777" cy="307.088" rx="301.519" ry="237.505"/>
	
		<ellipse transform="matrix(0.2928 -0.9562 0.9562 0.2928 -89.0919 498.263)" fill="none" stroke="#FF0000" stroke-miterlimit="10" cx="292.291" cy="309.36" rx="257.14" ry="202.288"/>
</g>
<ellipse fill="none" stroke="#FF4200" stroke-miterlimit="10" cx="513.261" cy="235.838" rx="11" ry="15.875"/>
</svg>
