<?xml version="1.0" encoding="utf-8"?>
<!-- Generator: Adobe Illustrator 16.0.0, SVG Export Plug-In . SVG Version: 6.00 Build 0)  -->
<!DOCTYPE svg PUBLIC "-//W3C//DTD SVG 1.1 Tiny//EN" "http://www.w3.org/Graphics/SVG/1.1/DTD/svg11-tiny.dtd">
<svg version="1.1" baseProfile="tiny" xmlns="http://www.w3.org/2000/svg" xmlns:xlink="http://www.w3.org/1999/xlink" x="0px"
	 y="0px" width="499px" height="312px" viewBox="0 0 499 312" xml:space="preserve">
<g id="图层_1">
	<image width="499" height="312" xlink:href="../x/028.jpg" >
	</image>
</g>
<g id="图层_2">
	
		<ellipse fill="none" stroke="#FF0000" stroke-width="0.25" stroke-miterlimit="10" cx="404.75" cy="195.75" rx="55.25" ry="53.75"/>
	<ellipse fill="none" stroke="#FF0000" stroke-width="0.25" stroke-miterlimit="10" cx="403.5" cy="84.25" rx="47.5" ry="45.75"/>
	<ellipse fill="none" stroke="#FF0000" stroke-width="0.25" stroke-miterlimit="10" cx="287.75" cy="87.25" rx="41.25" ry="40.25"/>
	<ellipse fill="none" stroke="#FF0000" stroke-width="0.25" stroke-miterlimit="10" cx="291" cy="199.25" rx="36.5" ry="35.75"/>
	<ellipse fill="none" stroke="#FF0000" stroke-width="0.25" stroke-miterlimit="10" cx="79" cy="218.166" rx="30.5" ry="28.834"/>
	
		<ellipse transform="matrix(0.8596 -0.511 0.511 0.8596 -60.3707 60.2159)" fill="none" stroke="#FF0000" stroke-width="0.25" stroke-miterlimit="10" cx="79.389" cy="139.964" rx="26.337" ry="24.917"/>
	
		<ellipse transform="matrix(0.8596 -0.511 0.511 0.8596 -26.7567 49.9639)" fill="none" stroke="#FF0000" stroke-width="0.25" stroke-miterlimit="10" cx="77.538" cy="73.67" rx="22.756" ry="22.45"/>
	
		<ellipse transform="matrix(0.8596 -0.511 0.511 0.8596 -14.5335 86.7657)" fill="none" stroke="#FF0000" stroke-width="0.25" stroke-miterlimit="10" cx="150.622" cy="69.83" rx="19.592" ry="18.881"/>
	
		<ellipse transform="matrix(0.9922 0.1245 -0.1245 0.9922 17.2432 -17.816)" fill="none" stroke="#FF0000" stroke-width="0.25" stroke-miterlimit="10" cx="151.216" cy="129.102" rx="15.831" ry="15.229"/>
	
		<ellipse transform="matrix(0.8596 -0.511 0.511 0.8596 -73.9745 103.1637)" fill="none" stroke="#FF0000" stroke-width="0.25" stroke-miterlimit="10" cx="150.736" cy="186.191" rx="12.322" ry="11.423"/>
	
		<ellipse transform="matrix(0.8596 -0.511 0.511 0.8596 -97.867 110.4565)" fill="none" stroke="#FF0000" stroke-width="0.25" stroke-miterlimit="10" cx="152.063" cy="233.316" rx="9.024" ry="9"/>
	<ellipse fill="none" stroke="#FF0000" stroke-width="0.25" stroke-miterlimit="10" cx="219.125" cy="231" rx="15.125" ry="14.75"/>
	
		<ellipse fill="none" stroke="#FF0000" stroke-width="0.25" stroke-miterlimit="10" cx="217.417" cy="112.5" rx="20.75" ry="18.833"/>
</g>
</svg>
