<?xml version="1.0" encoding="utf-8"?>
<!-- Generator: Adobe Illustrator 16.0.0, SVG Export Plug-In . SVG Version: 6.00 Build 0)  -->
<!DOCTYPE svg PUBLIC "-//W3C//DTD SVG 1.1 Tiny//EN" "http://www.w3.org/Graphics/SVG/1.1/DTD/svg11-tiny.dtd">
<svg version="1.1" baseProfile="tiny" xmlns="http://www.w3.org/2000/svg" xmlns:xlink="http://www.w3.org/1999/xlink" x="0px"
	 y="0px" width="955px" height="631px" viewBox="0 0 955 631" xml:space="preserve">
<g id="图层_1">
	<image width="955" height="631" xlink:href="../x/029.jpg" >
	</image>
</g>
<g id="图层_2">
	
		<ellipse transform="matrix(0.7089 0.7053 -0.7053 0.7089 169.9881 -40.7227)" fill="none" stroke="#FF0000" stroke-width="0.25" stroke-miterlimit="10" cx="134.324" cy="185.558" rx="33.387" ry="44.842"/>
	
		<ellipse transform="matrix(0.6808 0.7325 -0.7325 0.6808 177.3936 -37.4124)" fill="none" stroke="#FF0000" stroke-width="0.25" stroke-miterlimit="10" cx="131.619" cy="184.813" rx="46.706" ry="63.566"/>
	
		<ellipse transform="matrix(0.8839 0.4677 -0.4677 0.8839 131.8631 -92.3817)" fill="none" stroke="#FF0000" stroke-width="0.25" stroke-miterlimit="10" cx="251.991" cy="219.386" rx="14.333" ry="17.361"/>
	
		<ellipse transform="matrix(0.8839 0.4677 -0.4677 0.8839 160.9188 -77.9474)" fill="none" stroke="#FF0000" stroke-width="0.25" stroke-miterlimit="10" cx="237.451" cy="285.129" rx="13.424" ry="16.625"/>
	
		<ellipse transform="matrix(0.977 0.2131 -0.2131 0.977 92.2222 -35.6735)" fill="none" stroke="#FF0000" stroke-width="0.25" stroke-miterlimit="10" cx="211.601" cy="409.984" rx="14.764" ry="17.967"/>
	
		<ellipse transform="matrix(0.9956 0.0938 -0.0938 0.9956 40.4218 -29.8467)" fill="none" stroke="#FF0000" stroke-width="0.25" stroke-miterlimit="10" cx="337.828" cy="415.23" rx="13.821" ry="16.314"/>
	
		<ellipse transform="matrix(0.9956 0.0938 -0.0938 0.9956 41.5227 -42.1122)" fill="none" stroke="#FF0000" stroke-width="0.25" stroke-miterlimit="10" cx="468.956" cy="420.865" rx="16.796" ry="19.528"/>
	
		<ellipse transform="matrix(0.9956 0.0938 -0.0938 0.9956 42.9285 -54.6361)" fill="none" stroke="#FF0000" stroke-width="0.25" stroke-miterlimit="10" cx="602.628" cy="429.311" rx="13.508" ry="16.245"/>
	
		<ellipse transform="matrix(0.9939 -0.1103 0.1103 0.9939 -43.3288 84.2469)" fill="none" stroke="#FF0000" stroke-width="0.25" stroke-miterlimit="10" cx="739.857" cy="433.78" rx="16.544" ry="20.088"/>
	
		<ellipse transform="matrix(0.9822 -0.1878 0.1878 0.9822 -31.1334 140.8839)" fill="none" stroke="#FF0000" stroke-width="0.25" stroke-miterlimit="10" cx="727.822" cy="234.72" rx="16.881" ry="18.516"/>
	
		<ellipse transform="matrix(0.9749 -0.2225 0.2225 0.9749 -19.6082 165.0805)" fill="none" stroke="#FF0000" stroke-width="0.25" stroke-miterlimit="10" cx="722.733" cy="169.551" rx="14.779" ry="15.455"/>
	
		<ellipse transform="matrix(0.9749 -0.2225 0.2225 0.9749 1.5373 161.1841)" fill="none" stroke="#FF0000" stroke-width="0.25" stroke-miterlimit="10" cx="716.076" cy="73.77" rx="13.495" ry="13.556"/>
	
		<ellipse transform="matrix(0.9749 -0.2225 0.2225 0.9749 -0.8649 136.3035)" fill="none" stroke="#FF0000" stroke-width="0.25" stroke-miterlimit="10" cx="604.459" cy="71.99" rx="11.337" ry="11.734"/>
	
		<ellipse transform="matrix(0.9749 -0.2225 0.2225 0.9749 -2.8011 112.285)" fill="none" stroke="#FF0000" stroke-width="0.25" stroke-miterlimit="10" cx="496.895" cy="68.573" rx="13.951" ry="13.36"/>
	
		<ellipse transform="matrix(0.7247 0.6891 -0.6891 0.7247 229.0889 -300.8275)" fill="none" stroke="#FF0000" stroke-width="0.25" stroke-miterlimit="10" cx="491.028" cy="136.289" rx="17.773" ry="18.327"/>
	
		<ellipse transform="matrix(0.7247 0.6891 -0.6891 0.7247 254.0964 -289.022)" fill="none" stroke="#FF0000" stroke-width="0.25" stroke-miterlimit="10" cx="488.759" cy="173.491" rx="12.422" ry="12.818"/>
	
		<ellipse transform="matrix(0.7247 0.6891 -0.6891 0.7247 252.1771 -316.1462)" fill="none" stroke="#FF0000" stroke-width="0.25" stroke-miterlimit="10" cx="521.743" cy="157.525" rx="11.02" ry="12.002"/>
	
		<ellipse transform="matrix(0.7247 0.6891 -0.6891 0.7247 326.5735 -251.6613)" fill="none" stroke="#FF0000" stroke-miterlimit="10" cx="478.245" cy="282.881" rx="13.698" ry="14.502"/>
	
		<ellipse transform="matrix(0.9998 0.0185 -0.0185 0.9998 5.6832 -9.421)" fill="none" stroke="#FF0000" stroke-miterlimit="10" cx="512.491" cy="302.735" rx="10.25" ry="12.127"/>
	
		<ellipse transform="matrix(0.7366 -0.6764 0.6764 0.7366 82.0386 631.0089)" fill="none" stroke="#FF0000" stroke-miterlimit="10" cx="851.08" cy="210.187" rx="37.202" ry="42.655"/>
	
		<ellipse transform="matrix(0.6416 -0.767 0.767 0.6416 143.8075 728.2792)" fill="none" stroke="#FF0000" stroke-miterlimit="10" cx="851.276" cy="210.243" rx="46.682" ry="55.873"/>
	<ellipse fill="none" stroke="#FF0000" stroke-miterlimit="10" cx="552.5" cy="246.375" rx="8.75" ry="9.375"/>
	
		<ellipse transform="matrix(0.9766 0.2152 -0.2152 0.9766 20.9881 -59.6161)" fill="none" stroke="#FF0000" stroke-miterlimit="10" cx="284.292" cy="66.583" rx="12.875" ry="13.5"/>
	
		<ellipse transform="matrix(0.9766 0.2152 -0.2152 0.9766 23.7232 -81.9245)" fill="none" stroke="#FF0000" stroke-miterlimit="10" cx="388.122" cy="67.993" rx="11.941" ry="12.347"/>
	
		<ellipse transform="matrix(0.5967 -0.8024 0.8024 0.5967 43.6097 314.2194)" fill="none" stroke="#FF0000" stroke-width="0.25" stroke-miterlimit="10" cx="334.432" cy="113.721" rx="15.821" ry="14.275"/>
	
		<ellipse transform="matrix(0.7352 -0.6778 0.6778 0.7352 -62.0516 271.847)" fill="none" stroke="#FF0000" stroke-width="0.25" stroke-miterlimit="10" cx="316.946" cy="215.351" rx="18.205" ry="15.115"/>
	
		<ellipse transform="matrix(0.962 -0.2732 0.2732 0.962 -37.0532 182.6621)" fill="none" stroke="#FF0000" stroke-width="0.25" stroke-miterlimit="10" cx="637.322" cy="224.371" rx="28.572" ry="29.807"/>
	
		<ellipse transform="matrix(0.9417 -0.3366 0.3366 0.9417 -2.8091 221.0119)" fill="none" stroke="#FF0000" stroke-width="0.25" stroke-miterlimit="10" cx="636.127" cy="118.609" rx="26.308" ry="26.188"/>
	
		<ellipse fill="none" stroke="#FF0000" stroke-width="0.25" stroke-miterlimit="10" cx="512.583" cy="227.167" rx="24.75" ry="25.667"/>
	
		<ellipse fill="none" stroke="#FF0000" stroke-width="0.25" stroke-miterlimit="10" cx="591" cy="230.688" rx="19.125" ry="19.688"/>
	
		<ellipse fill="none" stroke="#FF0000" stroke-width="0.25" stroke-miterlimit="10" cx="456.188" cy="226.438" rx="24.688" ry="24.063"/>
	
		<ellipse transform="matrix(0.9096 0.4155 -0.4155 0.9096 127.7611 -137.7936)" fill="none" stroke="#FF0000" stroke-width="0.25" stroke-miterlimit="10" cx="380.546" cy="224.712" rx="17.167" ry="19.275"/>
	
		<ellipse transform="matrix(0.935 0.3546 -0.3546 0.935 147.5494 -147.513)" fill="none" stroke="#FF0000" stroke-width="0.25" stroke-miterlimit="10" cx="476.243" cy="328.812" rx="19.25" ry="21.875"/>
</g>
</svg>
