<?xml version="1.0" encoding="iso-8859-1"?>
<!-- Generator: Adobe Illustrator 16.0.0, SVG Export Plug-In . SVG Version: 6.00 Build 0)  -->
<!DOCTYPE svg PUBLIC "-//W3C//DTD SVG 1.1//EN" "http://www.w3.org/Graphics/SVG/1.1/DTD/svg11.dtd">
<svg version="1.1" xmlns="http://www.w3.org/2000/svg" xmlns:xlink="http://www.w3.org/1999/xlink" x="0px" y="0px" width="240px"
	 height="144.96px" viewBox="0 0 240 144.96" style="enable-background:new 0 0 240 144.96;" xml:space="preserve">
<g id="&#x56FE;&#x5C42;_1">
	<image style="overflow:visible;" width="1000" height="604" xlink:href="../x/030.jpg"  transform="matrix(0.24 0 0 0.24 0 0)">
	</image>
</g>
<g id="&#x56FE;&#x5C42;_2">
	
		<ellipse transform="matrix(0.9708 -0.2398 0.2398 0.9708 -13.8973 12.6413)" style="fill:none;stroke:#FF4200;stroke-width:0.25;stroke-miterlimit:10;" cx="45.006" cy="63.437" rx="20.75" ry="17.806"/>
	
		<ellipse transform="matrix(0.9983 -0.0581 0.0581 0.9983 -3.43 5.572)" style="fill:none;stroke:#FF4200;stroke-width:0.25;stroke-miterlimit:10;" cx="94.102" cy="61.77" rx="22.476" ry="19.764"/>
	
		<ellipse transform="matrix(0.9984 -0.0572 0.0572 0.9984 -5.7662 1.9525)" style="fill:none;stroke:#FF4200;stroke-width:0.25;stroke-miterlimit:10;" cx="31.25" cy="101.781" rx="11.875" ry="10.656"/>
	
		<ellipse transform="matrix(0.9817 -0.1904 0.1904 0.9817 -17.2883 15.1149)" style="fill:none;stroke:#FF4200;stroke-width:0.25;stroke-miterlimit:10;" cx="70.017" cy="97.53" rx="18.955" ry="16.693"/>
	
		<ellipse transform="matrix(0.9946 -0.1038 0.1038 0.9946 -9.6521 12.0951)" style="fill:none;stroke:#FF4200;stroke-width:0.25;stroke-miterlimit:10;" cx="111.348" cy="98.757" rx="15.5" ry="14.072"/>
	
		<ellipse style="fill:none;stroke:#FF4200;stroke-width:0.25;stroke-miterlimit:10;" cx="46.375" cy="21.594" rx="8.563" ry="6.969"/>
	
		<ellipse style="fill:none;stroke:#FF4200;stroke-width:0.25;stroke-miterlimit:10;" cx="97.188" cy="20.344" rx="8.563" ry="6.969"/>
	
		<ellipse transform="matrix(0.9993 0.037 -0.037 0.9993 0.8854 -5.8873)" style="fill:none;stroke:#FF4200;stroke-width:0.25;stroke-miterlimit:10;" cx="159.656" cy="21" rx="18.031" ry="14.249"/>
	
		<ellipse transform="matrix(0.9873 0.1587 -0.1587 0.9873 6.2346 -33.3908)" style="fill:none;stroke:#FF4200;stroke-width:0.25;stroke-miterlimit:10;" cx="212.198" cy="22.343" rx="19.846" ry="16.46"/>
	
		<ellipse transform="matrix(0.9705 0.2413 -0.2413 0.9705 21.5287 -51.9074)" style="fill:none;stroke:#FF4200;stroke-width:0.25;stroke-miterlimit:10;" cx="222.719" cy="61.955" rx="13.376" ry="10.972"/>
	
		<ellipse transform="matrix(0.9937 0.1121 -0.1121 0.9937 8.1681 -20.1512)" style="fill:none;stroke:#FF4200;stroke-width:0.25;stroke-miterlimit:10;" cx="183.29" cy="62.564" rx="16.74" ry="14.379"/>
	
		<ellipse transform="matrix(0.9961 0.0888 -0.0888 0.9961 6.1697 -13.2455)" style="fill:none;stroke:#FF4200;stroke-width:0.25;stroke-miterlimit:10;" cx="151.988" cy="62.735" rx="10.021" ry="8.515"/>
</g>
</svg>
