<?xml version="1.0" encoding="utf-8"?>
<!-- Generator: Adobe Illustrator 16.0.0, SVG Export Plug-In . SVG Version: 6.00 Build 0)  -->
<!DOCTYPE svg PUBLIC "-//W3C//DTD SVG 1.1 Tiny//EN" "http://www.w3.org/Graphics/SVG/1.1/DTD/svg11-tiny.dtd">
<svg version="1.1" baseProfile="tiny" xmlns="http://www.w3.org/2000/svg" xmlns:xlink="http://www.w3.org/1999/xlink" x="0px"
	 y="0px" width="268px" height="252px" viewBox="0 0 268 252" xml:space="preserve">
<g id="图层_1">
	<image width="268" height="252" xlink:href="../x/031.jpg" >
	</image>
</g>
<g id="图层_2">
	
		<ellipse transform="matrix(0.9967 0.0806 -0.0806 0.9967 12.5964 -13.9981)" fill="none" stroke="#FF4200" stroke-width="0.25" stroke-miterlimit="10" cx="179.75" cy="149.084" rx="24.083" ry="15.583"/>
	
		<ellipse transform="matrix(1 -0.0016 0.0016 1 -0.2274 0.1907)" fill="none" stroke="#FF4200" stroke-width="0.25" stroke-miterlimit="10" cx="122.265" cy="146.026" rx="21.931" ry="13.857"/>
	
		<ellipse transform="matrix(0.9985 -0.0543 0.0543 0.9985 -6.3514 5.3462)" fill="none" stroke="#FF4200" stroke-width="0.25" stroke-miterlimit="10" cx="95.293" cy="119.656" rx="17.833" ry="11.218"/>
	
		<ellipse transform="matrix(0.9985 -0.0543 0.0543 0.9985 -5.0577 5.8671)" fill="none" stroke="#FF4200" stroke-width="0.25" stroke-miterlimit="10" cx="105.495" cy="96.056" rx="14.354" ry="8.783"/>
	
		<ellipse transform="matrix(0.9985 -0.0543 0.0543 0.9985 -4.2739 7.2633)" fill="none" stroke="#FF4200" stroke-width="0.25" stroke-miterlimit="10" cx="131.603" cy="82.328" rx="11.854" ry="6.91"/>
	<ellipse fill="none" stroke="#FF4200" stroke-width="0.25" stroke-miterlimit="10" cx="220.375" cy="94.203" rx="3" ry="1.766"/>
	<ellipse fill="none" stroke="#FF4200" stroke-width="0.25" stroke-miterlimit="10" cx="206.813" cy="86.5" rx="5.063" ry="3.25"/>
	
		<ellipse fill="none" stroke="#FF4200" stroke-width="0.25" stroke-miterlimit="10" cx="186.459" cy="80.688" rx="7.042" ry="4.229"/>
	
		<ellipse fill="none" stroke="#FF4200" stroke-width="0.25" stroke-miterlimit="10" cx="75.063" cy="161.781" rx="4.688" ry="3.156"/>
	
		<ellipse fill="none" stroke="#FF4200" stroke-width="0.25" stroke-miterlimit="10" cx="58.188" cy="146.656" rx="9.938" ry="6.094"/>
	
		<ellipse fill="none" stroke="#FF4200" stroke-width="0.25" stroke-miterlimit="10" cx="39.958" cy="128.375" rx="14.292" ry="9.125"/>
	
		<ellipse transform="matrix(0.9939 -0.1101 0.1101 0.9939 -10.9263 4.6717)" fill="none" stroke="#FF4200" stroke-width="0.25" stroke-miterlimit="10" cx="36.852" cy="101.303" rx="20.322" ry="10.794"/>
	
		<ellipse transform="matrix(0.9939 -0.1101 0.1101 0.9939 -7.7563 6.4123)" fill="none" stroke="#FF4200" stroke-width="0.25" stroke-miterlimit="10" cx="54.198" cy="73.455" rx="21.461" ry="11.793"/>
	
		<ellipse transform="matrix(0.995 -0.1003 0.1003 0.995 -5.2441 9.4927)" fill="none" stroke="#FF4200" stroke-width="0.25" stroke-miterlimit="10" cx="91.77" cy="56.892" rx="16.109" ry="8.516"/>
	
		<ellipse transform="matrix(0.9991 -0.0418 0.0418 0.9991 -1.9075 5.523)" fill="none" stroke="#FF4200" stroke-width="0.25" stroke-miterlimit="10" cx="131.201" cy="48.405" rx="13.36" ry="7.505"/>
	
		<ellipse transform="matrix(0.9991 -0.0418 0.0418 0.9991 -1.8959 6.9086)" fill="none" stroke="#FF4200" stroke-width="0.25" stroke-miterlimit="10" cx="164.255" cy="48.791" rx="9.929" ry="5.166"/>
	
		<ellipse transform="matrix(0.9998 0.0216 -0.0216 0.9998 2.6628 -3.3599)" fill="none" stroke="#FF4200" stroke-width="0.25" stroke-miterlimit="10" cx="157.063" cy="121.739" rx="91.6" ry="55.25"/>
	
		<ellipse fill="none" stroke="#FF4200" stroke-width="0.25" stroke-miterlimit="10" cx="180.875" cy="116.5" rx="5.625" ry="2.875"/>
	
		<ellipse fill="none" stroke="#FF4200" stroke-width="0.25" stroke-miterlimit="10" cx="135.625" cy="93.125" rx="5.625" ry="2.875"/>
	<ellipse fill="none" stroke="#FF4200" stroke-width="0.25" stroke-miterlimit="10" cx="132.5" cy="140.5" rx="122.5" ry="77"/>
	
		<ellipse transform="matrix(0.9959 0.0908 -0.0908 0.9959 11.5227 -19.0704)" fill="none" stroke="#FF4200" stroke-width="0.25" stroke-miterlimit="10" cx="215.311" cy="117.079" rx="24.92" ry="15.023"/>
</g>
</svg>
