<?xml version="1.0" encoding="iso-8859-1"?>
<!-- Generator: Adobe Illustrator 16.0.0, SVG Export Plug-In . SVG Version: 6.00 Build 0)  -->
<!DOCTYPE svg PUBLIC "-//W3C//DTD SVG 1.1//EN" "http://www.w3.org/Graphics/SVG/1.1/DTD/svg11.dtd">
<svg version="1.1" xmlns="http://www.w3.org/2000/svg" xmlns:xlink="http://www.w3.org/1999/xlink" x="0px" y="0px" width="250px"
	 height="225px" viewBox="0 0 250 225" style="enable-background:new 0 0 250 225;" xml:space="preserve">
<g id="&#x56FE;&#x5C42;_1">
	<image style="overflow:visible;" width="250" height="225" xlink:href="../x/032.jpg" >
	</image>
</g>
<g id="&#x56FE;&#x5C42;_2">
	
		<ellipse transform="matrix(0.8919 -0.4522 0.4522 0.8919 -57.3604 28.5138)" style="fill:none;stroke:#FF0000;stroke-width:0.25;stroke-miterlimit:10;" cx="30.975" cy="134.264" rx="11.122" ry="9.788"/>
	
		<ellipse transform="matrix(0.9962 0.0874 -0.0874 0.9962 16.4781 -6.8999)" style="fill:none;stroke:#FF0000;stroke-width:0.25;stroke-miterlimit:10;" cx="86.999" cy="184.643" rx="10.839" ry="11.375"/>
	
		<ellipse transform="matrix(0.6652 -0.7467 0.7467 0.6652 -77.0502 188.0009)" style="fill:none;stroke:#FF0000;stroke-width:0.25;stroke-miterlimit:10;" cx="171.1" cy="179.913" rx="11.074" ry="12.034"/>
	
		<ellipse transform="matrix(0.4895 -0.872 0.872 0.4895 2.1416 251.9834)" style="fill:none;stroke:#FF0000;stroke-width:0.25;stroke-miterlimit:10;" cx="216.282" cy="124.163" rx="8.702" ry="10.618"/>
	
		<ellipse transform="matrix(0.3476 -0.9377 0.9377 0.3476 70.8497 230.2623)" style="fill:none;stroke:#FF0000;stroke-width:0.25;stroke-miterlimit:10;" cx="200.889" cy="64.219" rx="7.245" ry="8.666"/>
	
		<ellipse transform="matrix(0.1177 -0.993 0.993 0.1177 99.6635 175.7103)" style="fill:none;stroke:#FF0000;stroke-width:0.25;stroke-miterlimit:10;" cx="148.718" cy="31.766" rx="6.341" ry="8.199"/>
	
		<ellipse transform="matrix(-0.1627 -0.9867 0.9867 -0.1627 67.4833 125.2416)" style="fill:none;stroke:#FF0000;stroke-width:0.25;stroke-miterlimit:10;" cx="86.881" cy="33.988" rx="5.929" ry="8.198"/>
	
		<ellipse transform="matrix(-0.3874 -0.9219 0.9219 -0.3874 -11.7713 133.5154)" style="fill:none;stroke:#FF0000;stroke-width:0.25;stroke-miterlimit:10;" cx="38.475" cy="70.669" rx="7.163" ry="9.806"/>
	
		<ellipse transform="matrix(0.9983 0.0586 -0.0586 0.9983 6.2149 -6.9788)" style="fill:none;stroke:#FF0000;stroke-width:0.25;stroke-miterlimit:10;" cx="122.125" cy="102.5" rx="65.875" ry="55.25"/>
	<ellipse style="fill:none;stroke:#FF0000;stroke-width:0.25;stroke-miterlimit:10;" cx="121.667" cy="115" rx="114" ry="98.667"/>
</g>
</svg>
