<?xml version="1.0" encoding="utf-8"?>
<!-- Generator: Adobe Illustrator 16.0.0, SVG Export Plug-In . SVG Version: 6.00 Build 0)  -->
<!DOCTYPE svg PUBLIC "-//W3C//DTD SVG 1.1 Tiny//EN" "http://www.w3.org/Graphics/SVG/1.1/DTD/svg11-tiny.dtd">
<svg version="1.1" baseProfile="tiny" xmlns="http://www.w3.org/2000/svg" xmlns:xlink="http://www.w3.org/1999/xlink" x="0px"
	 y="0px" width="341.28px" height="272.88px" viewBox="0 0 341.28 272.88" xml:space="preserve">
<g id="图层_1">
	<image width="474" height="379" xlink:href="../x/033.jpg"  transform="matrix(0.72 0 0 0.72 0 0)">
	</image>
</g>
<g id="图层_2">
	
		<ellipse fill="none" stroke="#FF0000" stroke-width="0.25" stroke-miterlimit="10" cx="137.208" cy="215.834" rx="14.708" ry="11.75"/>
	
		<ellipse transform="matrix(0.9988 -0.0489 0.0489 0.9988 -8.0917 2.5703)" fill="none" stroke="#FF0000" stroke-width="0.25" stroke-miterlimit="10" cx="48.5" cy="166.708" rx="14.083" ry="10.792"/>
	
		<ellipse transform="matrix(0.995 -0.0996 0.0996 0.995 -8.8627 4.5625)" fill="none" stroke="#FF0000" stroke-width="0.25" stroke-miterlimit="10" cx="41.284" cy="91.082" rx="13.029" ry="9.24"/>
	
		<ellipse transform="matrix(0.995 -0.0996 0.0996 0.995 -3.051 10.6298)" fill="none" stroke="#FF0000" stroke-width="0.25" stroke-miterlimit="10" cx="104.987" cy="35.887" rx="11.899" ry="8.319"/>
	
		<ellipse transform="matrix(0.9997 0.0227 -0.0227 0.9997 0.6196 -4.5014)" fill="none" stroke="#FF0000" stroke-width="0.25" stroke-miterlimit="10" cx="198.472" cy="25.026" rx="11.899" ry="7.936"/>
	
		<ellipse transform="matrix(0.9999 -0.0115 0.0115 0.9999 -1.3248 1.9611)" fill="none" stroke="#FF0000" stroke-width="0.25" stroke-miterlimit="10" cx="170.333" cy="116.5" rx="113" ry="80.834"/>
	
		<ellipse transform="matrix(0.9997 -0.0234 0.0234 0.9997 -2.892 4.027)" fill="none" stroke="#FF0000" stroke-width="0.25" stroke-miterlimit="10" cx="170.5" cy="125.5" rx="164.5" ry="117"/>
	
		<ellipse transform="matrix(0.998 0.0634 -0.0634 0.998 4.398 -17.6148)" fill="none" stroke="#FF0000" stroke-width="0.25" stroke-miterlimit="10" cx="279.792" cy="60.5" rx="12.209" ry="8.166"/>
	
		<ellipse transform="matrix(0.9797 0.2002 -0.2002 0.9797 32.3907 -58.7221)" fill="none" stroke="#FF0000" stroke-width="0.25" stroke-miterlimit="10" cx="306.504" cy="130.771" rx="13.313" ry="9.648"/>
	
		<ellipse fill="none" stroke="#FF0000" stroke-width="0.25" stroke-miterlimit="10" cx="250.584" cy="199.417" rx="14.167" ry="11"/>
</g>
</svg>
