<?xml version="1.0" encoding="utf-8"?>
<!-- Generator: Adobe Illustrator 16.0.0, SVG Export Plug-In . SVG Version: 6.00 Build 0)  -->
<!DOCTYPE svg PUBLIC "-//W3C//DTD SVG 1.1 Tiny//EN" "http://www.w3.org/Graphics/SVG/1.1/DTD/svg11-tiny.dtd">
<svg version="1.1" baseProfile="tiny" xmlns="http://www.w3.org/2000/svg" xmlns:xlink="http://www.w3.org/1999/xlink" x="0px"
	 y="0px" width="500px" height="500px" viewBox="0 0 500 500" xml:space="preserve">
<g id="图层_1">
	<image width="500" height="500" xlink:href="../x/034.jpg" >
	</image>
</g>
<g id="图层_2">
	
		<ellipse transform="matrix(0.9998 -0.0185 0.0185 0.9998 -5.5254 4.6838)" fill="none" stroke="#E71F19" stroke-width="0.25" stroke-miterlimit="10" cx="249.76" cy="300.24" rx="130.269" ry="79.75"/>
	<ellipse fill="none" stroke="#E71F19" stroke-width="0.25" stroke-miterlimit="10" cx="229" cy="279.5" rx="17.5" ry="12.5"/>
	<ellipse fill="none" stroke="#E71F19" stroke-width="0.25" stroke-miterlimit="10" cx="172.5" cy="431" rx="17.5" ry="12"/>
	
		<ellipse transform="matrix(0.9979 -0.0653 0.0653 0.9979 -23.2525 4.0491)" fill="none" stroke="#E71F19" stroke-width="0.25" stroke-miterlimit="10" cx="50.321" cy="357.763" rx="16.078" ry="10.392"/>
	
		<ellipse transform="matrix(0.9961 -0.0884 0.0884 0.9961 -22.5447 5.9722)" fill="none" stroke="#E71F19" stroke-width="0.25" stroke-miterlimit="10" cx="56.151" cy="257.507" rx="15.2" ry="9.278"/>
	
		<ellipse transform="matrix(0.9961 -0.0884 0.0884 0.9961 -16.1731 15.3552)" fill="none" stroke="#E71F19" stroke-width="0.25" stroke-miterlimit="10" cx="165.262" cy="190.26" rx="14.225" ry="8.287"/>
	
		<ellipse transform="matrix(1 -0.0043 0.0043 1 -0.7914 1.3652)" fill="none" stroke="#E71F19" stroke-width="0.25" stroke-miterlimit="10" cx="314.014" cy="182.927" rx="14.225" ry="8.287"/>
	
		<ellipse transform="matrix(0.9996 0.0275 -0.0275 0.9996 6.7199 -11.82)" fill="none" stroke="#E71F19" stroke-width="0.25" stroke-miterlimit="10" cx="433.051" cy="238.38" rx="15.135" ry="8.932"/>
	
		<ellipse transform="matrix(0.9996 0.0275 -0.0275 0.9996 9.3952 -12.4413)" fill="none" stroke="#E71F19" stroke-width="0.25" stroke-miterlimit="10" cx="456.773" cy="335.167" rx="16.308" ry="10.187"/>
	
		<ellipse transform="matrix(0.9976 -0.0692 0.0692 0.9976 -3.0835 8.7395)" fill="none" stroke="#E71F19" stroke-width="0.25" stroke-miterlimit="10" cx="124.625" cy="48.884" rx="14.132" ry="8.265"/>
	
		<ellipse transform="matrix(0.9976 -0.0692 0.0692 0.9976 -8.9324 3.273)" fill="none" stroke="#E71F19" stroke-width="0.25" stroke-miterlimit="10" cx="42.784" cy="130.588" rx="14.962" ry="8.88"/>
	
		<ellipse transform="matrix(0.9993 -0.0367 0.0367 0.9993 -0.6292 9.821)" fill="none" stroke="#E71F19" stroke-width="0.25" stroke-miterlimit="10" cx="266.937" cy="22.031" rx="13.843" ry="8.38"/>
	
		<ellipse transform="matrix(0.9991 0.0425 -0.0425 0.9991 2.8285 -17.0148)" fill="none" stroke="#E71F19" stroke-width="0.25" stroke-miterlimit="10" cx="401.603" cy="58.019" rx="14.356" ry="8.654"/>
	
		<ellipse transform="matrix(0.9991 0.0425 -0.0425 0.9991 6.6147 -19.4647)" fill="none" stroke="#E71F19" stroke-width="0.25" stroke-miterlimit="10" cx="461.059" cy="145.826" rx="15.71" ry="9.528"/>
	
		<ellipse transform="matrix(0.9997 -0.0238 0.0238 0.9997 -3.3734 5.975)" fill="none" stroke="#E71F19" stroke-width="0.25" stroke-miterlimit="10" cx="249.663" cy="144.897" rx="140.127" ry="86.499"/>
	
		<ellipse transform="matrix(0.9992 -0.04 0.04 0.9992 -5.9157 10.1049)" fill="none" stroke="#E71F19" stroke-width="0.25" stroke-miterlimit="10" cx="249.614" cy="152.915" rx="125.483" ry="76.823"/>
	
		<ellipse transform="matrix(0.9996 -0.0265 0.0265 0.9996 -4.0308 6.6811)" fill="none" stroke="#E71F19" stroke-width="0.25" stroke-miterlimit="10" cx="250.226" cy="155.522" rx="244.259" ry="150.012"/>
	
		<ellipse transform="matrix(0.9996 -0.0265 0.0265 0.9996 -8.184 6.7429)" fill="none" stroke="#E71F19" stroke-width="0.25" stroke-miterlimit="10" cx="250.478" cy="312.345" rx="247.027" ry="150.762"/>
	
		<ellipse transform="matrix(0.9985 0.0548 -0.0548 0.9985 23.6068 -18.584)" fill="none" stroke="#E71F19" stroke-width="0.25" stroke-miterlimit="10" cx="350.616" cy="421.091" rx="17.149" ry="11.269"/>
</g>
</svg>
