<?xml version="1.0" encoding="utf-8"?>
<!-- Generator: Adobe Illustrator 16.0.0, SVG Export Plug-In . SVG Version: 6.00 Build 0)  -->
<!DOCTYPE svg PUBLIC "-//W3C//DTD SVG 1.1 Tiny//EN" "http://www.w3.org/Graphics/SVG/1.1/DTD/svg11-tiny.dtd">
<svg version="1.1" baseProfile="tiny" xmlns="http://www.w3.org/2000/svg" xmlns:xlink="http://www.w3.org/1999/xlink" x="0px"
	 y="0px" width="400px" height="400px" viewBox="0 0 400 400" xml:space="preserve">
<g id="图层_1">
	<image width="400" height="400" xlink:href="../x/035.jpg" >
	</image>
</g>
<g id="图层_2">
	
		<ellipse transform="matrix(0.9697 0.2445 -0.2445 0.9697 55.6712 -38.6083)" fill="none" stroke="#FF0000" stroke-width="0.25" stroke-miterlimit="10" cx="183.355" cy="204.947" rx="8.857" ry="13.196"/>
	
		<ellipse transform="matrix(0.9522 0.3056 -0.3056 0.9522 93.2337 -42.8362)" fill="none" stroke="#FF0000" stroke-width="0.25" stroke-miterlimit="10" cx="183.45" cy="276.402" rx="8.301" ry="13.196"/>
	
		<ellipse transform="matrix(0.9361 0.3518 -0.3518 0.9361 129.4657 -49.9884)" fill="none" stroke="#FF0000" stroke-width="0.25" stroke-miterlimit="10" cx="202.286" cy="331.256" rx="7.352" ry="12.835"/>
	
		<ellipse transform="matrix(0.9271 0.3749 -0.3749 0.9271 152.3905 -61.6759)" fill="none" stroke="#FF0000" stroke-width="0.25" stroke-miterlimit="10" cx="234.703" cy="360.807" rx="6.686" ry="12.249"/>
	
		<ellipse transform="matrix(0.9271 0.3749 -0.3749 0.9271 156.317 -75.8997)" fill="none" stroke="#FF0000" stroke-width="0.25" stroke-miterlimit="10" cx="273.229" cy="363.802" rx="6.162" ry="11.715"/>
	
		<ellipse transform="matrix(0.9797 0.2005 -0.2005 0.9797 30.6543 -38.198)" fill="none" stroke="#FF0000" stroke-width="0.25" stroke-miterlimit="10" cx="203.921" cy="132.25" rx="8.25" ry="13.509"/>
	
		<ellipse transform="matrix(0.9953 0.0963 -0.0963 0.9953 8.308 -22.7583)" fill="none" stroke="#FF0000" stroke-width="0.25" stroke-miterlimit="10" cx="239.84" cy="74.658" rx="8.125" ry="13.326"/>
	
		<ellipse transform="matrix(0.999 0.0443 -0.0443 0.999 2.1696 -12.4956)" fill="none" stroke="#FF0000" stroke-width="0.25" stroke-miterlimit="10" cx="283.126" cy="42.722" rx="7.007" ry="12.419"/>
	
		<ellipse transform="matrix(0.9979 0.0649 -0.0649 0.9979 3.2336 -20.9751)" fill="none" stroke="#FF0000" stroke-width="0.25" stroke-miterlimit="10" cx="324.272" cy="39.253" rx="6.042" ry="11.764"/>
	
		<ellipse transform="matrix(0.9947 0.1028 -0.1028 0.9947 8.0697 -36.4105)" fill="none" stroke="#FF0000" stroke-width="0.25" stroke-miterlimit="10" cx="357.212" cy="60.07" rx="5.537" ry="11.346"/>
	
		<ellipse transform="matrix(0.9918 0.1277 -0.1277 0.9918 15.8105 -47.5502)" fill="none" stroke="#FF0000" stroke-width="0.25" stroke-miterlimit="10" cx="378.679" cy="99.508" rx="5.069" ry="10.697"/>
	
		<ellipse transform="matrix(0.989 0.1482 -0.1482 0.989 26.4467 -55.7584)" fill="none" stroke="#FF0000" stroke-width="0.25" stroke-miterlimit="10" cx="387.494" cy="149.641" rx="4.813" ry="10.383"/>
	
		<ellipse transform="matrix(0.9819 0.1892 -0.1892 0.9819 45.7144 -68.9272)" fill="none" stroke="#FF0000" stroke-width="0.25" stroke-miterlimit="10" cx="383.788" cy="204.916" rx="4.595" ry="9.864"/>
	
		<ellipse transform="matrix(0.9758 0.2189 -0.2189 0.9758 65.6978 -74.5022)" fill="none" stroke="#FF0000" stroke-width="0.25" stroke-miterlimit="10" cx="369.128" cy="259.288" rx="4.868" ry="10.277"/>
	
		<ellipse transform="matrix(0.9506 0.3105 -0.3105 0.9506 112.5893 -91.6463)" fill="none" stroke="#FF0000" stroke-width="0.25" stroke-miterlimit="10" cx="344.123" cy="307.779" rx="4.972" ry="10.219"/>
	
		<ellipse transform="matrix(0.9675 0.2529 -0.2529 0.9675 60.2244 -65.9112)" fill="none" stroke="#FF0000" stroke-width="0.25" stroke-miterlimit="10" cx="286.462" cy="201.276" rx="90.323" ry="153.397"/>
	
		<ellipse transform="matrix(0.9721 0.2346 -0.2346 0.9721 54.869 -59.8482)" fill="none" stroke="#FF0000" stroke-width="0.25" stroke-miterlimit="10" cx="278.941" cy="200.658" rx="114.85" ry="195.036"/>
	
		<ellipse transform="matrix(0.9536 0.3011 -0.3011 0.9536 118.1836 -77.7591)" fill="none" stroke="#FF0000" stroke-width="0.25" stroke-miterlimit="10" cx="311.326" cy="344.483" rx="5.349" ry="10.158"/>
	
		<ellipse transform="matrix(0.9731 0.2302 -0.2302 0.9731 54.3943 -60.7991)" fill="none" stroke="#FF0000" stroke-width="0.25" stroke-miterlimit="10" cx="287.722" cy="202.681" rx="74.672" ry="127.932"/>
	
		<ellipse transform="matrix(0.971 0.239 -0.239 0.971 55.1173 -58.48)" fill="none" stroke="#FF0000" stroke-width="0.25" stroke-miterlimit="10" cx="268.687" cy="198.023" rx="73.058" ry="121.75"/>
</g>
</svg>
