<?xml version="1.0" encoding="utf-8"?>
<!-- Generator: Adobe Illustrator 16.0.0, SVG Export Plug-In . SVG Version: 6.00 Build 0)  -->
<!DOCTYPE svg PUBLIC "-//W3C//DTD SVG 1.1 Tiny//EN" "http://www.w3.org/Graphics/SVG/1.1/DTD/svg11-tiny.dtd">
<svg version="1.1" baseProfile="tiny" xmlns="http://www.w3.org/2000/svg" xmlns:xlink="http://www.w3.org/1999/xlink" x="0px"
	 y="0px" width="257.25px" height="187.5px" viewBox="0 0 257.25 187.5" xml:space="preserve">
<g id="图层_1">
	<image width="343" height="250" xlink:href="../x/036.jpg"  transform="matrix(0.75 0 0 0.75 0 0)">
	</image>
</g>
<g id="图层_2">
	<ellipse fill="none" stroke="#FF0000" stroke-width="0.25" stroke-miterlimit="10" cx="74.188" cy="69" rx="21.438" ry="25.75"/>
	
		<ellipse fill="none" stroke="#FF0000" stroke-width="0.25" stroke-miterlimit="10" cx="73.188" cy="68.813" rx="26.813" ry="31.188"/>
	<ellipse fill="none" stroke="#FF0000" stroke-width="0.25" stroke-miterlimit="10" cx="26" cy="70.875" rx="7.5" ry="8.375"/>
	<ellipse fill="none" stroke="#FF0000" stroke-width="0.25" stroke-miterlimit="10" cx="41.063" cy="106.094" rx="7.5" ry="8.281"/>
	
		<ellipse transform="matrix(0.9992 0.0401 -0.0401 0.9992 4.7447 -2.7585)" fill="none" stroke="#FF0000" stroke-width="0.25" stroke-miterlimit="10" cx="71.177" cy="116.969" rx="6.823" ry="7.948"/>
	
		<ellipse transform="matrix(0.9957 0.0923 -0.0923 0.9957 9.7218 -8.666)" fill="none" stroke="#FF0000" stroke-width="0.25" stroke-miterlimit="10" cx="98.535" cy="100.754" rx="6.3" ry="7.88"/>
	
		<ellipse transform="matrix(0.9957 0.0923 -0.0923 0.9957 6.7254 -9.8029)" fill="none" stroke="#FF0000" stroke-width="0.25" stroke-miterlimit="10" cx="109.327" cy="67.796" rx="6.3" ry="7.88"/>
	
		<ellipse transform="matrix(0.9996 -0.0295 0.0295 0.9996 -0.9801 2.9161)" fill="none" stroke="#FF0000" stroke-width="0.25" stroke-miterlimit="10" cx="98.199" cy="34.626" rx="6.479" ry="8.396"/>
	
		<ellipse transform="matrix(0.9996 -0.0295 0.0295 0.9996 -0.5368 2.0647)" fill="none" stroke="#FF0000" stroke-width="0.25" stroke-miterlimit="10" cx="69.598" cy="19.197" rx="6.635" ry="8.643"/>
	
		<ellipse transform="matrix(0.9907 -0.1361 0.1361 0.9907 -4.1904 5.5572)" fill="none" stroke="#FF0000" stroke-width="0.25" stroke-miterlimit="10" cx="38.541" cy="33.42" rx="7.235" ry="8.688"/>
	
		<ellipse fill="none" stroke="#FF0000" stroke-width="0.25" stroke-miterlimit="10" cx="63.833" cy="68.25" rx="11.917" ry="17.083"/>
	
		<ellipse fill="none" stroke="#FF0000" stroke-width="0.25" stroke-miterlimit="10" cx="192.625" cy="65.708" rx="15.792" ry="16.292"/>
	
		<ellipse transform="matrix(0.9893 0.1457 -0.1457 0.9893 11.5842 -27.2908)" fill="none" stroke="#FF0000" stroke-width="0.25" stroke-miterlimit="10" cx="192.057" cy="65.419" rx="20.972" ry="21.917"/>
	
		<ellipse transform="matrix(0.9778 0.2093 -0.2093 0.9778 17.3905 -36.8573)" fill="none" stroke="#FF0000" stroke-width="0.25" stroke-miterlimit="10" cx="182.805" cy="63.722" rx="25.53" ry="27.75"/>
	<ellipse fill="none" stroke="#FF0000" stroke-width="0.25" stroke-miterlimit="10" cx="184.875" cy="23.25" rx="6.5" ry="6.875"/>
	
		<ellipse transform="matrix(0.9122 0.4097 -0.4097 0.9122 33.1318 -83.5942)" fill="none" stroke="#FF0000" stroke-width="0.25" stroke-miterlimit="10" cx="211.628" cy="35.514" rx="6.23" ry="6.875"/>
	
		<ellipse transform="matrix(0.9122 0.4097 -0.4097 0.9122 45.7806 -85.2497)" fill="none" stroke="#FF0000" stroke-width="0.25" stroke-miterlimit="10" cx="221.815" cy="64.201" rx="6.23" ry="6.875"/>
	
		<ellipse transform="matrix(0.9122 0.4097 -0.4097 0.9122 56.1466 -77.752)" fill="none" stroke="#FF0000" stroke-width="0.25" stroke-miterlimit="10" cx="209.503" cy="92.139" rx="6.23" ry="6.875"/>
	
		<ellipse transform="matrix(0.9122 0.4098 -0.4098 0.9122 58.613 -65.7387)" fill="none" stroke="#FF0000" stroke-width="0.25" stroke-miterlimit="10" cx="182.69" cy="103.889" rx="6.23" ry="6.875"/>
	
		<ellipse transform="matrix(0.9122 0.4098 -0.4098 0.9122 51.687 -55.5438)" fill="none" stroke="#FF0000" stroke-width="0.25" stroke-miterlimit="10" cx="155.44" cy="92.826" rx="6.23" ry="6.875"/>
	
		<ellipse transform="matrix(0.9122 0.4098 -0.4098 0.9122 39.106 -53.4943)" fill="none" stroke="#FF0000" stroke-width="0.25" stroke-miterlimit="10" cx="144.368" cy="64.497" rx="6.493" ry="6.875"/>
	
		<ellipse transform="matrix(0.9122 0.4098 -0.4098 0.9122 28.2251 -60.969)" fill="none" stroke="#FF0000" stroke-width="0.25" stroke-miterlimit="10" cx="156.368" cy="35.372" rx="6.493" ry="6.875"/>
	
		<ellipse transform="matrix(0.9421 0.3352 -0.3352 0.9421 31.585 -57.1888)" fill="none" stroke="#FF0000" stroke-width="0.25" stroke-miterlimit="10" cx="181.455" cy="62.9" rx="54.125" ry="55.114"/>
	
		<ellipse transform="matrix(0.9996 0.0278 -0.0278 0.9996 3.9226 -4.6738)" fill="none" stroke="#FF0000" stroke-width="0.25" stroke-miterlimit="10" cx="169.768" cy="138.5" rx="87.551" ry="17.764"/>
	
		<ellipse transform="matrix(0.9999 0.0111 -0.0111 0.9999 1.6702 -1.8397)" fill="none" stroke="#FF0000" stroke-width="0.25" stroke-miterlimit="10" cx="167.075" cy="149.999" rx="11.56" ry="2.122"/>
	
		<ellipse transform="matrix(1 -0.0044 0.0044 1 -0.63 0.5233)" fill="none" stroke="#FF0000" stroke-width="0.25" stroke-miterlimit="10" cx="118.825" cy="143.687" rx="11.56" ry="2.122"/>
	
		<ellipse transform="matrix(1 -0.0044 0.0044 1 -0.5851 0.4644)" fill="none" stroke="#FF0000" stroke-width="0.25" stroke-miterlimit="10" cx="105.665" cy="133.721" rx="10.026" ry="2.282"/>
	
		<ellipse transform="matrix(0.9995 0.0314 -0.0314 0.9995 4.707 -6.7575)" fill="none" stroke="#FF0000" stroke-width="0.25" stroke-miterlimit="10" cx="217.352" cy="146.378" rx="11.67" ry="2.5"/>
	
		<ellipse transform="matrix(0.9995 0.0314 -0.0314 0.9995 4.4141 -7.2257)" fill="none" stroke="#FF0000" stroke-width="0.25" stroke-miterlimit="10" cx="232.076" cy="136.811" rx="10.519" ry="2.5"/>
	<ellipse fill="none" stroke="#FF0000" stroke-width="0.25" stroke-miterlimit="10" cx="65" cy="67.25" rx="56.5" ry="67.25"/>
	
		<ellipse transform="matrix(0.9996 0.0268 -0.0268 0.9996 3.6936 -4.4635)" fill="none" stroke="#FF0000" stroke-width="0.25" stroke-miterlimit="10" cx="168.598" cy="135.758" rx="48.75" ry="7.909"/>
</g>
</svg>
