<?xml version="1.0" encoding="utf-8"?>
<!-- Generator: Adobe Illustrator 16.0.0, SVG Export Plug-In . SVG Version: 6.00 Build 0)  -->
<!DOCTYPE svg PUBLIC "-//W3C//DTD SVG 1.1 Tiny//EN" "http://www.w3.org/Graphics/SVG/1.1/DTD/svg11-tiny.dtd">
<svg version="1.1" baseProfile="tiny" xmlns="http://www.w3.org/2000/svg" xmlns:xlink="http://www.w3.org/1999/xlink" x="0px"
	 y="0px" width="446px" height="448px" viewBox="0 0 446 448" xml:space="preserve">
<g id="图层_1">
	<g id="图层_1_1_">
		<image width="446" height="448" xlink:href="../x/037.jpg"  transform="matrix(1 0 0 1 -2.441406e-004 2.441406e-004)">
		</image>
	</g>
	<g id="图层_2">
		
			<ellipse transform="matrix(-0.1046 -0.9945 0.9945 -0.1046 -30.8564 578.2496)" fill="none" stroke="#FF0000" stroke-width="0.25" stroke-miterlimit="10" cx="244.882" cy="303.015" rx="43.636" ry="59.757"/>
		
			<ellipse transform="matrix(-0.1046 -0.9945 0.9945 -0.1046 -32.3694 579.9752)" fill="none" stroke="#FF0000" stroke-width="0.25" stroke-miterlimit="10" cx="244.903" cy="304.559" rx="49.636" ry="68.247"/>
		
			<ellipse fill="none" stroke="#FF0000" stroke-width="0.25" stroke-miterlimit="10" cx="285.25" cy="301.75" rx="8.375" ry="4.875"/>
		
			<ellipse transform="matrix(0.0373 -0.9993 0.9993 0.0373 112.1751 678.041)" fill="none" stroke="#FF0000" stroke-width="0.25" stroke-miterlimit="10" cx="408.012" cy="280.798" rx="5.283" ry="9.026"/>
		
			<ellipse transform="matrix(0.0373 -0.9993 0.9993 0.0373 148.9294 643.6824)" fill="none" stroke="#FF0000" stroke-width="0.25" stroke-miterlimit="10" cx="408.532" cy="244.548" rx="4.782" ry="9.026"/>
		
			<ellipse transform="matrix(0.0329 -0.9995 0.9995 0.0329 134.0172 576.0464)" fill="none" stroke="#FF0000" stroke-width="0.25" stroke-miterlimit="10" cx="364.662" cy="218.774" rx="4.782" ry="8.868"/>
		
			<ellipse transform="matrix(0.0327 -0.9995 0.9995 0.0327 77.9012 512.0468)" fill="none" stroke="#FF0000" stroke-width="0.25" stroke-miterlimit="10" cx="303.494" cy="215.777" rx="4.626" ry="8.196"/>
		
			<ellipse transform="matrix(-0.0446 -0.999 0.999 -0.0446 20.6814 501.5646)" fill="none" stroke="#FF0000" stroke-width="0.25" stroke-miterlimit="10" cx="250.181" cy="240.893" rx="6.604" ry="8.95"/>
		
			<ellipse transform="matrix(-0.0708 -0.9975 0.9975 -0.0708 -61.2775 462.7929)" fill="none" stroke="#FF0000" stroke-width="0.25" stroke-miterlimit="10" cx="184.917" cy="259.938" rx="6.759" ry="9.164"/>
		
			<ellipse transform="matrix(-0.0708 -0.9975 0.9975 -0.0708 -146.2019 479.4447)" fill="none" stroke="#FF0000" stroke-width="0.25" stroke-miterlimit="10" cx="150.203" cy="307.817" rx="6.977" ry="9.543"/>
		
			<ellipse transform="matrix(-0.8246 -0.5657 0.5657 -0.8246 152.2543 451.5135)" fill="none" stroke="#FF0000" stroke-width="0.25" stroke-miterlimit="10" cx="146.127" cy="202.152" rx="7.059" ry="9.339"/>
		
			<ellipse transform="matrix(-0.8246 -0.5657 0.5657 -0.8246 0.7506 374.5096)" fill="none" stroke="#FF0000" stroke-width="0.25" stroke-miterlimit="10" cx="58.429" cy="187.138" rx="8.141" ry="9.494"/>
		
			<ellipse transform="matrix(-0.8246 -0.5657 0.5657 -0.8246 114.1582 204.6169)" fill="none" stroke="#FF0000" stroke-width="0.25" stroke-miterlimit="10" cx="88.798" cy="84.612" rx="8.686" ry="9.494"/>
		
			<ellipse transform="matrix(-0.8246 -0.5657 0.5657 -0.8246 261.5759 295.5274)" fill="none" stroke="#FF0000" stroke-width="0.25" stroke-miterlimit="10" cx="176.602" cy="107.213" rx="8.169" ry="9.266"/>
		
			<ellipse transform="matrix(-0.8594 -0.5113 0.5113 -0.8594 430.6731 268.2024)" fill="none" stroke="#FF0000" stroke-width="0.25" stroke-miterlimit="10" cx="252.208" cy="74.894" rx="6.803" ry="9.015"/>
		
			<ellipse transform="matrix(-0.9313 -0.3642 0.3642 -0.9313 557.9592 232.1819)" fill="none" stroke="#FF0000" stroke-width="0.25" stroke-miterlimit="10" cx="300.869" cy="63.489" rx="5.83" ry="9.015"/>
		
			<ellipse transform="matrix(-0.9313 -0.3642 0.3642 -0.9313 597.4288 309.3671)" fill="none" stroke="#FF0000" stroke-width="0.25" stroke-miterlimit="10" cx="327.886" cy="98.349" rx="5.447" ry="9.015"/>
		
			<ellipse transform="matrix(-0.9314 -0.3641 0.3641 -0.9314 565.8958 415.4899)" fill="none" stroke="#FF0000" stroke-width="0.25" stroke-miterlimit="10" cx="322.109" cy="154.407" rx="5.118" ry="8.535"/>
		
			<ellipse transform="matrix(-0.8878 -0.4603 0.4603 -0.8878 451.0859 515.6772)" fill="none" stroke="#FF0000" stroke-width="0.25" stroke-miterlimit="10" cx="288.409" cy="202.847" rx="4.827" ry="8.29"/>
		
			<ellipse transform="matrix(-0.8878 -0.4603 0.4603 -0.8878 358.9587 526.007)" fill="none" stroke="#FF0000" stroke-width="0.25" stroke-miterlimit="10" cx="243.605" cy="219.243" rx="5.259" ry="8.513"/>
		
			<ellipse transform="matrix(-0.8878 -0.4603 0.4603 -0.8878 310.6508 458.9502)" fill="none" stroke="#FF0000" stroke-width="0.25" stroke-miterlimit="10" cx="211.278" cy="191.602" rx="6.279" ry="8.916"/>
		
			<ellipse transform="matrix(-0.8878 -0.4603 0.4603 -0.8878 342.9672 344.7676)" fill="none" stroke="#FF0000" stroke-width="0.25" stroke-miterlimit="10" cx="213.516" cy="130.571" rx="6.561" ry="9.67"/>
		
			<ellipse transform="matrix(0.4463 -0.8949 0.8949 0.4463 22.7174 319.575)" fill="none" stroke="#FF0000" stroke-width="0.25" stroke-miterlimit="10" cx="269.602" cy="141.43" rx="68.874" ry="44.492"/>
		<ellipse fill="none" stroke="#FF0000" stroke-width="0.25" stroke-miterlimit="10" cx="326.5" cy="253.25" rx="54" ry="27.25"/>
		
			<ellipse transform="matrix(0.0195 -0.9998 0.9998 0.0195 58.9074 586.6938)" fill="none" stroke="#FF0000" stroke-width="0.25" stroke-miterlimit="10" cx="328.577" cy="263.313" rx="57.6" ry="102.691"/>
		
			<ellipse transform="matrix(-0.0866 -0.9962 0.9962 -0.0866 -47.244 587.5826)" fill="none" stroke="#FF0000" stroke-width="0.25" stroke-miterlimit="10" cx="245.738" cy="315.449" rx="86.162" ry="115.915"/>
		
			<ellipse transform="matrix(-0.1149 -0.9934 0.9934 -0.1149 -115.6053 406.9464)" fill="none" stroke="#FF0000" stroke-width="0.25" stroke-miterlimit="10" cx="123.492" cy="254.975" rx="55.941" ry="100.127"/>
		
			<ellipse transform="matrix(0.4223 -0.9065 0.9065 0.4223 27.5889 321.6754)" fill="none" stroke="#FF0000" stroke-width="0.25" stroke-miterlimit="10" cx="266.156" cy="139.194" rx="100.514" ry="65.549"/>
		
			<ellipse transform="matrix(0.4785 -0.8781 0.8781 0.4785 -67.1389 182.6007)" fill="none" stroke="#FF0000" stroke-width="0.25" stroke-miterlimit="10" cx="120.159" cy="147.823" rx="44.283" ry="37.744"/>
		
			<ellipse transform="matrix(0.5358 -0.8443 0.8443 0.5358 -68.8223 170.316)" fill="none" stroke="#FF0000" stroke-width="0.25" stroke-miterlimit="10" cx="120.49" cy="147.751" rx="52.142" ry="45.209"/>
		
			<ellipse transform="matrix(0.5371 -0.8435 0.8435 0.5371 -68.3487 162.908)" fill="none" stroke="#FF0000" stroke-width="0.25" stroke-miterlimit="10" cx="114.257" cy="143.729" rx="91.239" ry="77.865"/>
	</g>
</g>
<g id="图层_2_1_">
	
		<ellipse transform="matrix(0.9889 -0.1483 0.1483 0.9889 -35.7654 9.2616)" fill="none" stroke="#FF0000" stroke-miterlimit="10" cx="44.233" cy="244.503" rx="8.167" ry="4.402"/>
	
		<ellipse transform="matrix(0.9889 -0.1483 0.1483 0.9889 -41.0111 10.3294)" fill="none" stroke="#FF0000" stroke-miterlimit="10" cx="48.777" cy="280.238" rx="8.678" ry="4.732"/>
	
		<ellipse transform="matrix(0.9889 -0.1483 0.1483 0.9889 -43.4223 18.4754)" fill="none" stroke="#FF0000" stroke-miterlimit="10" cx="102.218" cy="300.505" rx="9.001" ry="5.08"/>
	<ellipse fill="none" stroke="#FF0000" stroke-miterlimit="10" cx="193.5" cy="221.979" rx="7.75" ry="4.354"/>
	
		<ellipse transform="matrix(0.9851 -0.1721 0.1721 0.9851 -59.5282 34.7115)" fill="none" stroke="#FF0000" stroke-miterlimit="10" cx="170.444" cy="360.702" rx="9.829" ry="7.688"/>
	<ellipse fill="none" stroke="#FF0000" stroke-miterlimit="10" cx="239.75" cy="385.417" rx="10.167" ry="8.583"/>
	<ellipse fill="none" stroke="#FF0000" stroke-miterlimit="10" cx="313.958" cy="361.251" rx="9.958" ry="7.916"/>
	<ellipse fill="none" stroke="#FF0000" stroke-miterlimit="10" cx="342.25" cy="306.916" rx="9.583" ry="7.667"/>
	<ellipse fill="none" stroke="#FF0000" stroke-miterlimit="10" cx="313.334" cy="258.541" rx="8.833" ry="6.792"/>
</g>
</svg>
