<?xml version="1.0" encoding="utf-8"?>
<!-- Generator: Adobe Illustrator 16.0.0, SVG Export Plug-In . SVG Version: 6.00 Build 0)  -->
<!DOCTYPE svg PUBLIC "-//W3C//DTD SVG 1.1 Tiny//EN" "http://www.w3.org/Graphics/SVG/1.1/DTD/svg11-tiny.dtd">
<svg version="1.1" baseProfile="tiny" xmlns="http://www.w3.org/2000/svg" xmlns:xlink="http://www.w3.org/1999/xlink" x="0px"
	 y="0px" width="537px" height="537px" viewBox="0 0 537 537" xml:space="preserve">
<g id="图层_1">
	<g id="图层_1_1_">
		<image width="716" height="716" xlink:href="../x/038.jpg"  transform="matrix(0.75 0 0 0.75 -2.441406e-004 2.441406e-004)">
		</image>
	</g>
	<g id="图层_2">
		
			<ellipse fill="none" stroke="#FF0000" stroke-width="0.25" stroke-miterlimit="10" cx="268.75" cy="170.5" rx="122.25" ry="89.5"/>
		<ellipse fill="none" stroke="#FF0000" stroke-width="0.25" stroke-miterlimit="10" cx="270" cy="174" rx="138" ry="102"/>
		
			<ellipse transform="matrix(-0.083 -0.9966 0.9966 -0.083 -236.1672 536.9689)" fill="none" stroke="#FF0000" stroke-width="0.25" stroke-miterlimit="10" cx="128.971" cy="377.143" rx="21.386" ry="26.029"/>
		
			<ellipse transform="matrix(0.0786 -0.9969 0.9969 0.0786 -131.8419 686.6274)" fill="none" stroke="#FF0000" stroke-width="0.25" stroke-miterlimit="10" cx="305.533" cy="414.638" rx="22.272" ry="26.355"/>
		
			<ellipse transform="matrix(0.2043 -0.9789 0.9789 0.2043 177.6268 633.4407)" fill="none" stroke="#FF0000" stroke-width="0.25" stroke-miterlimit="10" cx="478.467" cy="207.455" rx="17.481" ry="24.024"/>
		
			<ellipse transform="matrix(0.0086 -1 1 0.0086 269.8004 489.9878)" fill="none" stroke="#FF0000" stroke-width="0.25" stroke-miterlimit="10" cx="382.009" cy="108.929" rx="14.773" ry="24.024"/>
		<ellipse fill="none" stroke="#FF0000" stroke-width="0.25" stroke-miterlimit="10" cx="268.5" cy="254.5" rx="260.5" ry="201.5"/>
	</g>
</g>
<g id="图层_2_1_">
	<ellipse fill="none" stroke="#FF0000" stroke-miterlimit="10" cx="102.375" cy="140.5" rx="21.375" ry="14.25"/>
	
		<ellipse transform="matrix(0.9869 -0.1616 0.1616 0.9869 -40.9852 11.6273)" fill="none" stroke="#FF0000" stroke-miterlimit="10" cx="50.979" cy="257.744" rx="24.409" ry="17.009"/>
	
		<ellipse transform="matrix(0.9708 0.2397 -0.2397 0.9708 94.0477 -99.0758)" fill="none" stroke="#FF0000" stroke-miterlimit="10" cx="454.265" cy="337.036" rx="25.879" ry="19.769"/>
</g>
</svg>
