<?xml version="1.0" encoding="utf-8"?>
<!-- Generator: Adobe Illustrator 16.0.0, SVG Export Plug-In . SVG Version: 6.00 Build 0)  -->
<!DOCTYPE svg PUBLIC "-//W3C//DTD SVG 1.1 Tiny//EN" "http://www.w3.org/Graphics/SVG/1.1/DTD/svg11-tiny.dtd">
<svg version="1.1" baseProfile="tiny" id="图层_1"
	 xmlns="http://www.w3.org/2000/svg" xmlns:xlink="http://www.w3.org/1999/xlink" x="0px" y="0px" width="318px" height="210px"
	 viewBox="0 0 318 210" xml:space="preserve">
<g id="图层_1_1_">
	<image width="318" height="210" xlink:href="../x/039.jpg"  transform="matrix(1 0 0 1 -4.882813e-004 0)">
	</image>
</g>
<g id="图层_2">
	
		<ellipse transform="matrix(-0.1977 -0.9803 0.9803 -0.1977 114.3513 278.5437)" fill="none" stroke="#FF0000" stroke-width="0.25" stroke-miterlimit="10" cx="171.164" cy="92.476" rx="13.537" ry="17.96"/>
	
		<ellipse transform="matrix(-0.0446 -0.999 0.999 -0.0446 103.8011 177.4412)" fill="none" stroke="#FF0000" stroke-width="0.25" stroke-miterlimit="10" cx="136.749" cy="39.085" rx="36.084" ry="51.084"/>
	
		<ellipse transform="matrix(-0.1564 -0.9877 0.9877 -0.1564 32.3561 107.0264)" fill="none" stroke="#FF0000" stroke-width="0.25" stroke-miterlimit="10" cx="61.884" cy="39.695" rx="35.775" ry="49.629"/>
	
		<ellipse transform="matrix(0.1844 -0.9829 0.9829 0.1844 64.0144 353.3776)" fill="none" stroke="#FF0000" stroke-width="0.25" stroke-miterlimit="10" cx="244.927" cy="138.118" rx="44.816" ry="55.115"/>
	
		<ellipse transform="matrix(-0.0966 -0.9953 0.9953 -0.0966 -19.8 303.9632)" fill="none" stroke="#FF0000" stroke-width="0.25" stroke-miterlimit="10" cx="128.045" cy="160.967" rx="41.504" ry="49.226"/>
	
		<ellipse transform="matrix(0.034 -0.9994 0.9994 0.034 159.923 263.2103)" fill="none" stroke="#FF0000" stroke-width="0.25" stroke-miterlimit="10" cx="216.121" cy="48.876" rx="37.387" ry="50.879"/>
	
		<ellipse transform="matrix(0.1338 -0.991 0.991 0.1338 184.3521 260.8061)" fill="none" stroke="#FF0000" stroke-width="0.25" stroke-miterlimit="10" cx="241.375" cy="24.941" rx="3.688" ry="5.875"/>
	
		<ellipse transform="matrix(0.1339 -0.991 0.991 0.1339 148.6893 303.4639)" fill="none" stroke="#FF0000" stroke-width="0.25" stroke-miterlimit="10" cx="247.958" cy="66.666" rx="4.89" ry="6.488"/>
	
		<ellipse transform="matrix(0.08 -0.9968 0.9968 0.08 105.9619 253.7408)" fill="none" stroke="#FF0000" stroke-width="0.25" stroke-miterlimit="10" cx="190.447" cy="69.465" rx="5.051" ry="6.736"/>
	
		<ellipse transform="matrix(0.0465 -0.9989 0.9989 0.0465 124.228 218.0452)" fill="none" stroke="#FF0000" stroke-width="0.25" stroke-miterlimit="10" cx="176.33" cy="43.95" rx="4.893" ry="6.609"/>
	
		<ellipse transform="matrix(0.0047 -1 1 0.0047 59.4192 192.0325)" fill="none" stroke="#FF0000" stroke-width="0.25" stroke-miterlimit="10" cx="126.177" cy="66.167" rx="4.893" ry="6.957"/>
	
		<ellipse transform="matrix(0.0047 -1 1 0.0047 66.2911 129.5704)" fill="none" stroke="#FF0000" stroke-width="0.25" stroke-miterlimit="10" cx="98.237" cy="31.483" rx="4.71" ry="6.702"/>
	
		<ellipse transform="matrix(-0.1917 -0.9815 0.9815 -0.1917 88.7422 103.3204)" fill="none" stroke="#FF0000" stroke-width="0.25" stroke-miterlimit="10" cx="86.919" cy="15.116" rx="4.657" ry="6.138"/>
	
		<ellipse transform="matrix(-0.1917 -0.9814 0.9814 -0.1917 -18.4063 107.256)" fill="none" stroke="#FF0000" stroke-width="0.25" stroke-miterlimit="10" cx="34.962" cy="61.207" rx="4.994" ry="6.886"/>
	
		<ellipse transform="matrix(-0.2207 -0.9753 0.9753 -0.2207 20.2677 59.1837)" fill="none" stroke="#FF0000" stroke-width="0.25" stroke-miterlimit="10" cx="33.777" cy="21.495" rx="4.755" ry="6.43"/>
	
		<ellipse transform="matrix(0.1003 -0.995 0.995 0.1003 97.3606 317.6036)" fill="none" stroke="#FF0000" stroke-width="0.25" stroke-miterlimit="10" cx="224.296" cy="104.967" rx="5.267" ry="6.488"/>
	
		<ellipse transform="matrix(0.1003 -0.995 0.995 0.1003 35.5234 341.9064)" fill="none" stroke="#FF0000" stroke-width="0.25" stroke-miterlimit="10" cx="206.818" cy="151.311" rx="6.172" ry="7.108"/>
	
		<ellipse transform="matrix(0.1002 -0.995 0.995 0.1002 72.1908 417.4504)" fill="none" stroke="#FF0000" stroke-width="0.25" stroke-miterlimit="10" cx="266.906" cy="168.811" rx="6.172" ry="7.107"/>
	
		<ellipse transform="matrix(0.1003 -0.995 0.995 0.1003 133.4785 389.7306)" fill="none" stroke="#FF0000" stroke-width="0.25" stroke-miterlimit="10" cx="282.24" cy="121.059" rx="6.172" ry="7.107"/>
	
		<ellipse transform="matrix(0.1003 -0.995 0.995 0.1003 151.1628 423.5103)" fill="none" stroke="#FF0000" stroke-width="0.25" stroke-miterlimit="10" cx="309.754" cy="128.172" rx="4.616" ry="5.377"/>
	
		<ellipse transform="matrix(-0.0412 -0.9992 0.9992 -0.0412 -25.7527 294.2806)" fill="none" stroke="#FF0000" stroke-width="0.25" stroke-miterlimit="10" cx="128.321" cy="159.497" rx="22.166" ry="26.665"/>
	
		<ellipse transform="matrix(0.0956 -0.9954 0.9954 0.0956 147.9818 257.005)" fill="none" stroke="#FF0000" stroke-width="0.25" stroke-miterlimit="10" cx="215.426" cy="47.065" rx="20.819" ry="28.821"/>
</g>
<ellipse transform="matrix(0.9847 -0.1742 0.1742 0.9847 -26.6175 18.0861)" fill="none" stroke="#FF0000" stroke-miterlimit="10" cx="89.709" cy="160.656" rx="6.376" ry="5.111"/>
<ellipse fill="none" stroke="#FF0000" stroke-miterlimit="10" cx="128.271" cy="127.938" rx="6.396" ry="4.896"/>
<ellipse fill="none" stroke="#FF0000" stroke-miterlimit="10" cx="167.521" cy="157.501" rx="6.896" ry="5.374"/>
<ellipse fill="none" stroke="#FF0000" stroke-miterlimit="10" cx="126" cy="148.5" rx="17.833" ry="14.167"/>
<ellipse fill="none" stroke="#FF0000" stroke-miterlimit="10" cx="197.792" cy="201.709" rx="9.792" ry="8.291"/>
<ellipse fill="none" stroke="#FF0000" stroke-miterlimit="10" cx="63.781" cy="200.375" rx="9.969" ry="8.375"/>
<ellipse transform="matrix(0.9747 -0.2236 0.2236 0.9747 -35.3019 8.8602)" fill="none" stroke="#FF0000" stroke-miterlimit="10" cx="21.466" cy="160.283" rx="9.279" ry="7.841"/>
<ellipse transform="matrix(0.9971 -0.0758 0.0758 0.9971 -8.2222 1.2706)" fill="none" stroke="#FF0000" stroke-miterlimit="10" cx="12.621" cy="108.914" rx="9.311" ry="6.966"/>
<ellipse transform="matrix(0.9823 0.1874 -0.1874 0.9823 27.6232 -44.5464)" fill="none" stroke="#FF0000" stroke-miterlimit="10" cx="249.415" cy="123.824" rx="19.375" ry="15.725"/>
<ellipse transform="matrix(0.9665 0.2566 -0.2566 0.9665 48.9062 -76.3023)" fill="none" stroke="#FF0000" stroke-miterlimit="10" cx="316.793" cy="149.225" rx="8.484" ry="7.24"/>
<ellipse transform="matrix(0.9983 -0.0584 0.0584 0.9983 -0.9394 7.9444)" fill="none" stroke="#FF0000" stroke-miterlimit="10" cx="135.388" cy="20.036" rx="17.638" ry="12.292"/>
<ellipse transform="matrix(0.9834 -0.1812 0.1812 0.9834 -3.0032 10.5009)" fill="none" stroke="#FF0000" stroke-miterlimit="10" cx="55.966" cy="21.686" rx="17.34" ry="12.16"/>
<ellipse transform="matrix(0.997 0.0777 -0.0777 0.997 3.0985 -16.8542)" fill="none" stroke="#FF0000" stroke-miterlimit="10" cx="218.181" cy="31.399" rx="17.625" ry="12.904"/>
<ellipse transform="matrix(0.9761 0.2175 -0.2175 0.9761 10.4928 -39.9107)" fill="none" stroke="#FF0000" stroke-miterlimit="10" cx="186.542" cy="27.708" rx="5.291" ry="4.125"/>
<ellipse fill="none" stroke="#FF0000" stroke-miterlimit="10" cx="245.334" cy="135.166" rx="30.833" ry="25.167"/>
<ellipse fill="none" stroke="#FF0000" stroke-miterlimit="10" cx="136.938" cy="37.25" rx="28.063" ry="18.75"/>
<ellipse transform="matrix(0.9918 -0.1276 0.1276 0.9918 -4.3831 8.1933)" fill="none" stroke="#FF0000" stroke-miterlimit="10" cx="61.781" cy="38.32" rx="27.576" ry="17.297"/>
<ellipse fill="none" stroke="#FF0000" stroke-miterlimit="10" cx="133.75" cy="115" rx="89.25" ry="70.5"/>
<ellipse fill="none" stroke="#FF0000" stroke-miterlimit="10" cx="133.5" cy="118.5" rx="110.5" ry="85.5"/>
<ellipse transform="matrix(0.9972 -0.0754 0.0754 0.9972 -8.7584 10.5126)" fill="none" stroke="#FF0000" stroke-miterlimit="10" cx="134.863" cy="121.264" rx="138.724" ry="109.749"/>
</svg>
