<?xml version="1.0" encoding="utf-8"?>
<!-- Generator: Adobe Illustrator 16.0.0, SVG Export Plug-In . SVG Version: 6.00 Build 0)  -->
<!DOCTYPE svg PUBLIC "-//W3C//DTD SVG 1.1 Tiny//EN" "http://www.w3.org/Graphics/SVG/1.1/DTD/svg11-tiny.dtd">
<svg version="1.1" baseProfile="tiny" id="图层_1"
	 xmlns="http://www.w3.org/2000/svg" xmlns:xlink="http://www.w3.org/1999/xlink" x="0px" y="0px" width="800px" height="598px"
	 viewBox="0 0 800 598" xml:space="preserve">
<g id="图层_1_1_">
	<image width="800" height="598" xlink:href="../x/040.jpg"  transform="matrix(1 0 0 1 -2.441406e-004 2.441406e-004)">
	</image>
</g>
<g id="图层_2">
	
		<ellipse transform="matrix(-0.3869 -0.9221 0.9221 -0.3869 114.7867 652.6603)" fill="none" stroke="#FF0000" stroke-width="0.25" stroke-miterlimit="10" cx="274.363" cy="288.171" rx="63.998" ry="67.398"/>
	
		<ellipse transform="matrix(-0.4336 -0.9011 0.9011 -0.4336 -7.0465 305.0235)" fill="none" stroke="#FF0000" stroke-width="0.25" stroke-miterlimit="10" cx="92.34" cy="154.726" rx="57.078" ry="64.127"/>
	
		<ellipse transform="matrix(-0.7662 -0.6426 0.6426 -0.7662 -184.8628 740.1981)" fill="none" stroke="#FF0000" stroke-width="0.25" stroke-miterlimit="10" cx="42.221" cy="403.728" rx="62.829" ry="68.962"/>
	
		<ellipse transform="matrix(-0.9265 -0.3763 0.3763 -0.9265 254.4585 1141.9474)" fill="none" stroke="#FF0000" stroke-width="0.25" stroke-miterlimit="10" cx="238.756" cy="546.122" rx="69.782" ry="73.657"/>
	
		<ellipse transform="matrix(-0.9265 -0.3763 0.3763 -0.9265 771.9531 1023.8989)" fill="none" stroke="#FF0000" stroke-width="0.25" stroke-miterlimit="10" cx="485.975" cy="436.557" rx="71.102" ry="71.942"/>
	
		<ellipse transform="matrix(-0.9265 -0.3763 0.3763 -0.9265 1128.9845 1433.4708)" fill="none" stroke="#FF0000" stroke-width="0.25" stroke-miterlimit="10" cx="704.49" cy="606.475" rx="72.193" ry="71.942"/>
	
		<ellipse transform="matrix(-0.9666 -0.2563 0.2563 -0.9666 1421.3992 336.9662)" fill="none" stroke="#FF0000" stroke-width="0.25" stroke-miterlimit="10" cx="732.657" cy="75.862" rx="65.65" ry="57.139"/>
	
		<ellipse transform="matrix(-0.9666 -0.2563 0.2563 -0.9666 944.5474 478.8521)" fill="none" stroke="#FF0000" stroke-width="0.25" stroke-miterlimit="10" cx="503.477" cy="177.877" rx="66.2" ry="62.153"/>
	
		<ellipse transform="matrix(-0.9558 0.294 -0.294 -0.9558 613.3179 14.4281)" fill="none" stroke="#FF0000" stroke-width="0.25" stroke-miterlimit="10" cx="305.574" cy="53.312" rx="62.796" ry="58.792"/>
	
		<ellipse transform="matrix(-0.5043 -0.8635 0.8635 -0.5043 99.6705 101.8251)" fill="none" stroke="#FF0000" stroke-width="0.25" stroke-miterlimit="10" cx="79.061" cy="22.305" rx="7.87" ry="10.303"/>
	
		<ellipse transform="matrix(-0.5043 -0.8635 0.8635 -0.5043 -55.3438 178.5024)" fill="none" stroke="#FF0000" stroke-width="0.25" stroke-miterlimit="10" cx="23.56" cy="105.135" rx="7.869" ry="10.303"/>
	
		<ellipse transform="matrix(-0.5043 -0.8635 0.8635 -0.5043 161.4689 250.8704)" fill="none" stroke="#FF0000" stroke-miterlimit="10" cx="152.739" cy="79.091" rx="8.505" ry="10.303"/>
	
		<ellipse transform="matrix(-0.5043 -0.8635 0.8635 -0.5043 79.765 450.824)" fill="none" stroke="#FF0000" stroke-miterlimit="10" cx="169.273" cy="202.519" rx="9.776" ry="10.714"/>
	
		<ellipse transform="matrix(-0.6074 -0.7944 0.7944 -0.6074 -127.8783 394.6766)" fill="none" stroke="#FF0000" stroke-miterlimit="10" cx="33.583" cy="228.936" rx="8.75" ry="10.4"/>
	
		<ellipse transform="matrix(-0.6604 -0.7509 0.7509 -0.6604 -78.2875 591.813)" fill="none" stroke="#FF0000" stroke-miterlimit="10" cx="94.679" cy="313.609" rx="9.15" ry="10.761"/>
	
		<ellipse transform="matrix(-0.7227 -0.6912 0.6912 -0.7227 -90.2285 864.1733)" fill="none" stroke="#FF0000" stroke-miterlimit="10" cx="128.256" cy="450.188" rx="9.947" ry="10.762"/>
	
		<ellipse transform="matrix(-0.9877 -0.1563 0.1563 -0.9877 208.5474 1012.7982)" fill="none" stroke="#FF0000" stroke-miterlimit="10" cx="144.104" cy="498.198" rx="9.657" ry="11.329"/>
	
		<ellipse transform="matrix(-0.8882 -0.4594 0.4594 -0.8882 -107.332 1115.8578)" fill="none" stroke="#FF0000" stroke-miterlimit="10" cx="82.086" cy="570.987" rx="9.657" ry="11.328"/>
	
		<ellipse transform="matrix(-0.9104 -0.4137 0.4137 -0.9104 367.5919 970.2475)" fill="none" stroke="#FF0000" stroke-miterlimit="10" cx="288.841" cy="445.326" rx="10.49" ry="11.329"/>
</g>
<ellipse transform="matrix(0.9358 -0.3524 0.3524 0.9358 4.4823 77.9745)" fill="none" stroke="#FF0000" stroke-miterlimit="10" cx="216.383" cy="26.677" rx="9.601" ry="8.185"/>
<ellipse fill="none" stroke="#FF0000" stroke-miterlimit="10" cx="272.187" cy="138.25" rx="9.688" ry="9.5"/>
<ellipse fill="none" stroke="#FF0000" stroke-miterlimit="10" cx="396.542" cy="80.501" rx="9.292" ry="9.083"/>
<ellipse transform="matrix(0.988 -0.1545 0.1545 0.988 -5.0396 47.9195)" fill="none" stroke="#FF0000" stroke-miterlimit="10" cx="305.762" cy="56.381" rx="116.771" ry="107"/>
<ellipse fill="none" stroke="#FF0000" stroke-miterlimit="10" cx="491.084" cy="23" rx="10.417" ry="9.333"/>
<ellipse fill="none" stroke="#FF0000" stroke-miterlimit="10" cx="536.812" cy="88.75" rx="10.188" ry="9.625"/>
<ellipse fill="none" stroke="#FF0000" stroke-miterlimit="10" cx="600.687" cy="208.625" rx="10.313" ry="10"/>
<ellipse fill="none" stroke="#FF0000" stroke-miterlimit="10" cx="469.625" cy="267.375" rx="10.625" ry="10.25"/>
<ellipse fill="none" stroke="#FF0000" stroke-miterlimit="10" cx="408.812" cy="143.5" rx="9.688" ry="9.625"/>
<ellipse transform="matrix(0.9997 0.0258 -0.0258 0.9997 4.7911 -12.9295)" fill="none" stroke="#FF0000" stroke-miterlimit="10" cx="504.25" cy="179.5" rx="123.25" ry="114"/>
<ellipse transform="matrix(0.9829 0.1839 -0.1839 0.9829 24.085 -115.3748)" fill="none" stroke="#FF0000" stroke-miterlimit="10" cx="634.084" cy="72.167" rx="9.917" ry="8.5"/>
<ellipse transform="matrix(0.9446 0.3282 -0.3282 0.9446 95.7676 -233.239)" fill="none" stroke="#FF0000" stroke-miterlimit="10" cx="738.825" cy="167.08" rx="10.778" ry="9.696"/>
<ellipse transform="matrix(0.9853 0.1707 -0.1707 0.9853 23.8076 -124.9125)" fill="none" stroke="#FF0000" stroke-miterlimit="10" cx="738.177" cy="75.968" rx="126.683" ry="110.473"/>
<ellipse transform="matrix(0.888 0.4598 -0.4598 0.888 233.3933 -301.0776)" fill="none" stroke="#FF0000" stroke-miterlimit="10" cx="734.838" cy="328.64" rx="72.372" ry="67.5"/>
<ellipse fill="none" stroke="#FF0000" stroke-miterlimit="10" cx="658.562" cy="251.063" rx="10.313" ry="9.813"/>
<ellipse transform="matrix(0.8626 0.506 -0.506 0.8626 291.9033 -277.4989)" fill="none" stroke="#FF0000" stroke-miterlimit="10" cx="656.717" cy="398.528" rx="11.134" ry="9.813"/>
<ellipse transform="matrix(0.8321 0.5546 -0.5546 0.8321 308.2617 -351.3464)" fill="none" stroke="#FF0000" stroke-miterlimit="10" cx="734.452" cy="333.485" rx="134.84" ry="122.114"/>
<ellipse transform="matrix(0.7971 -0.6039 0.6039 0.7971 -159.2142 520.3224)" fill="none" stroke="#FF0000" stroke-miterlimit="10" cx="694.604" cy="497.063" rx="10.375" ry="12.112"/>
<ellipse fill="none" stroke="#FF0000" stroke-miterlimit="10" cx="698" cy="601" rx="128.5" ry="128"/>
<ellipse fill="none" stroke="#FF0000" stroke-miterlimit="10" cx="450.125" cy="541.5" rx="10.875" ry="12.25"/>
<ellipse fill="none" stroke="#FF0000" stroke-miterlimit="10" cx="590.437" cy="473.563" rx="10.813" ry="11.688"/>
<ellipse transform="matrix(0.9837 0.1796 -0.1796 0.9837 77.6067 -62.673)" fill="none" stroke="#FF0000" stroke-miterlimit="10" cx="384.998" cy="397.349" rx="10.083" ry="11.196"/>
<ellipse fill="none" stroke="#FF0000" stroke-miterlimit="10" cx="519.25" cy="333.834" rx="11.083" ry="10.833"/>
<ellipse transform="matrix(0.7796 -0.6262 0.6262 0.7796 -168.9117 402.3284)" fill="none" stroke="#FF0000" stroke-miterlimit="10" cx="487.235" cy="441.18" rx="131.04" ry="135.576"/>
<circle fill="none" stroke="#FF0000" stroke-miterlimit="10" cx="337" cy="596.333" r="10"/>
<ellipse transform="matrix(0.8427 0.5383 -0.5383 0.8427 332.2516 -43.0358)" fill="none" stroke="#FF0000" stroke-miterlimit="10" cx="239.784" cy="547.153" rx="131.5" ry="136.506"/>
<ellipse transform="matrix(0.9067 0.4219 -0.4219 0.9067 175.0857 18.2061)" fill="none" stroke="#FF0000" stroke-miterlimit="10" cx="46.401" cy="404.761" rx="115.154" ry="124.784"/>
<ellipse fill="none" stroke="#FF0000" stroke-miterlimit="10" cx="347.333" cy="358.334" rx="10.667" ry="10.5"/>
<ellipse transform="matrix(0.9022 0.4312 -0.4312 0.9022 174.7916 -50.7505)" fill="none" stroke="#FF0000" stroke-miterlimit="10" cx="199.326" cy="360.127" rx="9.566" ry="11.029"/>
<ellipse transform="matrix(0.7648 -0.6442 0.6442 0.7648 -92.6928 184.4636)" fill="none" stroke="#FF0000" stroke-miterlimit="10" cx="206.325" cy="219.199" rx="10.631" ry="9.333"/>
<ellipse transform="matrix(0.9972 -0.0751 0.0751 0.9972 -15.3504 26.7998)" fill="none" stroke="#FF0000" stroke-miterlimit="10" cx="348.875" cy="217.625" rx="10.291" ry="9.792"/>
<ellipse transform="matrix(0.8951 -0.4458 0.4458 0.8951 -101.0873 152.8721)" fill="none" stroke="#FF0000" stroke-miterlimit="10" cx="274.407" cy="291.311" rx="126.34" ry="120.76"/>
<ellipse transform="matrix(0.8889 -0.458 0.458 0.8889 -61.6069 60.5374)" fill="none" stroke="#FF0000" stroke-miterlimit="10" cx="94.021" cy="157.298" rx="119.505" ry="104.706"/>
</svg>
