<?xml version="1.0" encoding="utf-8"?>
<!-- Generator: Adobe Illustrator 16.0.0, SVG Export Plug-In . SVG Version: 6.00 Build 0)  -->
<!DOCTYPE svg PUBLIC "-//W3C//DTD SVG 1.1 Tiny//EN" "http://www.w3.org/Graphics/SVG/1.1/DTD/svg11-tiny.dtd">
<svg version="1.1" baseProfile="tiny" id="图层_1"
	 xmlns="http://www.w3.org/2000/svg" xmlns:xlink="http://www.w3.org/1999/xlink" x="0px" y="0px" width="1000px" height="750px"
	 viewBox="0 0 1000 750" xml:space="preserve">
<g id="图层_1_1_">
	<image width="1000" height="750" xlink:href="../x/041.jpg"  transform="matrix(1 0 0 1 -2.441406e-004 2.441406e-004)">
	</image>
</g>
<g id="图层_2">
	
		<ellipse transform="matrix(-0.386 -0.9225 0.9225 -0.386 267.7424 1295.4446)" fill="none" stroke="#FF0000" stroke-miterlimit="10" cx="564.984" cy="558.62" rx="222.962" ry="179.491"/>
	
		<ellipse transform="matrix(-0.386 -0.9225 0.9225 -0.386 278.8797 1299.8129)" fill="none" stroke="#FF0000" stroke-miterlimit="10" cx="572.008" cy="557.097" rx="280.107" ry="225.709"/>
	
		<ellipse transform="matrix(-0.386 -0.9225 0.9225 -0.386 377.4366 1308.689)" fill="none" stroke="#FF0000" stroke-miterlimit="10" cx="624.24" cy="528.737" rx="172.777" ry="143.516"/>
	
		<ellipse transform="matrix(-0.4415 -0.8973 0.8973 -0.4415 370.1872 1324.4708)" fill="none" stroke="#FF0000" stroke-miterlimit="10" cx="597.31" cy="547.022" rx="373.351" ry="309.083"/>
	
		<ellipse transform="matrix(-0.283 -0.9591 0.9591 -0.283 -339.6466 585.8742)" fill="none" stroke="#FF0000" stroke-miterlimit="10" cx="49.163" cy="419.889" rx="225.489" ry="151.474"/>
	
		<ellipse transform="matrix(-0.2613 -0.9653 0.9653 -0.2613 -347.6371 572.8116)" fill="none" stroke="#FF0000" stroke-miterlimit="10" cx="45.361" cy="419.425" rx="177.547" ry="121.078"/>
	
		<ellipse transform="matrix(-0.3627 -0.9319 0.9319 -0.3627 -194.75 681.5903)" fill="none" stroke="#FF0000" stroke-miterlimit="10" cx="135.683" cy="407.386" rx="143.442" ry="104.175"/>
	
		<ellipse transform="matrix(-0.4562 -0.8899 0.8899 -0.4562 -93.692 1404.6115)" fill="none" stroke="#FF0000" stroke-miterlimit="10" cx="382.326" cy="730.933" rx="24.088" ry="17.442"/>
	
		<ellipse transform="matrix(-0.3476 -0.9376 0.9376 -0.3476 -144.7318 1156.1367)" fill="none" stroke="#FF0000" stroke-miterlimit="10" cx="329.839" cy="628.419" rx="24.142" ry="17.441"/>
	
		<ellipse transform="matrix(-0.3476 -0.9376 0.9376 -0.3476 -70.6871 986.2554)" fill="none" stroke="#FF0000" stroke-miterlimit="10" cx="307.758" cy="517.719" rx="23.85" ry="18.135"/>
	
		<ellipse transform="matrix(-0.2697 -0.9629 0.9629 -0.2697 12.7929 827.9548)" fill="none" stroke="#FF0000" stroke-miterlimit="10" cx="320.365" cy="409.126" rx="24.293" ry="18.767"/>
	
		<ellipse transform="matrix(-0.2189 -0.9757 0.9757 -0.2189 137.6149 744.4737)" fill="none" stroke="#FF0000" stroke-miterlimit="10" cx="366.781" cy="317.157" rx="25.21" ry="19.523"/>
	
		<ellipse transform="matrix(-0.3476 -0.9376 0.9376 -0.3476 -224.8293 974.9149)" fill="none" stroke="#FF0000" stroke-miterlimit="10" cx="226.745" cy="565.673" rx="23.046" ry="16.821"/>
	
		<ellipse transform="matrix(-0.3476 -0.9376 0.9376 -0.3476 -351.401 1030.5825)" fill="none" stroke="#FF0000" stroke-miterlimit="10" cx="182.826" cy="637.539" rx="22.681" ry="16.247"/>
	
		<ellipse transform="matrix(-0.3476 -0.9376 0.9376 -0.3476 -467.8878 1019.3813)" fill="none" stroke="#FF0000" stroke-miterlimit="10" cx="120.684" cy="672.462" rx="22.682" ry="15.032"/>
	
		<ellipse transform="matrix(-0.3476 -0.9376 0.9376 -0.3476 -555.9398 948.5443)" fill="none" stroke="#FF0000" stroke-miterlimit="10" cx="52.018" cy="667.677" rx="21.941" ry="14.479"/>
	
		<ellipse transform="matrix(-0.3256 -0.9455 0.9455 -0.3256 -117.5977 847.2621)" fill="none" stroke="#FF0000" stroke-miterlimit="10" cx="243.365" cy="465.571" rx="23.542" ry="17.777"/>
	
		<ellipse transform="matrix(-0.2293 -0.9734 0.9734 -0.2293 -66.3303 660.1597)" fill="none" stroke="#FF0000" stroke-miterlimit="10" cx="228.193" cy="356.34" rx="24.457" ry="17.78"/>
	
		<ellipse transform="matrix(-0.2293 -0.9734 0.9734 -0.2293 -28.0918 495.0417)" fill="none" stroke="#FF0000" stroke-miterlimit="10" cx="181.939" cy="258.642" rx="23.53" ry="16.885"/>
	
		<ellipse transform="matrix(-0.2075 -0.9782 0.9782 -0.2075 -44.7241 341.3729)" fill="none" stroke="#FF0000" stroke-miterlimit="10" cx="115.915" cy="188.802" rx="23.528" ry="16.885"/>
	
		<ellipse transform="matrix(-0.1691 -0.9856 0.9856 -0.1691 -107.6949 228.3012)" fill="none" stroke="#FF0000" stroke-miterlimit="10" cx="42.386" cy="159.546" rx="23.126" ry="16.072"/>
	
		<ellipse transform="matrix(-0.1046 -0.9945 0.9945 -0.1046 112.3168 581.2662)" fill="none" stroke="#FF0000" stroke-miterlimit="10" cx="317.834" cy="240.07" rx="16.833" ry="12.175"/>
	
		<ellipse transform="matrix(-0.1045 -0.9945 0.9945 -0.1045 103.0991 453.1884)" fill="none" stroke="#FF0000" stroke-miterlimit="10" cx="255.579" cy="180.178" rx="15.422" ry="12.003"/>
	
		<ellipse transform="matrix(-0.1987 -0.9801 0.9801 -0.1987 -8.7379 174.4559)" fill="none" stroke="#FF0000" stroke-miterlimit="10" cx="66.95" cy="90.8" rx="15.64" ry="12.822"/>
	
		<ellipse transform="matrix(-0.1987 -0.9801 0.9801 -0.1987 -56.4761 111.7544)" fill="none" stroke="#FF0000" stroke-miterlimit="10" cx="17.448" cy="78.965" rx="15.64" ry="12.822"/>
	
		<ellipse transform="matrix(-0.3236 -0.9462 0.9462 -0.3236 285.4793 439.0233)" fill="none" stroke="#FF0000" stroke-miterlimit="10" cx="299.662" cy="117.471" rx="16.426" ry="14.381"/>
	
		<ellipse transform="matrix(-0.3236 -0.9462 0.9462 -0.3236 377.1029 485.0204)" fill="none" stroke="#FF0000" stroke-miterlimit="10" cx="361.913" cy="107.722" rx="16.426" ry="14.38"/>
	
		<ellipse transform="matrix(-0.3236 -0.9462 0.9462 -0.3236 442.6068 573.3743)" fill="none" stroke="#FF0000" stroke-miterlimit="10" cx="426.243" cy="128.487" rx="16.765" ry="15.149"/>
	
		<ellipse transform="matrix(-0.3236 -0.9462 0.9462 -0.3236 469.1157 692.0063)" fill="none" stroke="#FF0000" stroke-miterlimit="10" cx="481.91" cy="178.322" rx="16.765" ry="15.149"/>
	
		<ellipse transform="matrix(-0.3236 -0.9462 0.9462 -0.3236 814.1688 884.4397)" fill="none" stroke="#FF0000" stroke-miterlimit="10" cx="723.206" cy="151.215" rx="16.834" ry="17.153"/>
	
		<ellipse transform="matrix(-0.3236 -0.9462 0.9462 -0.3236 934.9569 952.5587)" fill="none" stroke="#FF0000" stroke-miterlimit="10" cx="807.958" cy="142.092" rx="16.834" ry="17.153"/>
	
		<ellipse transform="matrix(0.1747 -0.9846 0.9846 0.1747 569.229 1016.758)" fill="none" stroke="#FF0000" stroke-miterlimit="10" cx="891.122" cy="168.827" rx="18.329" ry="17.372"/>
	
		<ellipse transform="matrix(0.1747 -0.9846 0.9846 0.1747 569.4653 1134.5359)" fill="none" stroke="#FF0000" stroke-miterlimit="10" cx="961.496" cy="227.575" rx="18.329" ry="17.371"/>
	
		<ellipse transform="matrix(-0.5699 -0.8217 0.8217 -0.5699 1318.5731 1315.2053)" fill="none" stroke="#FF0000" stroke-miterlimit="10" cx="1003.484" cy="312.524" rx="18.329" ry="17.371"/>
</g>
<ellipse transform="matrix(0.9955 -0.0952 0.0952 0.9955 -22.1108 43.6704)" fill="none" stroke="#FF0000" stroke-miterlimit="10" cx="446.5" cy="253.5" rx="21.5" ry="26.5"/>
<ellipse fill="none" stroke="#FF0000" stroke-miterlimit="10" cx="549.75" cy="232.084" rx="23.25" ry="27.25"/>
<ellipse fill="none" stroke="#FF0000" stroke-miterlimit="10" cx="663.751" cy="261.667" rx="24.75" ry="27.167"/>
<ellipse transform="matrix(0.9079 -0.4193 0.4193 0.9079 -73.6013 354.0965)" fill="none" stroke="#FF0000" stroke-miterlimit="10" cx="768.798" cy="344.497" rx="25.78" ry="29.395"/>
<ellipse transform="matrix(0.9038 -0.4279 0.4279 0.9038 -118.9823 404.7007)" fill="none" stroke="#FF0000" stroke-miterlimit="10" cx="840.783" cy="467.031" rx="27.306" ry="29.471"/>
<ellipse transform="matrix(0.7794 0.6265 -0.6265 0.7794 572.2318 -408.174)" fill="none" stroke="#FF0000" stroke-miterlimit="10" cx="865.807" cy="608.6" rx="30.64" ry="27.095"/>
<ellipse transform="matrix(0.8027 0.5964 -0.5964 0.8027 603.83 -354.1407)" fill="none" stroke="#FF0000" stroke-miterlimit="10" cx="837.138" cy="735.516" rx="29.245" ry="24.868"/>
<ellipse transform="matrix(0.9002 0.4354 -0.4354 0.9002 379.1815 -364.6793)" fill="none" stroke="#FF0000" stroke-miterlimit="10" cx="985.322" cy="645.035" rx="33.726" ry="28.406"/>
<ellipse transform="matrix(0.7492 0.6623 -0.6623 0.7492 512.7715 -512.4583)" fill="none" stroke="#FF0000" stroke-miterlimit="10" cx="933.093" cy="420.891" rx="20.022" ry="17.958"/>
<ellipse transform="matrix(0.9597 0.2809 -0.2809 0.9597 122.5058 -231.1028)" fill="none" stroke="#FF0000" stroke-miterlimit="10" cx="867.501" cy="311.834" rx="18" ry="16.499"/>
<ellipse transform="matrix(0.8932 0.4497 -0.4497 0.8932 190.4644 -322.4775)" fill="none" stroke="#FF0000" stroke-miterlimit="10" cx="774.067" cy="239.7" rx="16.325" ry="14.762"/>
<ellipse transform="matrix(0.7878 0.616 -0.616 0.7878 482.5912 -309.3894)" fill="none" stroke="#FF0000" stroke-miterlimit="10" cx="690.283" cy="545.645" rx="15.588" ry="14.779"/>
<ellipse transform="matrix(0.588 0.8089 -0.8089 0.588 656.0315 -310.6642)" fill="none" stroke="#FF0000" stroke-miterlimit="10" cx="632.976" cy="488.654" rx="15.061" ry="13.512"/>
<ellipse transform="matrix(0.9418 -0.3362 0.3362 0.9418 -104.7222 225.0779)" fill="none" stroke="#FF0000" stroke-miterlimit="10" cx="597.617" cy="414.955" rx="13.546" ry="16.055"/>
<ellipse transform="matrix(0.9686 -0.2486 0.2486 0.9686 -101.1605 28.985)" fill="none" stroke="#FF0000" stroke-miterlimit="10" cx="64.2" cy="415.087" rx="204.995" ry="300.906"/>
</svg>
