<?xml version="1.0" encoding="utf-8"?>
<!-- Generator: Adobe Illustrator 16.0.0, SVG Export Plug-In . SVG Version: 6.00 Build 0)  -->
<!DOCTYPE svg PUBLIC "-//W3C//DTD SVG 1.1 Tiny//EN" "http://www.w3.org/Graphics/SVG/1.1/DTD/svg11-tiny.dtd">
<svg version="1.1" baseProfile="tiny" xmlns="http://www.w3.org/2000/svg" xmlns:xlink="http://www.w3.org/1999/xlink" x="0px"
	 y="0px" width="595px" height="307px" viewBox="0 0 595 307" xml:space="preserve">
<g id="图层_1">
	<g id="图层_1_1_">
		<image width="595" height="307" xlink:href="../x/044.jpg"  transform="matrix(1 0 0 1 -2.441406e-004 2.441406e-004)">
		</image>
	</g>
	<g id="图层_2">
		
			<ellipse transform="matrix(0.4387 -0.8986 0.8986 0.4387 -143.4366 146.8378)" fill="none" stroke="#FF0000" stroke-width="0.25" stroke-miterlimit="10" cx="45.826" cy="188.24" rx="12.25" ry="10.014"/>
		
			<ellipse transform="matrix(0.4387 -0.8986 0.8986 0.4387 -51.3215 121.5549)" fill="none" stroke="#FF0000" stroke-width="0.25" stroke-miterlimit="10" cx="71.646" cy="101.861" rx="12.658" ry="10.015"/>
		
			<ellipse transform="matrix(0.373 -0.9278 0.9278 0.373 39.2767 161.5155)" fill="none" stroke="#FF0000" stroke-width="0.25" stroke-miterlimit="10" cx="139.141" cy="51.698" rx="12.656" ry="10.015"/>
		
			<ellipse transform="matrix(0.4039 -0.9148 0.9148 0.4039 61.804 226.7489)" fill="none" stroke="#FF0000" stroke-width="0.25" stroke-miterlimit="10" cx="204.895" cy="65.95" rx="12.658" ry="10.015"/>
		
			<ellipse transform="matrix(0.4039 -0.9148 0.9148 0.4039 16.5733 290.3317)" fill="none" stroke="#FF0000" stroke-width="0.25" stroke-miterlimit="10" cx="231.06" cy="132.449" rx="12.658" ry="10.015"/>
		
			<ellipse transform="matrix(0.4039 -0.9148 0.9148 0.4039 -72.4135 313.6561)" fill="none" stroke="#FF0000" stroke-width="0.25" stroke-miterlimit="10" cx="204.472" cy="212.393" rx="12.958" ry="9.326"/>
		
			<ellipse transform="matrix(0.4039 -0.9148 0.9148 0.4039 -155.5097 288.3774)" fill="none" stroke="#FF0000" stroke-width="0.25" stroke-miterlimit="10" cx="143.527" cy="263.516" rx="12.958" ry="9.637"/>
		
			<ellipse transform="matrix(0.4039 -0.9148 0.9148 0.4039 -187.1334 221.9816)" fill="none" stroke="#FF0000" stroke-width="0.25" stroke-miterlimit="10" cx="76.766" cy="254.584" rx="12.957" ry="9.782"/>
		
			<ellipse transform="matrix(0.4803 -0.8771 0.8771 0.4803 -65.9825 205.0232)" fill="none" stroke="#FF0000" stroke-width="0.25" stroke-miterlimit="10" cx="140.02" cy="158.192" rx="83.955" ry="62.539"/>
		
			<ellipse transform="matrix(0.4303 -0.9027 0.9027 0.4303 -63.6072 212.9973)" fill="none" stroke="#FF0000" stroke-width="0.25" stroke-miterlimit="10" cx="136.942" cy="156.891" rx="136.999" ry="103.196"/>
		
			<ellipse transform="matrix(0.541 -0.841 0.841 0.541 36.3473 323.7169)" fill="none" stroke="#FF0000" stroke-width="0.25" stroke-miterlimit="10" cx="314.743" cy="128.559" rx="11.208" ry="9.42"/>
		
			<ellipse transform="matrix(0.315 -0.9491 0.9491 0.315 129.7086 472.0696)" fill="none" stroke="#FF0000" stroke-width="0.25" stroke-miterlimit="10" cx="391.888" cy="146.177" rx="11.207" ry="8.908"/>
		
			<ellipse transform="matrix(0.315 -0.9491 0.9491 0.315 7.5161 508.769)" fill="none" stroke="#FF0000" stroke-width="0.25" stroke-miterlimit="10" cx="356.221" cy="249.177" rx="11.207" ry="8.908"/>
		
			<ellipse transform="matrix(0.315 -0.9491 0.9491 0.315 -32.7106 425.6984)" fill="none" stroke="#FF0000" stroke-width="0.25" stroke-miterlimit="10" cx="278.554" cy="235.51" rx="11.207" ry="8.907"/>
		
			<ellipse transform="matrix(0.3477 -0.9376 0.9376 0.3477 39.6035 439.6418)" fill="none" stroke="#FF0000" stroke-width="0.25" stroke-miterlimit="10" cx="335.769" cy="191.358" rx="42.697" ry="32.404"/>
		
			<ellipse transform="matrix(0.4107 -0.9118 0.9118 0.4107 23.5953 415.7959)" fill="none" stroke="#FF0000" stroke-width="0.25" stroke-miterlimit="10" cx="333.455" cy="189.645" rx="102.605" ry="70.952"/>
		
			<ellipse transform="matrix(0.4101 -0.912 0.912 0.4101 119.8438 583.8595)" fill="none" stroke="#FF0000" stroke-width="0.25" stroke-miterlimit="10" cx="511.284" cy="199.282" rx="24.418" ry="17.295"/>
		
			<ellipse transform="matrix(0.4168 -0.909 0.909 0.4168 117.0616 579.1595)" fill="none" stroke="#FF0000" stroke-width="0.25" stroke-miterlimit="10" cx="509.879" cy="198.352" rx="90.457" ry="62.694"/>
	</g>
</g>
<g id="图层_2_1_">
	
		<ellipse transform="matrix(0.4576 -0.8891 0.8891 0.4576 133.2119 519.3931)" fill="none" stroke="#FF0000" stroke-miterlimit="10" cx="492.352" cy="150.503" rx="12.162" ry="8.742"/>
	
		<ellipse transform="matrix(0.9004 0.4351 -0.4351 0.9004 125.4211 -226.2075)" fill="none" stroke="#FF0000" stroke-miterlimit="10" cx="556.759" cy="160.822" rx="8.291" ry="12.403"/>
	
		<ellipse transform="matrix(0.8937 0.4486 -0.4486 0.8937 166.6961 -211.6823)" fill="none" stroke="#FF0000" stroke-miterlimit="10" cx="530.167" cy="246.021" rx="8.264" ry="12.41"/>
	
		<ellipse transform="matrix(0.9095 0.4158 -0.4158 0.9095 140.9489 -172.1149)" fill="none" stroke="#FF0000" stroke-miterlimit="10" cx="465.673" cy="237.58" rx="8.034" ry="12.743"/>
</g>
</svg>
