<?xml version="1.0" encoding="utf-8"?>
<!-- Generator: Adobe Illustrator 16.0.0, SVG Export Plug-In . SVG Version: 6.00 Build 0)  -->
<!DOCTYPE svg PUBLIC "-//W3C//DTD SVG 1.1 Tiny//EN" "http://www.w3.org/Graphics/SVG/1.1/DTD/svg11-tiny.dtd">
<svg version="1.1" baseProfile="tiny" xmlns="http://www.w3.org/2000/svg" xmlns:xlink="http://www.w3.org/1999/xlink" x="0px"
	 y="0px" width="400px" height="260px" viewBox="0 0 400 260" xml:space="preserve">
<g id="图层_1">
	<g id="图层_1_2_">
		<g id="图层_1_1_">
			<image width="400" height="260" xlink:href="../x/045.jpg"  transform="matrix(1 0 0 1 -4.882813e-004 0)">
			</image>
		</g>
		<g id="图层_2">
			
				<ellipse transform="matrix(-0.778 -0.6282 0.6282 -0.778 60.1185 168.8286)" fill="none" stroke="#FF0000" stroke-width="0.25" stroke-miterlimit="10" cx="59.886" cy="73.793" rx="7.166" ry="8.607"/>
			
				<ellipse transform="matrix(-0.778 -0.6282 0.6282 -0.778 136.4463 164.1337)" fill="none" stroke="#FF0000" stroke-width="0.25" stroke-miterlimit="10" cx="97.218" cy="57.963" rx="7.166" ry="8.607"/>
			
				<ellipse transform="matrix(-0.778 -0.6282 0.6282 -0.778 186.549 208.164)" fill="none" stroke="#FF0000" stroke-width="0.25" stroke-miterlimit="10" cx="130.049" cy="71.126" rx="7.166" ry="8.606"/>
			
				<ellipse transform="matrix(-0.778 -0.6282 0.6282 -0.778 183.1687 271.4158)" fill="none" stroke="#FF0000" stroke-width="0.25" stroke-miterlimit="10" cx="139.532" cy="103.35" rx="6.642" ry="8.252"/>
			
				<ellipse transform="matrix(-0.778 -0.6282 0.6282 -0.778 131.7302 318.2349)" fill="none" stroke="#FF0000" stroke-width="0.25" stroke-miterlimit="10" cx="122.084" cy="135.846" rx="6.642" ry="8.032"/>
			
				<ellipse transform="matrix(-0.778 -0.6282 0.6282 -0.778 60.6369 323.8785)" fill="none" stroke="#FF0000" stroke-width="0.25" stroke-miterlimit="10" cx="87.535" cy="151.227" rx="6.928" ry="8.172"/>
			
				<ellipse transform="matrix(-0.778 -0.6282 0.6282 -0.778 8.042 284.238)" fill="none" stroke="#FF0000" stroke-width="0.25" stroke-miterlimit="10" cx="54.237" cy="140.698" rx="7.073" ry="8.405"/>
			
				<ellipse transform="matrix(-0.778 -0.6282 0.6282 -0.778 5.8666 220.1949)" fill="none" stroke="#FF0000" stroke-width="0.25" stroke-miterlimit="10" cx="41.834" cy="109.061" rx="7.282" ry="8.406"/>
			
				<ellipse transform="matrix(-0.7369 -0.676 0.676 -0.7369 89.9696 251.963)" fill="none" stroke="#FF0000" stroke-width="0.25" stroke-miterlimit="10" cx="94.018" cy="108.473" rx="13.273" ry="15.711"/>
			
				<ellipse transform="matrix(-0.6736 -0.7391 0.7391 -0.6736 287.7242 233.8277)" fill="none" stroke="#FF0000" stroke-width="0.25" stroke-miterlimit="10" cx="195.494" cy="53.381" rx="4.741" ry="6.098"/>
			
				<ellipse transform="matrix(-0.6736 -0.7391 0.7391 -0.6736 321.0234 263.3132)" fill="none" stroke="#FF0000" stroke-width="0.25" stroke-miterlimit="10" cx="218.657" cy="60.767" rx="4.741" ry="5.331"/>
			
				<ellipse transform="matrix(-0.717 -0.6971 0.6971 -0.717 245.4791 232.4555)" fill="none" stroke="#FF0000" stroke-width="0.25" stroke-miterlimit="10" cx="169.924" cy="66.399" rx="4.941" ry="5.916"/>
			
				<ellipse transform="matrix(-0.2333 -0.9724 0.9724 -0.2333 107.6241 267.4817)" fill="none" stroke="#FF0000" stroke-width="0.25" stroke-miterlimit="10" cx="159.264" cy="91.311" rx="4.942" ry="5.916"/>
			
				<ellipse transform="matrix(-0.6012 -0.7991 0.7991 -0.6012 181.2131 316.7287)" fill="none" stroke="#FF0000" stroke-width="0.25" stroke-miterlimit="10" cx="169.638" cy="113.147" rx="4.717" ry="5.916"/>
			
				<ellipse transform="matrix(-0.6012 -0.7991 0.7991 -0.6012 215.3439 345.2714)" fill="none" stroke="#FF0000" stroke-width="0.25" stroke-miterlimit="10" cx="193.826" cy="118.902" rx="4.717" ry="5.917"/>
			
				<ellipse transform="matrix(-0.6768 -0.7362 0.7362 -0.6768 288.0452 340.0716)" fill="none" stroke="#FF0000" stroke-width="0.25" stroke-miterlimit="10" cx="218.675" cy="106.804" rx="4.419" ry="5.916"/>
			
				<ellipse transform="matrix(-0.828 -0.5608 0.5608 -0.828 428.8711 336.8289)" fill="none" stroke="#FF0000" stroke-width="0.25" stroke-miterlimit="10" cx="266.101" cy="102.631" rx="18.901" ry="15.343"/>
			
				<ellipse transform="matrix(-0.8812 -0.4728 0.4728 -0.8812 482.9309 256.55)" fill="none" stroke="#FF0000" stroke-width="0.25" stroke-miterlimit="10" cx="273.706" cy="67.585" rx="6.068" ry="5.05"/>
			
				<ellipse transform="matrix(-0.8811 -0.4729 0.4729 -0.8811 519.2026 301.8712)" fill="none" stroke="#FF0000" stroke-width="0.25" stroke-miterlimit="10" cx="297.546" cy="85.673" rx="6.068" ry="5.248"/>
			
				<ellipse transform="matrix(-0.8811 -0.4729 0.4729 -0.8811 479.8474 382.546)" fill="none" stroke="#FF0000" stroke-width="0.25" stroke-miterlimit="10" cx="288.009" cy="130.957" rx="6.068" ry="5.001"/>
			
				<ellipse transform="matrix(-0.8811 -0.4729 0.4729 -0.8811 430.8073 371.4088)" fill="none" stroke="#FF0000" stroke-width="0.25" stroke-miterlimit="10" cx="262.093" cy="131.548" rx="6.067" ry="4.903"/>
			
				<ellipse transform="matrix(-0.8189 -0.5739 0.5739 -0.8189 370.7237 345.8666)" fill="none" stroke="#FF0000" stroke-width="0.25" stroke-miterlimit="10" cx="239.924" cy="114.449" rx="6.23" ry="4.797"/>
			
				<ellipse transform="matrix(-0.8189 -0.5739 0.5739 -0.8189 373.6806 295.5546)" fill="none" stroke="#FF0000" stroke-width="0.25" stroke-miterlimit="10" cx="233.467" cy="88.826" rx="6.23" ry="4.796"/>
			
				<ellipse transform="matrix(-0.819 -0.5738 0.5738 -0.819 409.2451 268.5842)" fill="none" stroke="#FF0000" stroke-width="0.25" stroke-miterlimit="10" cx="246.983" cy="69.747" rx="6.523" ry="4.796"/>
			
				<ellipse transform="matrix(-0.4467 -0.8947 0.8947 -0.4467 357.4804 454.3895)" fill="none" stroke="#FF0000" stroke-width="0.25" stroke-miterlimit="10" cx="319.25" cy="116.652" rx="5.762" ry="3.897"/>
			
				<ellipse transform="matrix(-0.4465 -0.8948 0.8948 -0.4465 375.5664 480.4885)" fill="none" stroke="#FF0000" stroke-width="0.25" stroke-miterlimit="10" cx="336.395" cy="124.084" rx="5.483" ry="3.68"/>
			
				<ellipse transform="matrix(-0.4466 -0.8947 0.8947 -0.4466 370.4017 519.6726)" fill="none" stroke="#FF0000" stroke-width="0.25" stroke-miterlimit="10" cx="345.913" cy="145.287" rx="6.295" ry="3.912"/>
			
				<ellipse transform="matrix(-0.4465 -0.8948 0.8948 -0.4465 326.0202 539.9526)" fill="none" stroke="#FF0000" stroke-width="0.25" stroke-miterlimit="10" cx="330.02" cy="169.137" rx="6.294" ry="3.913"/>
			
				<ellipse fill="none" stroke="#FF0000" stroke-width="0.25" stroke-miterlimit="10" cx="248.875" cy="175.791" rx="7.125" ry="3.709"/>
			
				<ellipse fill="none" stroke="#FF0000" stroke-width="0.25" stroke-miterlimit="10" cx="235.531" cy="149.041" rx="6.844" ry="3.709"/>
			
				<ellipse fill="none" stroke="#FF0000" stroke-width="0.25" stroke-miterlimit="10" cx="188.24" cy="155.624" rx="6.844" ry="3.709"/>
			
				<ellipse fill="none" stroke="#FF0000" stroke-width="0.25" stroke-miterlimit="10" cx="198.667" cy="183.124" rx="7.292" ry="3.709"/>
			
				<ellipse transform="matrix(-0.9508 0.3098 -0.3098 -0.9508 250.7924 355.8242)" fill="none" stroke="#FF0000" stroke-width="0.25" stroke-miterlimit="10" cx="97.146" cy="197.823" rx="7.292" ry="4.703"/>
			
				<ellipse transform="matrix(-0.9187 0.3949 -0.3949 -0.9187 362.46 339.2738)" fill="none" stroke="#FF0000" stroke-width="0.25" stroke-miterlimit="10" cx="146.316" cy="206.937" rx="7.09" ry="4.523"/>
			
				<ellipse transform="matrix(-0.9095 0.4158 -0.4158 -0.9095 396.2097 255.9826)" fill="none" stroke="#FF0000" stroke-width="0.25" stroke-miterlimit="10" cx="170.236" cy="171.127" rx="6.391" ry="4.355"/>
			
				<ellipse transform="matrix(-0.9597 0.2811 -0.2811 -0.9597 286.2245 286.8416)" fill="none" stroke="#FF0000" stroke-width="0.25" stroke-miterlimit="10" cx="122.541" cy="163.948" rx="6.391" ry="4.01"/>
			
				<ellipse transform="matrix(-0.965 0.2624 -0.2624 -0.965 311.1185 330.7719)" fill="none" stroke="#FF0000" stroke-width="0.25" stroke-miterlimit="10" cx="133.475" cy="186.158" rx="49.43" ry="30.336"/>
			
				<ellipse transform="matrix(-0.9981 0.062 -0.062 -0.9981 445.184 310.0858)" fill="none" stroke="#FF0000" stroke-width="0.25" stroke-miterlimit="10" cx="217.781" cy="161.949" rx="22.117" ry="12.15"/>
			
				<ellipse transform="matrix(-0.828 -0.5608 0.5608 -0.828 429.4648 336.0592)" fill="none" stroke="#FF0000" stroke-width="0.25" stroke-miterlimit="10" cx="266.279" cy="102.156" rx="25.632" ry="20.807"/>
			
				<ellipse transform="matrix(-0.965 0.2624 -0.2624 -0.965 309.2752 322.8233)" fill="none" stroke="#FF0000" stroke-width="0.25" stroke-miterlimit="10" cx="133.086" cy="182.059" rx="20.964" ry="12.306"/>
		</g>
	</g>
	<g id="图层_2_1_">
		
			<ellipse transform="matrix(-0.0138 -0.9999 0.9999 -0.0138 53.2754 386.8722)" fill="none" stroke="#FF0000" stroke-miterlimit="10" cx="217.422" cy="167.164" rx="27.167" ry="48.251"/>
		
			<ellipse transform="matrix(-0.4569 -0.8895 0.8895 -0.4569 308.4232 495.0079)" fill="none" stroke="#FF0000" stroke-miterlimit="10" cx="305.334" cy="153.344" rx="8.624" ry="5.812"/>
		
			<ellipse transform="matrix(-0.4186 -0.9082 0.9082 -0.4186 303.5535 478.7969)" fill="none" stroke="#FF0000" stroke-width="0.25" stroke-miterlimit="10" cx="305.042" cy="142.229" rx="6.75" ry="4.098"/>
		
			<ellipse transform="matrix(-0.4954 -0.8687 0.8687 -0.4954 216.222 301.1691)" fill="none" stroke="#FF0000" stroke-width="0.25" stroke-miterlimit="10" cx="195.585" cy="87.783" rx="14.756" ry="17.489"/>
		
			<ellipse transform="matrix(-0.5553 -0.8317 0.8317 -0.5553 230.5836 297.388)" fill="none" stroke="#FF0000" stroke-width="0.25" stroke-miterlimit="10" cx="194.803" cy="87.044" rx="22.757" ry="26.209"/>
		
			<ellipse transform="matrix(-0.5746 -0.8184 0.8184 -0.5746 235.2414 293.5476)" fill="none" stroke="#FF0000" stroke-width="0.25" stroke-miterlimit="10" cx="193.908" cy="85.639" rx="40.396" ry="47.147"/>
		
			<ellipse transform="matrix(-0.6113 -0.7914 0.7914 -0.6113 65.3792 248.6359)" fill="none" stroke="#FF0000" stroke-width="0.25" stroke-miterlimit="10" cx="93.749" cy="108.262" rx="22.829" ry="26.832"/>
		
			<ellipse transform="matrix(-0.6291 -0.7773 0.7773 -0.6291 68.836 247.7531)" fill="none" stroke="#FF0000" stroke-width="0.25" stroke-miterlimit="10" cx="93.524" cy="107.454" rx="33.581" ry="39.454"/>
		
			<ellipse transform="matrix(-0.5705 -0.8213 0.8213 -0.5705 56.7343 236.4873)" fill="none" stroke="#FF0000" stroke-width="0.25" stroke-miterlimit="10" cx="90.203" cy="103.409" rx="56.907" ry="66.442"/>
	</g>
</g>
<g id="图层_2_2_">
	
		<ellipse transform="matrix(0.867 -0.4984 0.4984 0.867 -27.9026 181.2807)" fill="none" stroke="#FF0000" stroke-miterlimit="10" cx="325.601" cy="142.904" rx="26.142" ry="39.329"/>
	
		<ellipse transform="matrix(0.7838 0.621 -0.621 0.7838 119.4454 -145.4132)" fill="none" stroke="#FF0000" stroke-miterlimit="10" cx="268.573" cy="98.847" rx="48.367" ry="40.8"/>
	
		<ellipse transform="matrix(0.839 0.5442 -0.5442 0.839 109.7556 -146.0714)" fill="none" stroke="#FF0000" stroke-miterlimit="10" cx="301.687" cy="112.412" rx="5.139" ry="4.375"/>
</g>
</svg>
