<?xml version="1.0" encoding="utf-8"?>
<!-- Generator: Adobe Illustrator 16.0.0, SVG Export Plug-In . SVG Version: 6.00 Build 0)  -->
<!DOCTYPE svg PUBLIC "-//W3C//DTD SVG 1.1 Tiny//EN" "http://www.w3.org/Graphics/SVG/1.1/DTD/svg11-tiny.dtd">
<svg version="1.1" baseProfile="tiny" xmlns="http://www.w3.org/2000/svg" xmlns:xlink="http://www.w3.org/1999/xlink" x="0px"
	 y="0px" width="317px" height="233px" viewBox="0 0 317 233" xml:space="preserve">
<g id="图层_1">
	<g id="图层_1_1_">
		<image width="317" height="233" xlink:href="../x/046.jpg"  transform="matrix(1 0 0 1 -4.882813e-004 0)">
		</image>
	</g>
	<g id="图层_2">
		
			<ellipse transform="matrix(0.2428 -0.9701 0.9701 0.2428 0.6851 167.8851)" fill="none" stroke="#FF0000" stroke-width="0.25" stroke-miterlimit="10" cx="107.884" cy="83.504" rx="33.804" ry="23.945"/>
		
			<ellipse transform="matrix(0.1966 -0.9805 0.9805 0.1966 2.5656 166.7727)" fill="none" stroke="#FF0000" stroke-width="0.25" stroke-miterlimit="10" cx="103.049" cy="81.821" rx="69.547" ry="51.359"/>
		
			<ellipse transform="matrix(0.2772 -0.9608 0.9608 0.2772 34.768 113.8362)" fill="none" stroke="#FF0000" stroke-width="0.25" stroke-miterlimit="10" cx="93.045" cy="33.81" rx="9.643" ry="7.681"/>
		
			<ellipse transform="matrix(0.2285 -0.9735 0.9735 0.2285 63.2786 146.4342)" fill="none" stroke="#FF0000" stroke-width="0.25" stroke-miterlimit="10" cx="124.029" cy="33.293" rx="9.644" ry="7.314"/>
		
			<ellipse transform="matrix(0.2285 -0.9735 0.9735 0.2285 51.6258 185.97)" fill="none" stroke="#FF0000" stroke-width="0.25" stroke-miterlimit="10" cx="143.146" cy="60.413" rx="9.158" ry="6.844"/>
		
			<ellipse transform="matrix(0.2285 -0.9735 0.9735 0.2285 13.1535 214.1765)" fill="none" stroke="#FF0000" stroke-width="0.25" stroke-miterlimit="10" cx="141.707" cy="98.789" rx="9.158" ry="6.844"/>
		
			<ellipse transform="matrix(0.2285 -0.9735 0.9735 0.2285 -32.2826 216.9953)" fill="none" stroke="#FF0000" stroke-width="0.25" stroke-miterlimit="10" cx="120.768" cy="128.866" rx="9.428" ry="6.844"/>
		
			<ellipse transform="matrix(0.2285 -0.9735 0.9735 0.2285 -61.0122 192.0209)" fill="none" stroke="#FF0000" stroke-width="0.25" stroke-miterlimit="10" cx="90.65" cy="134.506" rx="9.663" ry="7.335"/>
		
			<ellipse transform="matrix(0.2468 -0.9691 0.9691 0.2468 -54.0864 147.8187)" fill="none" stroke="#FF0000" stroke-width="0.25" stroke-miterlimit="10" cx="68.046" cy="108.702" rx="9.806" ry="7.675"/>
		
			<ellipse transform="matrix(0.2889 -0.9574 0.9574 0.2889 -14.1023 112.6468)" fill="none" stroke="#FF0000" stroke-width="0.25" stroke-miterlimit="10" cx="68.777" cy="65.816" rx="9.99" ry="7.894"/>
		
			<ellipse transform="matrix(0.2889 -0.9574 0.9574 0.2889 -7.6678 74.1081)" fill="none" stroke="#FF0000" stroke-width="0.25" stroke-miterlimit="10" cx="46.051" cy="42.216" rx="6.23" ry="4.923"/>
		
			<ellipse transform="matrix(0.2889 -0.9574 0.9574 0.2889 -37.441 73.0046)" fill="none" stroke="#FF0000" stroke-width="0.25" stroke-miterlimit="10" cx="30.421" cy="61.705" rx="5.784" ry="4.923"/>
		
			<ellipse transform="matrix(0.2889 -0.9574 0.9574 0.2889 -62.2652 91.5034)" fill="none" stroke="#FF0000" stroke-width="0.25" stroke-miterlimit="10" cx="30.461" cy="87.665" rx="5.784" ry="4.923"/>
		
			<ellipse transform="matrix(0.1915 -0.9815 0.9815 0.1915 -23.9138 117.2249)" fill="none" stroke="#FF0000" stroke-width="0.25" stroke-miterlimit="10" cx="59.196" cy="73.128" rx="46.333" ry="41.476"/>
		
			<ellipse transform="matrix(-0.3531 -0.9356 0.9356 -0.3531 74.4481 374.2456)" fill="none" stroke="#FF0000" stroke-width="0.25" stroke-miterlimit="10" cx="166.612" cy="161.384" rx="18.075" ry="23.427"/>
		
			<ellipse transform="matrix(-0.3408 -0.9401 0.9401 -0.3408 70.4848 373.958)" fill="none" stroke="#FF0000" stroke-width="0.25" stroke-miterlimit="10" cx="166.346" cy="162.268" rx="22.219" ry="31.369"/>
		
			<ellipse transform="matrix(-0.4798 -0.8774 0.8774 -0.4798 73.1946 333.2852)" fill="none" stroke="#FF0000" stroke-width="0.25" stroke-miterlimit="10" cx="135.403" cy="144.943" rx="5.015" ry="7.236"/>
		
			<ellipse transform="matrix(-0.4798 -0.8774 0.8774 -0.4798 173.0386 371.2318)" fill="none" stroke="#FF0000" stroke-width="0.25" stroke-miterlimit="10" cx="196.576" cy="134.316" rx="5.694" ry="7.538"/>
		
			<ellipse transform="matrix(-0.4798 -0.8774 0.8774 -0.4798 137.0922 449.532)" fill="none" stroke="#FF0000" stroke-width="0.25" stroke-miterlimit="10" cx="201.805" cy="184.126" rx="6.532" ry="7.91"/>
		
			<ellipse transform="matrix(-0.4798 -0.8774 0.8774 -0.4798 30.9571 407.3594)" fill="none" stroke="#FF0000" stroke-width="0.25" stroke-miterlimit="10" cx="136.24" cy="194.502" rx="6.532" ry="7.91"/>
		<ellipse fill="none" stroke="#FF0000" stroke-width="0.25" stroke-miterlimit="10" cx="224.25" cy="110.5" rx="8" ry="5"/>
		
			<ellipse transform="matrix(0.066 -0.9978 0.9978 0.066 137.8678 364.4522)" fill="none" stroke="#FF0000" stroke-width="0.25" stroke-miterlimit="10" cx="263.617" cy="108.58" rx="4.999" ry="8.553"/>
		
			<ellipse transform="matrix(0.0286 -0.9996 0.9996 0.0286 112.165 264.4624)" fill="none" stroke="#FF0000" stroke-width="0.25" stroke-miterlimit="10" cx="192.145" cy="74.524" rx="4.857" ry="7.883"/>
		
			<ellipse transform="matrix(0.0286 -0.9996 0.9996 0.0286 132.7491 227.5117)" fill="none" stroke="#FF0000" stroke-width="0.25" stroke-miterlimit="10" cx="183.432" cy="45.455" rx="3.67" ry="5.867"/>
		
			<ellipse transform="matrix(-0.0393 -0.9992 0.9992 -0.0393 115.3582 224.3788)" fill="none" stroke="#FF0000" stroke-width="0.25" stroke-miterlimit="10" cx="165.543" cy="56.734" rx="3.479" ry="5.62"/>
		
			<ellipse transform="matrix(-0.0392 -0.9992 0.9992 -0.0392 156.8069 215.6256)" fill="none" stroke="#FF0000" stroke-width="0.25" stroke-miterlimit="10" cx="182.074" cy="32.422" rx="3.479" ry="5.618"/>
		
			<ellipse transform="matrix(-0.0393 -0.9992 0.9992 -0.0393 145.0275 187.8641)" fill="none" stroke="#FF0000" stroke-width="0.25" stroke-miterlimit="10" cx="162.824" cy="24.214" rx="3.479" ry="5.619"/>
		
			<ellipse fill="none" stroke="#FF0000" stroke-width="0.25" stroke-miterlimit="10" cx="239.25" cy="50.125" rx="25.125" ry="12.875"/>
		
			<ellipse transform="matrix(0.0135 -0.9999 0.9999 0.0135 150.5648 320.8378)" fill="none" stroke="#FF0000" stroke-width="0.25" stroke-miterlimit="10" cx="237.876" cy="84.116" rx="17.625" ry="34.125"/>
		
			<ellipse transform="matrix(0.0288 -0.9996 0.9996 0.0288 93.5797 286.1929)" fill="none" stroke="#FF0000" stroke-width="0.25" stroke-miterlimit="10" cx="194.062" cy="94.941" rx="4.857" ry="7.883"/>
		
			<ellipse transform="matrix(0.066 -0.9978 0.9978 0.066 176.8104 371.058)" fill="none" stroke="#FF0000" stroke-width="0.25" stroke-miterlimit="10" cx="286.617" cy="91.08" rx="4.999" ry="8.552"/>
		
			<ellipse transform="matrix(0.0504 -0.9987 0.9987 0.0504 194.7898 345.7759)" fill="none" stroke="#FF0000" stroke-width="0.25" stroke-miterlimit="10" cx="279.228" cy="70.454" rx="4.999" ry="7.6"/>
	</g>
</g>
<g id="图层_2_1_">
	
		<ellipse transform="matrix(0.9468 -0.3218 0.3218 0.9468 -44.5648 63.0291)" fill="none" stroke="#FF0000" stroke-miterlimit="10" cx="168.357" cy="166.307" rx="58.049" ry="44.264"/>
	
		<ellipse transform="matrix(0.9992 0.0393 -0.0393 0.9992 3.5624 -9.315)" fill="none" stroke="#FF0000" stroke-miterlimit="10" cx="238.456" cy="85.856" rx="65.164" ry="37.109"/>
	
		<ellipse transform="matrix(0.9988 -0.0491 0.0491 0.9988 -1.8809 7.3469)" fill="none" stroke="#FF0000" stroke-miterlimit="10" cx="148.535" cy="41.941" rx="48.369" ry="22.999"/>
	
		<ellipse transform="matrix(0.9968 -0.0802 0.0802 0.9968 -2.5777 12.1417)" fill="none" stroke="#FF0000" stroke-miterlimit="10" cx="149.864" cy="38.16" rx="17.367" ry="8.25"/>
	
		<ellipse transform="matrix(0.982 0.189 -0.189 0.982 17.8666 -18.8235)" fill="none" stroke="#FF0000" stroke-miterlimit="10" cx="107.634" cy="84.271" rx="30.096" ry="40.304"/>
</g>
</svg>
