<?xml version="1.0" encoding="utf-8"?>
<!-- Generator: Adobe Illustrator 16.0.0, SVG Export Plug-In . SVG Version: 6.00 Build 0)  -->
<!DOCTYPE svg PUBLIC "-//W3C//DTD SVG 1.1 Tiny//EN" "http://www.w3.org/Graphics/SVG/1.1/DTD/svg11-tiny.dtd">
<svg version="1.1" baseProfile="tiny" xmlns="http://www.w3.org/2000/svg" xmlns:xlink="http://www.w3.org/1999/xlink" x="0px"
	 y="0px" width="500px" height="338px" viewBox="0 0 500 338" xml:space="preserve">
<g id="图层_1">
	<g id="图层_1_1_">
		<image width="500" height="338" xlink:href="../x/047.jpg"  transform="matrix(1 0 0 1 -2.441406e-004 2.441406e-004)">
		</image>
	</g>
	<g id="图层_2">
		
			<ellipse transform="matrix(0.3632 -0.9317 0.9317 0.3632 -105.005 248.6328)" fill="none" stroke="#FF0000" stroke-width="0.25" stroke-miterlimit="10" cx="129.386" cy="201.134" rx="25.183" ry="23.123"/>
		
			<ellipse transform="matrix(0.3632 -0.9317 0.9317 0.3632 -106.3352 250.1578)" fill="none" stroke="#FF0000" stroke-width="0.25" stroke-miterlimit="10" cx="129.838" cy="202.869" rx="54.463" ry="50.828"/>
		
			<ellipse transform="matrix(0.3632 -0.9317 0.9317 0.3632 -105.242 252.7192)" fill="none" stroke="#FF0000" stroke-width="0.25" stroke-miterlimit="10" cx="132.258" cy="203.35" rx="56.43" ry="54.095"/>
		
			<ellipse transform="matrix(0.3632 -0.9317 0.9317 0.3632 -123.8391 341.6274)" fill="none" stroke="#FF0000" stroke-width="0.25" stroke-miterlimit="10" cx="188.001" cy="261.409" rx="19.869" ry="18.219"/>
		
			<ellipse transform="matrix(0.1551 -0.9879 0.9879 0.1551 -199.1972 291.5238)" fill="none" stroke="#FF0000" stroke-width="0.25" stroke-miterlimit="10" cx="70.833" cy="262.217" rx="19.626" ry="17.546"/>
		
			<ellipse transform="matrix(0.1551 -0.9879 0.9879 0.1551 -81.8492 200.3379)" fill="none" stroke="#FF0000" stroke-width="0.25" stroke-miterlimit="10" cx="76.198" cy="148.02" rx="19.074" ry="16.571"/>
		
			<ellipse transform="matrix(0.1552 -0.9879 0.9879 0.1552 16.9846 309.5221)" fill="none" stroke="#FF0000" stroke-width="0.25" stroke-miterlimit="10" cx="189.467" cy="144.83" rx="19.042" ry="18.021"/>
		
			<ellipse transform="matrix(0.6875 -0.7262 0.7262 0.6875 -8.3609 321.4897)" fill="none" stroke="#FF0000" stroke-width="0.25" stroke-miterlimit="10" cx="369.353" cy="170.459" rx="27.333" ry="28.173"/>
		
			<ellipse transform="matrix(0.6875 -0.7262 0.7262 0.6875 -0.1057 377.5185)" fill="none" stroke="#FF0000" stroke-width="0.25" stroke-miterlimit="10" cx="438.584" cy="188.882" rx="19.123" ry="20.894"/>
		
			<ellipse transform="matrix(0.6875 -0.7262 0.7262 0.6875 42.9063 307.2974)" fill="none" stroke="#FF0000" stroke-width="0.25" stroke-miterlimit="10" cx="378.497" cy="103.797" rx="18.638" ry="20.314"/>
		
			<ellipse transform="matrix(0.1552 -0.9879 0.9879 0.1552 74.8955 304.1224)" fill="none" stroke="#FF0000" stroke-width="0.25" stroke-miterlimit="10" cx="215.264" cy="108.271" rx="20.997" ry="23.782"/>
		
			<ellipse transform="matrix(0.1551 -0.9879 0.9879 0.1551 150.6042 263.7012)" fill="none" stroke="#FF0000" stroke-width="0.25" stroke-miterlimit="10" cx="229.466" cy="43.805" rx="15.588" ry="17.006"/>
		
			<ellipse transform="matrix(0.1551 -0.9879 0.9879 0.1551 22.3924 219.1626)" fill="none" stroke="#FF0000" stroke-width="0.25" stroke-miterlimit="10" cx="139.326" cy="96.49" rx="14.688" ry="16.383"/>
	</g>
</g>
<g id="图层_2_1_">
	<ellipse fill="none" stroke="#FF0000" stroke-miterlimit="10" cx="357.167" cy="243.749" rx="21.167" ry="21.751"/>
	
		<ellipse transform="matrix(0.9596 0.2814 -0.2814 0.9596 54.8487 -76.9109)" fill="none" stroke="#FF0000" stroke-miterlimit="10" cx="295.24" cy="152.536" rx="20.96" ry="20.601"/>
	
		<ellipse transform="matrix(0.7812 0.6243 -0.6243 0.7812 187.2112 -193.407)" fill="none" stroke="#FF0000" stroke-miterlimit="10" cx="369.491" cy="170.344" rx="45.343" ry="40.566"/>
	
		<ellipse transform="matrix(0.7639 -0.6454 0.6454 0.7639 -27.0335 276.6197)" fill="none" stroke="#FF0000" stroke-miterlimit="10" cx="364.502" cy="175.253" rx="99.137" ry="110.874"/>
	<ellipse fill="none" stroke="#FF0000" stroke-miterlimit="10" cx="214.166" cy="108.5" rx="54.667" ry="49"/>
	<ellipse fill="none" stroke="#FF0000" stroke-miterlimit="10" cx="213.5" cy="115.75" rx="114" ry="103.25"/>
	
		<ellipse transform="matrix(0.6778 -0.7352 0.7352 0.6778 -109.296 163.956)" fill="none" stroke="#FF0000" stroke-miterlimit="10" cx="132.436" cy="206.692" rx="119.167" ry="112.001"/>
</g>
</svg>
