<?xml version="1.0" encoding="iso-8859-1"?>
<!-- Generator: Adobe Illustrator 16.0.0, SVG Export Plug-In . SVG Version: 6.00 Build 0)  -->
<!DOCTYPE svg PUBLIC "-//W3C//DTD SVG 1.1//EN" "http://www.w3.org/Graphics/SVG/1.1/DTD/svg11.dtd">
<svg version="1.1" xmlns="http://www.w3.org/2000/svg" xmlns:xlink="http://www.w3.org/1999/xlink" x="0px" y="0px" width="550px"
	 height="446px" viewBox="0 0 550 446" style="enable-background:new 0 0 550 446;" xml:space="preserve">
<g id="&#x56FE;&#x5C42;_1">
	<image style="overflow:visible;" width="550" height="446" xlink:href="../x/049.jpg" >
	</image>
</g>
<g id="&#x56FE;&#x5C42;_2">
	
		<ellipse transform="matrix(0.9448 0.3275 -0.3275 0.9448 144.5221 -105.1211)" style="fill:none;stroke:#FF0000;stroke-width:0.25;stroke-miterlimit:10;" cx="384.359" cy="376.517" rx="14.602" ry="12.311"/>
	
		<ellipse transform="matrix(0.8779 0.4788 -0.4788 0.8779 208.1942 -150.5813)" style="fill:none;stroke:#FF0000;stroke-width:0.25;stroke-miterlimit:10;" cx="399.396" cy="332.991" rx="14.602" ry="11.71"/>
	
		<ellipse transform="matrix(0.8779 0.4788 -0.4788 0.8779 190.6196 -161.9984)" style="fill:none;stroke:#FF0000;stroke-width:0.25;stroke-miterlimit:10;" cx="412.985" cy="292.801" rx="14.19" ry="10.769"/>
	
		<ellipse transform="matrix(0.8779 0.4788 -0.4788 0.8779 174.3271 -172.6202)" style="fill:none;stroke:#FF0000;stroke-width:0.25;stroke-miterlimit:10;" cx="425.664" cy="255.537" rx="13.049" ry="10.008"/>
	
		<ellipse transform="matrix(0.8779 0.4788 -0.4788 0.8779 159.2193 -182.276)" style="fill:none;stroke:#FF0000;stroke-width:0.25;stroke-miterlimit:10;" cx="437.069" cy="221.105" rx="13.048" ry="9.504"/>
	
		<ellipse transform="matrix(0.9317 0.3633 -0.3633 0.9317 99.0168 -149.8063)" style="fill:none;stroke:#FF0000;stroke-width:0.25;stroke-miterlimit:10;" cx="447.727" cy="188.305" rx="12.884" ry="9.338"/>
	
		<ellipse transform="matrix(0.995 -0.0996 0.0996 0.995 -18.5023 10.099)" style="fill:none;stroke:#FF0000;stroke-width:0.25;stroke-miterlimit:10;" cx="91.925" cy="190.414" rx="13.599" ry="10.607"/>
	
		<ellipse transform="matrix(0.995 -0.0996 0.0996 0.995 -15.0055 12.7622)" style="fill:none;stroke:#FF0000;stroke-width:0.25;stroke-miterlimit:10;" cx="120.362" cy="156.722" rx="12.884" ry="9.681"/>
	
		<ellipse transform="matrix(0.995 -0.0996 0.0996 0.995 -11.8225 15.2159)" style="fill:none;stroke:#FF0000;stroke-width:0.25;stroke-miterlimit:10;" cx="146.54" cy="126.06" rx="12.293" ry="9.116"/>
	
		<ellipse transform="matrix(0.995 -0.0996 0.0996 0.995 -8.8489 17.4599)" style="fill:none;stroke:#FF0000;stroke-width:0.25;stroke-miterlimit:10;" cx="170.501" cy="97.384" rx="11.799" ry="8.59"/>
	
		<ellipse transform="matrix(0.9989 -0.0467 0.0467 0.9989 -3.1245 9.0843)" style="fill:none;stroke:#FF0000;stroke-width:0.25;stroke-miterlimit:10;" cx="192.714" cy="71.362" rx="11.456" ry="8.142"/>
	
		<ellipse transform="matrix(0.9997 -0.0252 0.0252 0.9997 -1.1192 5.3826)" style="fill:none;stroke:#FF0000;stroke-width:0.25;stroke-miterlimit:10;" cx="213.094" cy="47.116" rx="11.602" ry="7.741"/>
</g>
</svg>
