<?xml version="1.0" encoding="utf-8"?>
<!-- Generator: Adobe Illustrator 16.0.0, SVG Export Plug-In . SVG Version: 6.00 Build 0)  -->
<!DOCTYPE svg PUBLIC "-//W3C//DTD SVG 1.1 Tiny//EN" "http://www.w3.org/Graphics/SVG/1.1/DTD/svg11-tiny.dtd">
<svg version="1.1" baseProfile="tiny" xmlns="http://www.w3.org/2000/svg" xmlns:xlink="http://www.w3.org/1999/xlink" x="0px"
	 y="0px" width="674px" height="467px" viewBox="0 0 674 467" xml:space="preserve">
<g id="图层_1">
	<g id="图层_1_1_">
		<image width="674" height="467" xlink:href="../x/051.jpg"  transform="matrix(1 0 0 1 -2.441406e-004 2.441406e-004)">
		</image>
	</g>
	<g id="图层_2">
		
			<ellipse fill="none" stroke="#FF0000" stroke-width="0.25" stroke-miterlimit="10" cx="138.125" cy="341.25" rx="29.375" ry="27.75"/>
		
			<ellipse fill="none" stroke="#FF0000" stroke-width="0.25" stroke-miterlimit="10" cx="138.125" cy="342.213" rx="52.125" ry="51.787"/>
		
			<ellipse transform="matrix(-0.6806 -0.7327 0.7327 -0.6806 -85.7231 522.8244)" fill="none" stroke="#FF0000" stroke-width="0.25" stroke-miterlimit="10" cx="71.105" cy="280.098" rx="20.386" ry="19.751"/>
		
			<ellipse fill="none" stroke="#FF0000" stroke-width="0.25" stroke-miterlimit="10" cx="78.979" cy="406.5" rx="19.604" ry="19.25"/>
		
			<ellipse transform="matrix(0.6643 -0.7475 0.7475 0.6643 -233.6316 289.5988)" fill="none" stroke="#FF0000" stroke-width="0.25" stroke-miterlimit="10" cx="205.583" cy="404.892" rx="19.872" ry="20.251"/>
		
			<ellipse fill="none" stroke="#FF0000" stroke-width="0.25" stroke-miterlimit="10" cx="200.938" cy="278.381" rx="20.063" ry="20.13"/>
		
			<ellipse fill="none" stroke="#FF0000" stroke-width="0.25" stroke-miterlimit="10" cx="387.125" cy="403.308" rx="19.375" ry="19.692"/>
		
			<ellipse fill="none" stroke="#FF0000" stroke-width="0.25" stroke-miterlimit="10" cx="516.168" cy="403.771" rx="19.832" ry="19.905"/>
		
			<ellipse fill="none" stroke="#FF0000" stroke-width="0.25" stroke-miterlimit="10" cx="452.563" cy="340.438" rx="30.688" ry="29.813"/>
		
			<ellipse fill="none" stroke="#FF0000" stroke-width="0.25" stroke-miterlimit="10" cx="452.625" cy="340.751" rx="52.375" ry="51.749"/>
		
			<ellipse fill="none" stroke="#FF0000" stroke-width="0.25" stroke-miterlimit="10" cx="452.25" cy="340.375" rx="38" ry="37.375"/>
		
			<ellipse fill="none" stroke="#FF0000" stroke-width="0.25" stroke-miterlimit="10" cx="389.25" cy="275.438" rx="19.75" ry="19.822"/>
		
			<ellipse fill="none" stroke="#FF0000" stroke-width="0.25" stroke-miterlimit="10" cx="520.646" cy="277.484" rx="19.813" ry="19.683"/>
		
			<ellipse fill="none" stroke="#FF0000" stroke-width="0.25" stroke-miterlimit="10" cx="324.5" cy="287.063" rx="18.375" ry="11.688"/>
		
			<ellipse fill="none" stroke="#FF0000" stroke-width="0.25" stroke-miterlimit="10" cx="321.313" cy="189.125" rx="20.563" ry="13.25"/>
		
			<ellipse transform="matrix(0.1148 -0.9934 0.9934 0.1148 -54.6742 320.1447)" fill="none" stroke="#FF0000" stroke-width="0.25" stroke-miterlimit="10" cx="152.3" cy="190.751" rx="12.84" ry="20.292"/>
		
			<ellipse transform="matrix(0.093 -0.9957 0.9957 0.093 -80.9797 171.6665)" fill="none" stroke="#FF0000" stroke-width="0.25" stroke-miterlimit="10" cx="53.734" cy="130.281" rx="13.647" ry="20.293"/>
		
			<ellipse transform="matrix(0.093 -0.9957 0.9957 0.093 -156.628 285.7988)" fill="none" stroke="#FF0000" stroke-width="0.25" stroke-miterlimit="10" cx="78.553" cy="228.868" rx="11.94" ry="17.166"/>
		
			<ellipse fill="none" stroke="#FF0000" stroke-width="0.25" stroke-miterlimit="10" cx="138.167" cy="341.854" rx="38.667" ry="37.688"/>
		
			<ellipse transform="matrix(-0.0551 -0.9985 0.9985 -0.0551 320.0504 891.7377)" fill="none" stroke="#FF0000" stroke-width="0.25" stroke-miterlimit="10" cx="581.965" cy="294.432" rx="14.416" ry="22.876"/>
		
			<ellipse transform="matrix(-0.0749 -0.9972 0.9972 -0.0749 473.2104 803.2621)" fill="none" stroke="#FF0000" stroke-width="0.25" stroke-miterlimit="10" cx="609.198" cy="182.133" rx="16.674" ry="25.034"/>
		
			<ellipse transform="matrix(-0.0115 -0.9999 0.9999 -0.0115 274.9706 741.0015)" fill="none" stroke="#FF0000" stroke-width="0.25" stroke-miterlimit="10" cx="503.748" cy="234.588" rx="52.374" ry="85.251"/>
		
			<ellipse transform="matrix(-0.0115 -0.9999 0.9999 -0.0115 286.811 725.7246)" fill="none" stroke="#FF0000" stroke-width="0.25" stroke-miterlimit="10" cx="502.118" cy="221.097" rx="38.377" ry="62.873"/>
		
			<ellipse transform="matrix(-0.0479 -0.9989 0.9989 -0.0479 217.0691 409.0792)" fill="none" stroke="#FF0000" stroke-width="0.25" stroke-miterlimit="10" cx="303.502" cy="101.084" rx="16.568" ry="26.055"/>
		
			<ellipse transform="matrix(0.0203 -0.9998 0.9998 0.0203 -5.7576 478.947)" fill="none" stroke="#FF0000" stroke-width="0.25" stroke-miterlimit="10" cx="241.508" cy="242.411" rx="43.834" ry="71.251"/>
	</g>
</g>
<g id="图层_2_1_">
	
		<ellipse fill="none" stroke="#FF4200" stroke-width="0.25" stroke-miterlimit="10" cx="416.5" cy="174.083" rx="27.667" ry="16.917"/>
	
		<ellipse transform="matrix(0.9963 0.086 -0.086 0.9963 21.6792 -19.9713)" fill="none" stroke="#FF4200" stroke-width="0.25" stroke-miterlimit="10" cx="242.619" cy="241.615" rx="46.793" ry="28.342"/>
	
		<ellipse transform="matrix(0.9965 0.0833 -0.0833 0.9965 20.9194 -19.3375)" fill="none" stroke="#FF4200" stroke-width="0.25" stroke-miterlimit="10" cx="242.157" cy="240.982" rx="55.319" ry="34.993"/>
</g>
</svg>
