<?xml version="1.0" encoding="utf-8"?>
<!-- Generator: Adobe Illustrator 16.0.0, SVG Export Plug-In . SVG Version: 6.00 Build 0)  -->
<!DOCTYPE svg PUBLIC "-//W3C//DTD SVG 1.1 Tiny//EN" "http://www.w3.org/Graphics/SVG/1.1/DTD/svg11-tiny.dtd">
<svg version="1.1" baseProfile="tiny" xmlns="http://www.w3.org/2000/svg" xmlns:xlink="http://www.w3.org/1999/xlink" x="0px"
	 y="0px" width="664px" height="387px" viewBox="0 0 664 387" xml:space="preserve">
<g id="图层_1">
	<g id="图层_1_1_">
		<image width="664" height="387" xlink:href="../x/052.jpg"  transform="matrix(1 0 0 1 -2.441406e-004 2.441406e-004)">
		</image>
	</g>
	<g id="图层_2">
		
			<ellipse transform="matrix(-0.3369 -0.9415 0.9415 -0.3369 145.208 294.7327)" fill="none" stroke="#FF0000" stroke-width="0.25" stroke-miterlimit="10" cx="176.388" cy="96.234" rx="23.884" ry="38.405"/>
		
			<ellipse transform="matrix(-0.3434 -0.9392 0.9392 -0.3434 145.4416 296.77)" fill="none" stroke="#FF0000" stroke-width="0.25" stroke-miterlimit="10" cx="176.459" cy="97.545" rx="35.919" ry="58.572"/>
		
			<ellipse transform="matrix(-0.3642 -0.9313 0.9313 -0.3642 118.8102 421.2368)" fill="none" stroke="#FF0000" stroke-width="0.25" stroke-miterlimit="10" cx="203.194" cy="170.063" rx="17.755" ry="24.85"/>
		
			<ellipse transform="matrix(-0.4198 -0.9076 0.9076 -0.4198 -26.2848 251.584)" fill="none" stroke="#FF0000" stroke-width="0.25" stroke-miterlimit="10" cx="67.273" cy="134.194" rx="13.514" ry="21.961"/>
		
			<ellipse transform="matrix(-0.3124 -0.95 0.95 -0.3124 169.1708 194.4423)" fill="none" stroke="#FF0000" stroke-width="0.25" stroke-miterlimit="10" cx="154.957" cy="35.996" rx="11.216" ry="20.031"/>
		
			<ellipse transform="matrix(-0.234 -0.9722 0.9722 -0.234 288.8088 346.2669)" fill="none" stroke="#FF0000" stroke-width="0.25" stroke-miterlimit="10" cx="280.809" cy="59.363" rx="13.299" ry="20.677"/>
	</g>
</g>
<g id="图层_2_1_">
	
		<ellipse fill="none" stroke="#FF4200" stroke-width="0.25" stroke-miterlimit="10" cx="425.812" cy="87.438" rx="22.813" ry="14.938"/>
	
		<ellipse transform="matrix(0.9661 0.2581 -0.2581 0.9661 51.8624 -148.6512)" fill="none" stroke="#FF4200" stroke-width="0.25" stroke-miterlimit="10" cx="592.205" cy="123.24" rx="24.666" ry="16.592"/>
	
		<ellipse transform="matrix(0.9241 0.3822 -0.3822 0.9241 143.8574 -194.7565)" fill="none" stroke="#FF4200" stroke-width="0.25" stroke-miterlimit="10" cx="562.085" cy="264.677" rx="28.389" ry="24.225"/>
	
		<ellipse transform="matrix(0.9976 -0.0686 0.0686 0.9976 -13.758 25.6425)" fill="none" stroke="#FF4200" stroke-width="0.25" stroke-miterlimit="10" cx="366.561" cy="213.183" rx="27.232" ry="21.21"/>
	
		<ellipse transform="matrix(0.9935 0.1137 -0.1137 0.9935 22.2951 -54.1944)" fill="none" stroke="#FF4200" stroke-width="0.25" stroke-miterlimit="10" cx="486.11" cy="168.298" rx="44.407" ry="32.972"/>
	
		<ellipse transform="matrix(0.9927 0.1202 -0.1202 0.9927 23.7928 -57.2402)" fill="none" stroke="#FF4200" stroke-width="0.25" stroke-miterlimit="10" cx="486.381" cy="168.607" rx="55.277" ry="41.74"/>
	
		<ellipse transform="matrix(0.9915 0.1298 -0.1298 0.9915 26.0981 -61.8165)" fill="none" stroke="#FF4200" stroke-width="0.25" stroke-miterlimit="10" cx="487.209" cy="169.275" rx="71.702" ry="52.985"/>
</g>
</svg>
