<?xml version="1.0" encoding="utf-8"?>
<!-- Generator: Adobe Illustrator 16.0.0, SVG Export Plug-In . SVG Version: 6.00 Build 0)  -->
<!DOCTYPE svg PUBLIC "-//W3C//DTD SVG 1.1 Tiny//EN" "http://www.w3.org/Graphics/SVG/1.1/DTD/svg11-tiny.dtd">
<svg version="1.1" baseProfile="tiny" id="图层_1"
	 xmlns="http://www.w3.org/2000/svg" xmlns:xlink="http://www.w3.org/1999/xlink" x="0px" y="0px" width="580px" height="220px"
	 viewBox="0 0 580 220" xml:space="preserve">
<g id="图层_1_2_">
	<g id="图层_1_1_">
		<image width="580" height="220" xlink:href="../x/053.jpg"  transform="matrix(1 0 0 1 -2.441406e-004 0)">
		</image>
	</g>
	<g id="图层_2">
		
			<ellipse transform="matrix(-0.9982 0.0607 -0.0607 -0.9982 207.9879 122.133)" fill="none" stroke="#FF0000" stroke-width="0.25" stroke-miterlimit="10" cx="102.139" cy="64.226" rx="26.41" ry="24.763"/>
		
			<ellipse transform="matrix(-0.9982 0.0606 -0.0606 -0.9982 221.507 249.5306)" fill="none" stroke="#FF0000" stroke-width="0.25" stroke-miterlimit="10" cx="106.967" cy="128.127" rx="10.305" ry="9.946"/>
		
			<ellipse transform="matrix(-0.9982 0.0607 -0.0607 -0.9982 318.0914 235.0868)" fill="none" stroke="#FF0000" stroke-width="0.25" stroke-miterlimit="10" cx="155.478" cy="122.371" rx="10.305" ry="9.786"/>
		
			<ellipse transform="matrix(-0.9981 0.0608 -0.0608 -0.9981 121.2912 263.0158)" fill="none" stroke="#FF0000" stroke-width="0.25" stroke-miterlimit="10" cx="56.641" cy="133.354" rx="10.642" ry="10.016"/>
		
			<ellipse transform="matrix(-0.9982 0.0608 -0.0608 -0.9982 127.4078 346.863)" fill="none" stroke="#FF0000" stroke-width="0.25" stroke-miterlimit="10" cx="58.427" cy="175.37" rx="10.61" ry="9.696"/>
		
			<ellipse transform="matrix(-0.9982 0.0607 -0.0607 -0.9982 225.1008 331.6557)" fill="none" stroke="#FF0000" stroke-width="0.25" stroke-miterlimit="10" cx="107.51" cy="169.249" rx="10.284" ry="9.596"/>
		
			<ellipse transform="matrix(-0.9982 0.0608 -0.0608 -0.9982 318.4564 316.4499)" fill="none" stroke="#FF0000" stroke-width="0.25" stroke-miterlimit="10" cx="154.414" cy="163.069" rx="9.719" ry="9.133"/>
		
			<ellipse fill="none" stroke="#FF0000" stroke-width="0.25" stroke-miterlimit="10" cx="168.781" cy="216.484" rx="5.25" ry="5.141"/>
		
			<ellipse transform="matrix(-0.9993 0.0372 -0.0372 -0.9993 76.0124 139.5863)" fill="none" stroke="#FF0000" stroke-width="0.25" stroke-miterlimit="10" cx="36.707" cy="70.5" rx="5.958" ry="5"/>
		
			<ellipse transform="matrix(-0.9973 0.0735 -0.0735 -0.9973 333.8245 105.6003)" fill="none" stroke="#FF0000" stroke-width="0.25" stroke-miterlimit="10" cx="164.969" cy="58.943" rx="5.802" ry="5"/>
		
			<ellipse transform="matrix(-0.7067 -0.7075 0.7075 -0.7067 492.0582 505.1542)" fill="none" stroke="#FF0000" stroke-width="0.25" stroke-miterlimit="10" cx="350.731" cy="150.589" rx="5.659" ry="6.282"/>
		
			<ellipse transform="matrix(-0.7068 -0.7075 0.7075 -0.7068 450.1923 536.5742)" fill="none" stroke="#FF0000" stroke-width="0.25" stroke-miterlimit="10" cx="336.301" cy="174.985" rx="5.659" ry="6.282"/>
		
			<ellipse transform="matrix(-0.766 -0.6428 0.6428 -0.766 461.933 568.8702)" fill="none" stroke="#FF0000" stroke-width="0.25" stroke-miterlimit="10" cx="334.495" cy="200.368" rx="5.832" ry="6.513"/>
		
			<ellipse transform="matrix(-0.766 -0.6428 0.6428 -0.766 467.5508 610.9471)" fill="none" stroke="#FF0000" stroke-width="0.25" stroke-miterlimit="10" cx="344.967" cy="220.38" rx="5.831" ry="6.512"/>
		
			<ellipse transform="matrix(-0.8509 -0.5253 0.5253 -0.8509 650.1387 598.9991)" fill="none" stroke="#FF0000" stroke-width="0.25" stroke-miterlimit="10" cx="410.061" cy="207.252" rx="5.165" ry="6.08"/>
		
			<ellipse transform="matrix(-0.9229 -0.3849 0.3849 -0.9229 744.246 516.053)" fill="none" stroke="#FF0000" stroke-width="0.25" stroke-miterlimit="10" cx="423.773" cy="183.537" rx="4.937" ry="6.011"/>
		
			<ellipse transform="matrix(-0.9991 -0.0424 0.0424 -0.9991 846.7346 338.5953)" fill="none" stroke="#FF0000" stroke-width="0.25" stroke-miterlimit="10" cx="426.96" cy="160.314" rx="4.938" ry="6.175"/>
		
			<ellipse transform="matrix(-0.9963 -0.0862 0.0862 -0.9963 824.3497 316.4907)" fill="none" stroke="#FF0000" stroke-width="0.25" stroke-miterlimit="10" cx="419.01" cy="140.443" rx="4.938" ry="6.175"/>
		
			<ellipse transform="matrix(-0.9963 -0.0864 0.0864 -0.9963 785.3105 295.9854)" fill="none" stroke="#FF0000" stroke-width="0.25" stroke-miterlimit="10" cx="399.064" cy="130.99" rx="5.078" ry="6.536"/>
		
			<ellipse transform="matrix(-1 -0.0096 0.0096 -1 746.996 271.676)" fill="none" stroke="#FF0000" stroke-width="0.25" stroke-miterlimit="10" cx="374.151" cy="134.043" rx="5.64" ry="6.536"/>
		
			<ellipse transform="matrix(-0.9976 0.0691 -0.0691 -0.9976 1039.9403 315.3637)" fill="none" stroke="#FF0000" stroke-width="0.25" stroke-miterlimit="10" cx="514.515" cy="175.669" rx="5.377" ry="6.666"/>
		
			<ellipse transform="matrix(-0.9976 0.069 -0.069 -0.9976 995.8417 290.0289)" fill="none" stroke="#FF0000" stroke-width="0.25" stroke-miterlimit="10" cx="492.913" cy="162.21" rx="5.252" ry="6.797"/>
		
			<ellipse transform="matrix(-0.9946 0.1036 -0.1036 -0.9946 958.1957 250.7224)" fill="none" stroke="#FF0000" stroke-width="0.25" stroke-miterlimit="10" cx="472.59" cy="150.234" rx="4.871" ry="6.798"/>
		
			<ellipse transform="matrix(-0.9946 0.1036 -0.1036 -0.9946 1065.2095 135.8294)" fill="none" stroke="#FF0000" stroke-width="0.25" stroke-miterlimit="10" cx="529.076" cy="95.588" rx="5.086" ry="7.111"/>
		
			<ellipse transform="matrix(-0.9946 0.1036 -0.1036 -0.9946 1017.1143 119.0736)" fill="none" stroke="#FF0000" stroke-width="0.25" stroke-miterlimit="10" cx="505.466" cy="85.945" rx="5.094" ry="7.12"/>
		
			<ellipse transform="matrix(-0.9985 0.0556 -0.0556 -0.9985 978.3923 71.1722)" fill="none" stroke="#FF0000" stroke-width="0.25" stroke-miterlimit="10" cx="488.207" cy="49.187" rx="5.04" ry="7.174"/>
		
			<ellipse transform="matrix(-0.9267 0.3758 -0.3758 -0.9267 505.3159 16.3761)" fill="none" stroke="#FF0000" stroke-width="0.25" stroke-miterlimit="10" cx="251.061" cy="57.471" rx="4.125" ry="4.534"/>
		
			<ellipse transform="matrix(-0.9267 0.3758 -0.3758 -0.9267 506.044 39.6178)" fill="none" stroke="#FF0000" stroke-width="0.25" stroke-miterlimit="10" cx="249.158" cy="69.165" rx="3.931" ry="4.226"/>
		
			<ellipse transform="matrix(-0.9267 0.3757 -0.3757 -0.9267 522.6555 52.1919)" fill="none" stroke="#FF0000" stroke-width="0.25" stroke-miterlimit="10" cx="256.24" cy="77.05" rx="3.931" ry="4.226"/>
		
			<ellipse transform="matrix(-0.9267 0.3757 -0.3757 -0.9267 534.0809 70.7105)" fill="none" stroke="#FF0000" stroke-width="0.25" stroke-miterlimit="10" cx="260.146" cy="87.431" rx="3.572" ry="4.113"/>
		
			<ellipse transform="matrix(-0.9267 0.3758 -0.3758 -0.9267 497.8499 -5.3433)" fill="none" stroke="#FF0000" stroke-width="0.25" stroke-miterlimit="10" cx="249.446" cy="45.881" rx="3.444" ry="4.114"/>
		
			<ellipse transform="matrix(-0.9267 0.3757 -0.3757 -0.9267 508.9173 -26.9957)" fill="none" stroke="#FF0000" stroke-width="0.25" stroke-miterlimit="10" cx="257.091" cy="36.119" rx="3.801" ry="4.828"/>
		
			<ellipse transform="matrix(-0.9487 0.3161 -0.3161 -0.9487 516.916 -33.7346)" fill="none" stroke="#FF0000" stroke-width="0.25" stroke-miterlimit="10" cx="261.194" cy="25.05" rx="3.366" ry="4.675"/>
		
			<ellipse transform="matrix(-0.9488 0.316 -0.316 -0.9488 527.7002 -74.0966)" fill="none" stroke="#FF0000" stroke-width="0.25" stroke-miterlimit="10" cx="269.858" cy="5.736" rx="3.88" ry="4.675"/>
		
			<ellipse transform="matrix(-0.9488 0.316 -0.316 -0.9488 568.8415 -83.0296)" fill="none" stroke="#FF0000" stroke-width="0.25" stroke-miterlimit="10" cx="291.153" cy="4.605" rx="3.88" ry="4.675"/>
		
			<ellipse transform="matrix(-0.9488 0.316 -0.316 -0.9488 607.7596 -91.2126)" fill="none" stroke="#FF0000" stroke-width="0.25" stroke-miterlimit="10" cx="311.275" cy="3.666" rx="3.881" ry="4.813"/>
		
			<ellipse transform="matrix(-0.9488 0.316 -0.316 -0.9488 632.894 -60.2488)" fill="none" stroke="#FF0000" stroke-width="0.25" stroke-miterlimit="10" cx="321.332" cy="21.194" rx="3.29" ry="4.251"/>
		
			<ellipse transform="matrix(-0.9488 0.316 -0.316 -0.9488 641.9291 -40.5981)" fill="none" stroke="#FF0000" stroke-width="0.25" stroke-miterlimit="10" cx="324.256" cy="31.747" rx="3.539" ry="4.322"/>
		
			<ellipse transform="matrix(-0.9488 0.3159 -0.3159 -0.9488 656.5502 -26.2714)" fill="none" stroke="#FF0000" stroke-width="0.25" stroke-miterlimit="10" cx="330.405" cy="40.082" rx="3.118" ry="4.072"/>
		
			<ellipse transform="matrix(-0.977 0.2131 -0.2131 -0.977 658.822 30.9994)" fill="none" stroke="#FF0000" stroke-width="0.25" stroke-miterlimit="10" cx="327.74" cy="51.003" rx="3.34" ry="4.43"/>
		
			<ellipse transform="matrix(-0.9767 0.2147 -0.2147 -0.9767 664.1097 52.1313)" fill="none" stroke="#FF0000" stroke-width="0.25" stroke-miterlimit="10" cx="329.224" cy="62.13" rx="3.341" ry="4.265"/>
		
			<ellipse transform="matrix(-0.9767 0.2147 -0.2147 -0.9767 652.2833 69.9147)" fill="none" stroke="#FF0000" stroke-width="0.25" stroke-miterlimit="10" cx="322.345" cy="70.379" rx="3.341" ry="4.265"/>
		
			<ellipse transform="matrix(-0.9495 -0.3137 0.3137 -0.9495 731.713 210.4039)" fill="none" stroke="#FF0000" stroke-width="0.25" stroke-miterlimit="10" cx="382.787" cy="46.324" rx="5.445" ry="7.194"/>
		
			<ellipse transform="matrix(-0.9991 0.0413 -0.0413 -0.9991 749.8495 102.6931)" fill="none" stroke="#FF0000" stroke-width="0.25" stroke-miterlimit="10" cx="373.864" cy="59.092" rx="2.335" ry="2.661"/>
		
			<ellipse transform="matrix(-0.9978 0.0667 -0.0667 -0.9978 807.0355 86.9578)" fill="none" stroke="#FF0000" stroke-width="0.25" stroke-miterlimit="10" cx="402.066" cy="56.956" rx="2.4" ry="2.832"/>
		
			<ellipse transform="matrix(-0.9953 -0.0971 0.0971 -0.9953 747.5621 104.8249)" fill="none" stroke="#FF0000" stroke-width="0.25" stroke-miterlimit="10" cx="376.331" cy="34.225" rx="2.638" ry="3.003"/>
		
			<ellipse transform="matrix(-0.9987 -0.0518 0.0518 -0.9987 805.899 86.6617)" fill="none" stroke="#FF0000" stroke-width="0.25" stroke-miterlimit="10" cx="404.073" cy="32.883" rx="2.638" ry="3.101"/>
		
			<ellipse transform="matrix(-0.9315 0.3637 -0.3637 -0.9315 398.465 -21.423)" fill="none" stroke="#FF0000" stroke-width="0.25" stroke-miterlimit="10" cx="201.249" cy="26.8" rx="2.174" ry="3.041"/>
		
			<ellipse transform="matrix(-0.9316 0.3635 -0.3635 -0.9316 397.07 -38.0803)" fill="none" stroke="#FF0000" stroke-width="0.25" stroke-miterlimit="10" cx="202.118" cy="18.32" rx="2.522" ry="3.213"/>
		
			<ellipse transform="matrix(-0.9316 0.3635 -0.3635 -0.9316 392.2366 -55.3378)" fill="none" stroke="#FF0000" stroke-width="0.25" stroke-miterlimit="10" cx="201.325" cy="9.236" rx="2.522" ry="3.213"/>
		
			<ellipse transform="matrix(-0.9316 0.3636 -0.3636 -0.9316 400.0001 -71.2114)" fill="none" stroke="#FF0000" stroke-width="0.25" stroke-miterlimit="10" cx="206.702" cy="2.039" rx="2.522" ry="3.213"/>
		
			<ellipse transform="matrix(-0.9316 -0.3634 0.3634 -0.9316 1066.1992 483.063)" fill="none" stroke="#FF0000" stroke-width="0.25" stroke-miterlimit="10" cx="578.541" cy="141.235" rx="11.902" ry="21.542"/>
		<ellipse fill="none" stroke="#FF0000" stroke-width="0.25" stroke-miterlimit="10" cx="275.333" cy="98.75" rx="2.5" ry="6.583"/>
		
			<ellipse fill="none" stroke="#FF0000" stroke-width="0.25" stroke-miterlimit="10" cx="288.5" cy="111.25" rx="2.833" ry="7.917"/>
		
			<ellipse fill="none" stroke="#FF0000" stroke-width="0.25" stroke-miterlimit="10" cx="303.5" cy="124.583" rx="2.833" ry="7.917"/>
		<ellipse fill="none" stroke="#FF0000" stroke-width="0.25" stroke-miterlimit="10" cx="298" cy="216.208" rx="2.833" ry="7.917"/>
		
			<ellipse fill="none" stroke="#FF0000" stroke-width="0.25" stroke-miterlimit="10" cx="285.5" cy="200.583" rx="2.833" ry="7.917"/>
		
			<ellipse fill="none" stroke="#FF0000" stroke-width="0.25" stroke-miterlimit="10" cx="272.75" cy="183.521" rx="2.833" ry="6.604"/>
		
			<ellipse transform="matrix(-0.9993 0.0372 -0.0372 -0.9993 91.0277 5.0316)" fill="none" stroke="#FF0000" stroke-width="0.25" stroke-miterlimit="10" cx="45.467" cy="3.363" rx="11.152" ry="8.106"/>
		
			<ellipse transform="matrix(-0.9993 0.0372 -0.0372 -0.9993 197.2155 -4.3985)" fill="none" stroke="#FF0000" stroke-width="0.25" stroke-miterlimit="10" cx="98.649" cy="-0.364" rx="10.583" ry="8.105"/>
		
			<ellipse transform="matrix(-0.9993 0.0372 -0.0372 -0.9993 301.5513 -12.3347)" fill="none" stroke="#FF0000" stroke-width="0.25" stroke-miterlimit="10" cx="150.89" cy="-3.363" rx="10.583" ry="8.105"/>
	</g>
</g>
<g id="图层_2_1_">
	
		<ellipse transform="matrix(0.6123 -0.7906 0.7906 0.6123 7.799 364.3421)" fill="none" stroke="#FC4100" stroke-miterlimit="10" cx="375.403" cy="174.219" rx="32.122" ry="25.585"/>
	
		<ellipse transform="matrix(-0.1549 -0.9879 0.9879 -0.1549 483.3865 566.8732)" fill="none" stroke="#FC4100" stroke-width="0.25" stroke-miterlimit="10" cx="484.152" cy="76.687" rx="6.333" ry="4.333"/>
	
		<ellipse transform="matrix(-0.0555 -0.9985 0.9985 -0.0555 481.1687 569.6489)" fill="none" stroke="#FC4100" stroke-width="0.25" stroke-miterlimit="10" cx="510.022" cy="57.237" rx="6.583" ry="5.167"/>
	
		<ellipse transform="matrix(-0.1373 -0.9905 0.9905 -0.1373 541.9503 603.5484)" fill="none" stroke="#FC4100" stroke-width="0.25" stroke-miterlimit="10" cx="533.805" cy="65.769" rx="7.408" ry="5.668"/>
	
		<ellipse fill="none" stroke="#FC4100" stroke-width="0.25" stroke-miterlimit="10" cx="356.437" cy="29.344" rx="3.563" ry="3.781"/>
	
		<ellipse fill="none" stroke="#FC4100" stroke-width="0.25" stroke-miterlimit="10" cx="291.167" cy="54.208" rx="11.333" ry="11.958"/>
	
		<ellipse transform="matrix(0.2677 -0.9635 0.9635 0.2677 162.2889 319.857)" fill="none" stroke="#FC4100" stroke-width="0.25" stroke-miterlimit="10" cx="291.565" cy="53.165" rx="25.029" ry="23.917"/>
	
		<ellipse transform="matrix(0.3309 -0.9437 0.9437 0.3309 212.6474 392.4651)" fill="none" stroke="#FC4100" stroke-width="0.25" stroke-miterlimit="10" cx="383.075" cy="46.281" rx="9.844" ry="7.876"/>
	
		<ellipse transform="matrix(-0.4398 -0.8981 0.8981 -0.4398 447.9713 416.547)" fill="none" stroke="#FC4100" stroke-width="0.25" stroke-miterlimit="10" cx="353.905" cy="68.553" rx="3.875" ry="3.157"/>
	
		<ellipse transform="matrix(-0.5326 -0.8464 0.8464 -0.5326 288.6758 226.3765)" fill="none" stroke="#FC4100" stroke-width="0.25" stroke-miterlimit="10" cx="206.845" cy="33.479" rx="2.952" ry="2.917"/>
	
		<ellipse transform="matrix(-0.5012 -0.8653 0.8653 -0.5012 279.4595 244.1943)" fill="none" stroke="#FC4100" stroke-width="0.25" stroke-miterlimit="10" cx="210.106" cy="41.558" rx="2.931" ry="2.312"/>
	
		<ellipse fill="none" stroke="#FC4100" stroke-width="0.25" stroke-miterlimit="10" cx="112.583" cy="223.168" rx="23.25" ry="19.165"/>
	
		<ellipse transform="matrix(0.5417 -0.8406 0.8406 0.5417 164.8483 535.1741)" fill="none" stroke="#FC4100" stroke-width="0.25" stroke-miterlimit="10" cx="573.178" cy="116.421" rx="3.812" ry="3.188"/>
	
		<ellipse transform="matrix(0.4296 -0.903 0.903 0.4296 195.2016 584.2614)" fill="none" stroke="#FC4100" stroke-width="0.25" stroke-miterlimit="10" cx="560.072" cy="137.619" rx="3.874" ry="3.424"/>
	
		<ellipse transform="matrix(0.3574 -0.934 0.934 0.3574 209.5623 621.6605)" fill="none" stroke="#FC4100" stroke-width="0.25" stroke-miterlimit="10" cx="556.517" cy="158.55" rx="3.688" ry="3.376"/>
	
		<ellipse transform="matrix(0.2999 -0.954 0.954 0.2999 225.9615 673.3374)" fill="none" stroke="#FC4100" stroke-width="0.25" stroke-miterlimit="10" cx="571.736" cy="182.718" rx="3.033" ry="3.562"/>
	
		<ellipse fill="none" stroke="#FC4100" stroke-width="0.25" stroke-miterlimit="10" cx="578.375" cy="43.938" rx="2.75" ry="3.125"/>
</g>
<ellipse transform="matrix(0.834 0.5518 -0.5518 0.834 189.6438 -280.1876)" fill="none" stroke="#FF4200" stroke-width="0.25" stroke-miterlimit="10" cx="560.412" cy="175.039" rx="3.771" ry="3.178"/>
<ellipse transform="matrix(0.8289 0.5594 -0.5594 0.8289 165.2285 -181.9178)" fill="none" stroke="#FF4200" stroke-width="0.25" stroke-miterlimit="10" cx="379.981" cy="179.127" rx="29.538" ry="38.809"/>
</svg>
