<?xml version="1.0" encoding="utf-8"?>
<!-- Generator: Adobe Illustrator 16.0.0, SVG Export Plug-In . SVG Version: 6.00 Build 0)  -->
<!DOCTYPE svg PUBLIC "-//W3C//DTD SVG 1.1 Tiny//EN" "http://www.w3.org/Graphics/SVG/1.1/DTD/svg11-tiny.dtd">
<svg version="1.1" baseProfile="tiny" xmlns="http://www.w3.org/2000/svg" xmlns:xlink="http://www.w3.org/1999/xlink" x="0px"
	 y="0px" width="412.5px" height="343.5px" viewBox="0 0 412.5 343.5" xml:space="preserve">
<g id="图层_1">
	<g id="图层_1_1_">
		<image width="550" height="458" xlink:href="../x/054.jpg"  transform="matrix(0.75 0 0 0.75 -4.882813e-004 2.441406e-004)">
		</image>
	</g>
	<g id="图层_2">
		
			<ellipse transform="matrix(0.5052 -0.863 0.863 0.5052 -178.8049 282.0401)" fill="none" stroke="#FF0000" stroke-width="0.25" stroke-miterlimit="10" cx="156.557" cy="296.951" rx="18.733" ry="16.862"/>
		
			<ellipse transform="matrix(0.6011 -0.7992 0.7992 0.6011 -174.0172 242.8563)" fill="none" stroke="#FF0000" stroke-width="0.25" stroke-miterlimit="10" cx="156.261" cy="295.741" rx="41.665" ry="37.886"/>
		
			<ellipse transform="matrix(0.3253 -0.9456 0.9456 0.3253 43.3047 501.9839)" fill="none" stroke="#FF0000" stroke-width="0.25" stroke-miterlimit="10" cx="373.428" cy="220.645" rx="17.65" ry="15.174"/>
		
			<ellipse transform="matrix(0.305 -0.9524 0.9524 0.305 223.653 374.2368)" fill="none" stroke="#FF0000" stroke-width="0.25" stroke-miterlimit="10" cx="368.235" cy="33.883" rx="12.085" ry="10.658"/>
		
			<ellipse transform="matrix(0.305 -0.9524 0.9524 0.305 -110.906 115.1294)" fill="none" stroke="#FF0000" stroke-width="0.25" stroke-miterlimit="10" cx="23.427" cy="133.552" rx="13.721" ry="12.807"/>
	</g>
</g>
<g id="图层_2_1_">
	
		<ellipse transform="matrix(0.9472 0.3207 -0.3207 0.9472 90.3602 -108.0573)" fill="none" stroke="#FF4200" stroke-width="0.25" stroke-miterlimit="10" cx="373.262" cy="220.322" rx="32.857" ry="38.66"/>
</g>
</svg>
