<?xml version="1.0" encoding="utf-8"?>
<!-- Generator: Adobe Illustrator 16.0.0, SVG Export Plug-In . SVG Version: 6.00 Build 0)  -->
<!DOCTYPE svg PUBLIC "-//W3C//DTD SVG 1.1 Tiny//EN" "http://www.w3.org/Graphics/SVG/1.1/DTD/svg11-tiny.dtd">
<svg version="1.1" baseProfile="tiny" xmlns="http://www.w3.org/2000/svg" xmlns:xlink="http://www.w3.org/1999/xlink" x="0px"
	 y="0px" width="458px" height="397px" viewBox="0 0 458 397" xml:space="preserve">
<g id="图层_1">
	<g id="图层_1_1_">
		<image width="458" height="397" xlink:href="../x/055.jpg"  transform="matrix(1 0 0 1 -2.441406e-004 2.441406e-004)">
		</image>
	</g>
	<g id="图层_2">
		
			<ellipse transform="matrix(0.1226 -0.9925 0.9925 0.1226 -210.8854 402.256)" fill="none" stroke="#FF0000" stroke-width="0.25" stroke-miterlimit="10" cx="122.058" cy="320.397" rx="8.496" ry="14.679"/>
		
			<ellipse transform="matrix(-0.0184 -0.9998 0.9998 -0.0184 77.004 605.7235)" fill="none" stroke="#FF0000" stroke-width="0.25" stroke-miterlimit="10" cx="335.845" cy="265.061" rx="9.189" ry="14.517"/>
		
			<ellipse transform="matrix(-0.0283 -0.9996 0.9996 -0.0283 -49.344 269.4619)" fill="none" stroke="#FF0000" stroke-width="0.25" stroke-miterlimit="10" cx="106.295" cy="158.714" rx="8.652" ry="11.209"/>
		
			<ellipse transform="matrix(-0.7176 -0.6965 0.6965 -0.7176 164.6645 435.2742)" fill="none" cx="170.583" cy="184.252" rx="9.669" ry="17.321"/>
		
			<ellipse transform="matrix(-0.7238 -0.6901 0.6901 -0.7238 165.979 434.3344)" fill="none" stroke="#FF0000" stroke-width="0.25" stroke-miterlimit="10" cx="169.927" cy="183.945" rx="9.796" ry="18.799"/>
	</g>
</g>
<g id="图层_2_1_">
	
		<ellipse transform="matrix(0.9989 -0.046 0.046 0.9989 -5.1858 5.3596)" fill="none" stroke="#FF4200" stroke-miterlimit="10" cx="113.75" cy="115.25" rx="40.5" ry="29.5"/>
	
		<ellipse transform="matrix(0.9965 -0.0841 0.0841 0.9965 -9.5657 9.8811)" fill="none" stroke="#FF4200" stroke-miterlimit="10" cx="112.54" cy="118.518" rx="87.478" ry="59.422"/>
	
		<ellipse transform="matrix(0.9948 0.1021 -0.1021 0.9948 8.573 -36.3218)" fill="none" stroke="#FF4200" stroke-miterlimit="10" cx="359.044" cy="65.572" rx="41.373" ry="27.329"/>
	
		<ellipse transform="matrix(0.9924 0.1233 -0.1233 0.9924 11.2405 -43.6778)" fill="none" stroke="#FF4200" stroke-miterlimit="10" cx="358.472" cy="68.968" rx="81.56" ry="54.125"/>
	
		<ellipse transform="matrix(0.997 0.0772 -0.0772 0.997 9.1259 -27.6952)" fill="none" stroke="#FF4200" stroke-miterlimit="10" cx="362.84" cy="104.209" rx="14.161" ry="9.75"/>
	
		<ellipse transform="matrix(0.5718 0.8204 -0.8204 0.5718 230.4233 -194.3855)" fill="none" stroke="#FF4200" stroke-miterlimit="10" cx="301.42" cy="123.538" rx="20.069" ry="12.046"/>
</g>
</svg>
