<?xml version="1.0" encoding="utf-8"?>
<!-- Generator: Adobe Illustrator 16.0.0, SVG Export Plug-In . SVG Version: 6.00 Build 0)  -->
<!DOCTYPE svg PUBLIC "-//W3C//DTD SVG 1.1 Tiny//EN" "http://www.w3.org/Graphics/SVG/1.1/DTD/svg11-tiny.dtd">
<svg version="1.1" baseProfile="tiny" xmlns="http://www.w3.org/2000/svg" xmlns:xlink="http://www.w3.org/1999/xlink" x="0px"
	 y="0px" width="500px" height="302px" viewBox="0 0 500 302" xml:space="preserve">
<g id="图层_1">
	<g id="图层_1_1_">
		<image width="500" height="302" xlink:href="../x/056.jpg"  transform="matrix(1 0 0 1 -2.441406e-004 2.441406e-004)">
		</image>
	</g>
	<g id="图层_2">
		
			<ellipse transform="matrix(-0.1223 -0.9925 0.9925 -0.1223 149.4251 645.2891)" fill="none" stroke="#FF0000" stroke-width="0.25" stroke-miterlimit="10" cx="360.037" cy="256.574" rx="11.042" ry="13.44"/>
		
			<ellipse transform="matrix(-0.1325 -0.9912 0.9912 -0.1325 238.6561 635.3205)" fill="none" stroke="#FF0000" stroke-width="0.25" stroke-miterlimit="10" cx="397.349" cy="213.222" rx="12.139" ry="14.053"/>
		
			<ellipse transform="matrix(-0.0776 -0.997 0.997 -0.0776 -42.5758 315.4313)" fill="none" cx="124.632" cy="177.411" rx="5.815" ry="13.473"/>
		
			<ellipse transform="matrix(-0.0776 -0.997 0.997 -0.0776 -112.5432 262.703)" fill="none" stroke="#FF0000" stroke-width="0.25" stroke-miterlimit="10" cx="65.256" cy="183.414" rx="5.815" ry="13.473"/>
		
			<ellipse transform="matrix(-0.091 -0.9958 0.9958 -0.091 -73.5025 246.5328)" fill="none" stroke="#FF0000" stroke-width="0.25" stroke-miterlimit="10" cx="75.762" cy="156.812" rx="5.815" ry="12.731"/>
		
			<ellipse transform="matrix(-0.0909 -0.9959 0.9959 -0.0909 -40.8519 317.5606)" fill="none" stroke="#FF0000" stroke-width="0.25" stroke-miterlimit="10" cx="124.516" cy="177.426" rx="5.815" ry="13.318"/>
		
			<ellipse transform="matrix(-0.091 -0.9959 0.9959 -0.091 65.9239 376.4362)" fill="none" stroke="#FF0000" stroke-width="0.25" stroke-miterlimit="10" cx="204.766" cy="158.131" rx="5.495" ry="12.699"/>
		
			<ellipse transform="matrix(-0.1001 -0.995 0.995 -0.1001 -2.8906 243.7424)" fill="none" stroke="#FF0000" stroke-width="0.25" stroke-miterlimit="10" cx="108.785" cy="123.178" rx="5.495" ry="12.161"/>
	</g>
</g>
<g id="图层_2_1_">
	
		<ellipse transform="matrix(0.9883 -0.1526 0.1526 0.9883 -29.8096 51.4809)" fill="none" stroke="#FF4200" stroke-width="0.25" stroke-miterlimit="10" cx="320.583" cy="220.002" rx="13.917" ry="12.499"/>
	
		<ellipse transform="matrix(0.9639 -0.2661 0.2661 0.9639 -35.3657 101.6702)" fill="none" stroke="#FF4200" stroke-width="0.25" stroke-miterlimit="10" cx="357.51" cy="181.345" rx="28.284" ry="25.111"/>
	
		<ellipse fill="none" stroke="#FF4200" stroke-width="0.25" stroke-miterlimit="10" cx="277.666" cy="147.75" rx="14.333" ry="12.583"/>
	
		<ellipse transform="matrix(0.9639 -0.2663 0.2663 0.9639 -20.2648 120.3839)" fill="none" stroke="#FF4200" stroke-width="0.25" stroke-miterlimit="10" cx="433.738" cy="134.911" rx="14.044" ry="12.202"/>
	
		<ellipse transform="matrix(0.9618 -0.2737 0.2737 0.9618 -34.8153 104.7745)" fill="none" stroke="#FF4200" stroke-width="0.25" stroke-miterlimit="10" cx="358.059" cy="177.15" rx="115.974" ry="101.892"/>
	
		<ellipse transform="matrix(0.9959 -0.0903 0.0903 0.9959 -13.8009 12.046)" fill="none" stroke="#FF4200" stroke-width="0.25" stroke-miterlimit="10" cx="126.291" cy="158.618" rx="105.774" ry="46.07"/>
	
		<ellipse transform="matrix(0.9981 -0.0619 0.0619 0.9981 -9.3228 8.1382)" fill="none" stroke="#FF4200" stroke-width="0.25" stroke-miterlimit="10" cx="126.626" cy="154.466" rx="25.53" ry="11.244"/>
	
		<ellipse transform="matrix(0.9952 -0.098 0.098 0.9952 -19.9919 13.8633)" fill="none" stroke="#FF4200" stroke-width="0.25" stroke-miterlimit="10" cx="131.148" cy="210.472" rx="103.173" ry="49.427"/>
</g>
</svg>
