<?xml version="1.0" encoding="utf-8"?>
<!-- Generator: Adobe Illustrator 16.0.0, SVG Export Plug-In . SVG Version: 6.00 Build 0)  -->
<!DOCTYPE svg PUBLIC "-//W3C//DTD SVG 1.1 Tiny//EN" "http://www.w3.org/Graphics/SVG/1.1/DTD/svg11-tiny.dtd">
<svg version="1.1" baseProfile="tiny" xmlns="http://www.w3.org/2000/svg" xmlns:xlink="http://www.w3.org/1999/xlink" x="0px"
	 y="0px" width="650px" height="382px" viewBox="0 0 650 382" xml:space="preserve">
<g id="图层_1">
	<g id="图层_1_1_">
		<image width="650" height="382" xlink:href="../x/060.jpg"  transform="matrix(1 0 0 1 -2.441406e-004 2.441406e-004)">
		</image>
	</g>
	<g id="图层_2">
		<ellipse fill="none" stroke="#FF0000" stroke-width="0.25" stroke-miterlimit="10" cx="140" cy="210.333" rx="30" ry="28.667"/>
		
			<ellipse transform="matrix(-0.4295 -0.9031 0.9031 -0.4295 614.4366 793.826)" fill="none" stroke="#FF0000" stroke-width="0.25" stroke-miterlimit="10" cx="557.964" cy="202.831" rx="29.668" ry="30.428"/>
		
			<ellipse transform="matrix(-0.5337 -0.8457 0.8457 -0.5337 367.285 575.0112)" fill="none" stroke="#FF0000" stroke-width="0.25" stroke-miterlimit="10" cx="342.164" cy="186.251" rx="154.17" ry="164.224"/>
		
			<ellipse fill="none" stroke="#FF0000" stroke-width="0.25" stroke-miterlimit="10" cx="411.563" cy="366.374" rx="12.438" ry="12.376"/>
		
			<ellipse transform="matrix(-0.0391 -0.9992 0.9992 -0.0391 282.0035 273.7603)" fill="none" stroke="#FF0000" stroke-width="0.25" stroke-miterlimit="10" cx="272.631" cy="1.287" rx="13.526" ry="13.308"/>
		
			<ellipse transform="matrix(-0.0391 -0.9992 0.9992 -0.0391 47.6299 273.2975)" fill="none" stroke="#FF0000" stroke-width="0.25" stroke-miterlimit="10" cx="155.222" cy="113.747" rx="13.376" ry="13.528"/>
		
			<ellipse transform="matrix(-0.5278 -0.8494 0.8494 -0.5278 364.527 566.4913)" fill="none" stroke="#FF0000" stroke-width="0.25" stroke-miterlimit="10" cx="339.735" cy="181.916" rx="231.582" ry="248.139"/>
		
			<ellipse transform="matrix(-0.5278 -0.8494 0.8494 -0.5278 358.9475 523.9529)" fill="none" stroke="#FF0000" stroke-width="0.25" stroke-miterlimit="10" cx="325.12" cy="162.198" rx="296.41" ry="314.352"/>
	</g>
</g>
<g id="图层_2_1_">
	<ellipse fill="none" stroke="#FF4200" stroke-miterlimit="10" cx="259.125" cy="369.958" rx="13.292" ry="12.042"/>
	<ellipse fill="none" stroke="#FF4200" stroke-miterlimit="10" cx="524.291" cy="261.167" rx="12.542" ry="11.75"/>
	<circle fill="none" stroke="#FF4200" stroke-miterlimit="10" cx="516.042" cy="333.125" r="14.208"/>
	<ellipse fill="none" stroke="#FF4200" stroke-miterlimit="10" cx="149.25" cy="363.25" rx="15.375" ry="14.5"/>
	<ellipse fill="none" stroke="#FF4200" stroke-miterlimit="10" cx="151.437" cy="268.875" rx="13.063" ry="11.5"/>
	
		<ellipse transform="matrix(0.9703 -0.2419 0.2419 0.9703 -59.4775 25.6172)" fill="none" stroke="#FF4200" stroke-miterlimit="10" cx="74.584" cy="255.023" rx="15.812" ry="14.51"/>
	
		<ellipse transform="matrix(0.9943 -0.1062 0.1062 0.9943 -12.3497 7.8595)" fill="none" stroke="#FF4200" stroke-miterlimit="10" cx="67.591" cy="119.839" rx="15.357" ry="14.832"/>
	<ellipse fill="none" stroke="#FF4200" stroke-miterlimit="10" cx="431.937" cy="2.5" rx="13.063" ry="12.625"/>
	<ellipse fill="none" stroke="#FF4200" stroke-miterlimit="10" cx="535.187" cy="110.625" rx="12.438" ry="12.625"/>
	
		<ellipse transform="matrix(0.9935 -0.1137 0.1137 0.9935 -6.0003 67.0932)" fill="none" stroke="#FF4200" stroke-miterlimit="10" cx="585.068" cy="86.139" rx="15.182" ry="15.25"/>
</g>
</svg>
