<?xml version="1.0" encoding="utf-8"?>
<!-- Generator: Adobe Illustrator 16.0.0, SVG Export Plug-In . SVG Version: 6.00 Build 0)  -->
<!DOCTYPE svg PUBLIC "-//W3C//DTD SVG 1.1 Tiny//EN" "http://www.w3.org/Graphics/SVG/1.1/DTD/svg11-tiny.dtd">
<svg version="1.1" baseProfile="tiny" xmlns="http://www.w3.org/2000/svg" xmlns:xlink="http://www.w3.org/1999/xlink" x="0px"
	 y="0px" width="397px" height="344px" viewBox="0 0 397 344" xml:space="preserve">
<g id="图层_1">
	<g id="图层_1_1_">
		<image width="397" height="344" xlink:href="../x/062.jpg"  transform="matrix(1 0 0 1 -4.882813e-004 2.441406e-004)">
		</image>
	</g>
	<g id="图层_2">
		
			<ellipse transform="matrix(-0.519 -0.8548 0.8548 -0.519 -90.5667 604.6321)" fill="none" stroke="#FF0000" stroke-width="0.25" stroke-miterlimit="10" cx="124.841" cy="327.799" rx="11.827" ry="8.417"/>
		
			<ellipse transform="matrix(-0.6248 -0.7808 0.7808 -0.6248 38.3969 616.752)" fill="none" stroke="#FF0000" stroke-width="0.25" stroke-miterlimit="10" cx="167.389" cy="299.15" rx="12.25" ry="8.782"/>
		
			<ellipse transform="matrix(-0.6248 -0.7808 0.7808 -0.6248 71.0586 574.4134)" fill="none" stroke="#FF0000" stroke-width="0.25" stroke-miterlimit="10" cx="173.547" cy="270.133" rx="9.15" ry="7.438"/>
		
			<ellipse transform="matrix(-0.5453 -0.8383 0.8383 -0.5453 -160.0476 361.4424)" fill="none" stroke="#FF0000" stroke-width="0.25" stroke-miterlimit="10" cx="18.014" cy="224.133" rx="8.699" ry="6.234"/>
		
			<ellipse transform="matrix(-0.5453 -0.8382 0.8382 -0.5453 -145.2315 403.5629)" fill="none" stroke="#FF0000" stroke-width="0.25" stroke-miterlimit="10" cx="36.841" cy="241.172" rx="7.86" ry="5.292"/>
		
			<ellipse transform="matrix(-0.5453 -0.8383 0.8383 -0.5453 -104.6947 374.8035)" fill="none" stroke="#FF0000" stroke-width="0.25" stroke-miterlimit="10" cx="49.314" cy="215.799" rx="7.815" ry="5.292"/>
		
			<ellipse transform="matrix(-0.5453 -0.8383 0.8383 -0.5453 -156.538 466.1741)" fill="none" stroke="#FF0000" stroke-width="0.25" stroke-miterlimit="10" cx="48.174" cy="275.546" rx="7.434" ry="5.292"/>
		
			<ellipse transform="matrix(-0.5628 -0.8266 0.8266 -0.5628 -79.9445 555.6649)" fill="none" stroke="#FF0000" stroke-width="0.25" stroke-miterlimit="10" cx="106.978" cy="298.974" rx="7.706" ry="5.293"/>
		
			<ellipse transform="matrix(-0.5628 -0.8266 0.8266 -0.5628 -37.5742 527.7985)" fill="none" stroke="#FF0000" stroke-width="0.25" stroke-miterlimit="10" cx="120.788" cy="273.836" rx="7.848" ry="5.292"/>
		
			<ellipse transform="matrix(-0.5818 -0.8134 0.8134 -0.5818 -20.6857 466.2924)" fill="none" stroke="#FF0000" stroke-width="0.25" stroke-miterlimit="10" cx="109.543" cy="238.465" rx="7.849" ry="5.801"/>
		
			<ellipse transform="matrix(-0.5467 -0.8373 0.8373 -0.5467 9.4655 258.6198)" fill="none" stroke="#FF0000" stroke-width="0.25" stroke-miterlimit="10" cx="74.736" cy="126.748" rx="7.684" ry="7.144"/>
	</g>
</g>
<g id="图层_2_1_">
	
		<ellipse transform="matrix(0.7016 0.7125 -0.7125 0.7016 238.6659 42.8606)" fill="none" stroke="#FF4200" stroke-miterlimit="10" cx="68.156" cy="306.406" rx="11.976" ry="8.484"/>
	
		<ellipse transform="matrix(0.6954 0.7186 -0.7186 0.6954 191.3503 57.8958)" fill="none" stroke="#FF4200" stroke-miterlimit="10" cx="27.379" cy="254.672" rx="12.761" ry="8.936"/>
	
		<ellipse transform="matrix(0.5393 0.8421 -0.8421 0.5393 173.9445 71.6132)" fill="none" stroke="#FF4200" stroke-width="0.25" stroke-miterlimit="10" cx="21.525" cy="194.775" rx="12.051" ry="7.998"/>
	
		<ellipse transform="matrix(0.8921 -0.4518 0.4518 0.8921 -66.409 44.2208)" fill="none" stroke="#FF4200" stroke-width="0.25" stroke-miterlimit="10" cx="59.387" cy="161.161" rx="8.991" ry="12.545"/>
	
		<ellipse transform="matrix(0.5629 0.8265 -0.8265 0.5629 199.0957 -22.8245)" fill="none" stroke="#FF4200" stroke-width="0.25" stroke-miterlimit="10" cx="121.127" cy="176.818" rx="12.721" ry="9.706"/>
	
		<ellipse transform="matrix(0.6153 0.7883 -0.7883 0.6153 250.1245 -41.2002)" fill="none" stroke="#FF4200" stroke-width="0.25" stroke-miterlimit="10" cx="167.277" cy="235.686" rx="12.634" ry="9.506"/>
	
		<ellipse transform="matrix(0.652 0.7582 -0.7582 0.652 190.7717 23.1462)" fill="none" stroke="#FF4200" stroke-width="0.25" stroke-miterlimit="10" cx="70.17" cy="219.4" rx="12.477" ry="8.781"/>
	
		<ellipse transform="matrix(0.6255 0.7802 -0.7802 0.6255 229.8421 34.76)" fill="none" stroke="#FF4200" stroke-width="0.25" stroke-miterlimit="10" cx="78.712" cy="256.806" rx="34.847" ry="24.251"/>
	
		<ellipse transform="matrix(0.7964 -0.6047 0.6047 0.7964 -138.4393 100.0773)" fill="none" stroke="#FF4200" stroke-width="0.25" stroke-miterlimit="10" cx="79.431" cy="255.67" rx="46.945" ry="64.861"/>
	
		<ellipse transform="matrix(0.6235 0.7818 -0.7818 0.6235 226.0397 16.2013)" fill="none" stroke="#FF4200" stroke-width="0.25" stroke-miterlimit="10" cx="96.199" cy="242.788" rx="107.8" ry="77.331"/>
	
		<ellipse transform="matrix(0.6612 0.7502 -0.7502 0.6612 293.0237 -74.7258)" fill="none" stroke="#FF4200" stroke-width="0.25" stroke-miterlimit="10" cx="229.245" cy="287.059" rx="14.048" ry="10.793"/>
	
		<ellipse transform="matrix(0.722 0.6919 -0.6919 0.722 249.3715 -111.9201)" fill="none" stroke="#FF4200" stroke-width="0.25" stroke-miterlimit="10" cx="263.962" cy="254.364" rx="8.479" ry="6.596"/>
	
		<ellipse transform="matrix(0.6618 0.7497 -0.7497 0.6618 243.3507 -137.0099)" fill="none" stroke="#FF4200" stroke-width="0.25" stroke-miterlimit="10" cx="273.53" cy="201.213" rx="14.853" ry="12.233"/>
	
		<ellipse transform="matrix(0.5927 0.8054 -0.8054 0.5927 161.2264 -128.6962)" fill="none" stroke="#FF4200" stroke-width="0.25" stroke-miterlimit="10" cx="207.853" cy="95.054" rx="15.259" ry="12.381"/>
	
		<ellipse transform="matrix(0.625 0.7806 -0.7806 0.625 107.5024 -47.5321)" fill="none" stroke="#FF4200" stroke-width="0.25" stroke-miterlimit="10" cx="103.222" cy="88.12" rx="14.748" ry="11.42"/>
	
		<ellipse transform="matrix(0.7748 -0.6322 0.6322 0.7748 -76.6062 150.6244)" fill="none" stroke="#FF4200" stroke-width="0.25" stroke-miterlimit="10" cx="173.134" cy="182.847" rx="105.892" ry="137.179"/>
</g>
</svg>
