<?xml version="1.0" encoding="iso-8859-1"?>
<!-- Generator: Adobe Illustrator 16.0.0, SVG Export Plug-In . SVG Version: 6.00 Build 0)  -->
<!DOCTYPE svg PUBLIC "-//W3C//DTD SVG 1.1//EN" "http://www.w3.org/Graphics/SVG/1.1/DTD/svg11.dtd">
<svg version="1.1" xmlns="http://www.w3.org/2000/svg" xmlns:xlink="http://www.w3.org/1999/xlink" x="0px" y="0px" width="640px"
	 height="478px" viewBox="0 0 640 478" style="enable-background:new 0 0 640 478;" xml:space="preserve">
<g id="&#x56FE;&#x5C42;_1">
	<image style="overflow:visible;" width="640" height="478" xlink:href="../x/063.jpg" >
	</image>
</g>
<g id="&#x56FE;&#x5C42;_2">
	
		<ellipse transform="matrix(0.9997 -0.0231 0.0231 0.9997 -3.696 5.2462)" style="fill:none;stroke:#FF0000;stroke-width:0.25;stroke-miterlimit:10;" cx="224.825" cy="162.319" rx="69.166" ry="48.348"/>
	
		<ellipse transform="matrix(0.997 -0.0776 0.0776 0.997 -12.5326 17.9801)" style="fill:none;stroke:#FF0000;stroke-width:0.25;stroke-miterlimit:10;" cx="225.2" cy="170.329" rx="102.568" ry="71.353"/>
	
		<ellipse transform="matrix(0.9456 -0.3254 0.3254 0.9456 -107.4679 60.8147)" style="fill:none;stroke:#FF0000;stroke-width:0.25;stroke-miterlimit:10;" cx="128.089" cy="351.714" rx="18.113" ry="15.5"/>
	
		<ellipse transform="matrix(0.9677 0.2519 -0.2519 0.9677 99.943 -71.3627)" style="fill:none;stroke:#FF0000;stroke-width:0.25;stroke-miterlimit:10;" cx="328.675" cy="354.642" rx="16.808" ry="15.501"/>
	
		<ellipse transform="matrix(0.9952 -0.0976 0.0976 0.9952 -28.5917 23.994)" style="fill:none;stroke:#FF0000;stroke-width:0.25;stroke-miterlimit:10;" cx="230.991" cy="304.286" rx="183.556" ry="149.339"/>
	
		<ellipse transform="matrix(0.9957 -0.0921 0.0921 0.9957 -24.6577 22.9593)" style="fill:none;stroke:#FF0000;stroke-width:0.25;stroke-miterlimit:10;" cx="236.389" cy="278.597" rx="83.822" ry="65.483"/>
	
		<ellipse transform="matrix(0.9884 0.1519 -0.1519 0.9884 17.2939 -63.7045)" style="fill:none;stroke:#FF0000;stroke-width:0.25;stroke-miterlimit:10;" cx="425.723" cy="81.372" rx="44.441" ry="27.952"/>
	
		<ellipse transform="matrix(0.9884 0.1519 -0.1519 0.9884 16.5538 -63.789)" style="fill:none;stroke:#FF0000;stroke-width:0.25;stroke-miterlimit:10;" cx="425.898" cy="76.482" rx="12.243" ry="7.7"/>
</g>
</svg>
