<?xml version="1.0" encoding="utf-8"?>
<!-- Generator: Adobe Illustrator 16.0.0, SVG Export Plug-In . SVG Version: 6.00 Build 0)  -->
<!DOCTYPE svg PUBLIC "-//W3C//DTD SVG 1.1 Tiny//EN" "http://www.w3.org/Graphics/SVG/1.1/DTD/svg11-tiny.dtd">
<svg version="1.1" baseProfile="tiny" xmlns="http://www.w3.org/2000/svg" xmlns:xlink="http://www.w3.org/1999/xlink" x="0px"
	 y="0px" width="412.5px" height="428.25px" viewBox="0 0 412.5 428.25" xml:space="preserve">
<g id="图层_1">
	<g id="图层_1_1_">
		<image width="550" height="571" xlink:href="../x/064.jpg"  transform="matrix(0.75 0 0 0.75 -4.882813e-004 2.441406e-004)">
		</image>
	</g>
	<g id="图层_2">
		
			<ellipse transform="matrix(-0.056 -0.9984 0.9984 -0.056 -33.053 384.4905)" fill="none" stroke="#FF0000" stroke-width="0.25" stroke-miterlimit="10" cx="165.239" cy="207.871" rx="13.921" ry="27.095"/>
		
			<ellipse transform="matrix(-0.1358 -0.9907 0.9907 -0.1358 -79.2199 220.3177)" fill="none" stroke="#FF0000" stroke-width="0.25" stroke-miterlimit="10" cx="56.478" cy="144.709" rx="10.305" ry="23.757"/>
		
			<ellipse transform="matrix(0.0135 -0.9999 0.9999 0.0135 172.742 500.6016)" fill="none" stroke="#FF0000" stroke-width="0.25" stroke-miterlimit="10" cx="340.069" cy="162.758" rx="11.99" ry="25.822"/>
		
			<ellipse transform="matrix(0.0135 -0.9999 0.9999 0.0135 212.9635 392.7624)" fill="none" stroke="#FF0000" stroke-width="0.25" stroke-miterlimit="10" cx="305.538" cy="88.449" rx="8.878" ry="21.013"/>
		
			<ellipse transform="matrix(0.0135 -0.9999 0.9999 0.0135 236.0932 477.773)" fill="none" stroke="#FF0000" stroke-width="0.25" stroke-miterlimit="10" cx="360.181" cy="119.235" rx="4.629" ry="10.566"/>
		
			<ellipse transform="matrix(0.0134 -0.9999 0.9999 0.0134 67.8226 478.0265)" fill="none" stroke="#FF0000" stroke-width="0.25" stroke-miterlimit="10" cx="276.157" cy="204.643" rx="6.47" ry="12.229"/>
		
			<ellipse transform="matrix(-0.1182 -0.993 0.993 -0.1182 -108.0444 282.2085)" fill="none" stroke="#FF0000" stroke-width="0.25" stroke-miterlimit="10" cx="71.286" cy="189.079" rx="5.708" ry="11.688"/>
		
			<ellipse transform="matrix(-0.1182 -0.993 0.993 -0.1182 -17.2147 194.0605)" fill="none" stroke="#FF0000" stroke-width="0.25" stroke-miterlimit="10" cx="77.555" cy="104.674" rx="4.256" ry="9.507"/>
		
			<ellipse transform="matrix(-0.1181 -0.993 0.993 -0.1181 26.976 191.9611)" fill="none" stroke="#FF0000" stroke-width="0.25" stroke-miterlimit="10" cx="98.729" cy="84.002" rx="1.571" ry="3.511"/>
		
			<ellipse transform="matrix(-0.1181 -0.993 0.993 -0.1181 -81.4732 173.2339)" fill="none" stroke="#FF0000" stroke-width="0.25" stroke-miterlimit="10" cx="36.189" cy="122.796" rx="1.571" ry="3.511"/>
		
			<ellipse transform="matrix(-0.1181 -0.993 0.993 -0.1181 -140.4198 221.2961)" fill="none" stroke="#FF0000" stroke-width="0.25" stroke-miterlimit="10" cx="28.054" cy="173" rx="1.99" ry="4.446"/>
		
			<ellipse transform="matrix(-0.1181 -0.993 0.993 -0.1181 -107.9697 337.3912)" fill="none" stroke="#FF0000" stroke-width="0.25" stroke-miterlimit="10" cx="95.833" cy="216.639" rx="2.226" ry="4.763"/>
		
			<ellipse transform="matrix(-0.0744 -0.9972 0.9972 -0.0744 12.4454 466.5037)" fill="none" stroke="#FF0000" stroke-width="0.25" stroke-miterlimit="10" cx="222.712" cy="227.476" rx="2.532" ry="4.762"/>
		
			<ellipse transform="matrix(0.0304 -0.9995 0.9995 0.0304 134.3664 529.861)" fill="none" stroke="#FF0000" stroke-width="0.25" stroke-miterlimit="10" cx="340.295" cy="195.673" rx="2.698" ry="4.563"/>
		
			<ellipse transform="matrix(0.0305 -0.9995 0.9995 0.0305 232.3849 525.0683)" fill="none" stroke="#FF0000" stroke-width="0.25" stroke-miterlimit="10" cx="386.866" cy="142.74" rx="2.224" ry="4.157"/>
		
			<ellipse transform="matrix(0.0083 -1 1 0.0083 259.9608 453.9131)" fill="none" stroke="#FF0000" stroke-width="0.25" stroke-miterlimit="10" cx="358.822" cy="95.897" rx="1.948" ry="3.612"/>
		
			<ellipse transform="matrix(0.0084 -1 1 0.0084 97.9249 255.1912)" fill="none" stroke="#FF0000" stroke-width="0.25" stroke-miterlimit="10" cx="177.634" cy="78.22" rx="1.949" ry="4.044"/>
		
			<ellipse transform="matrix(-0.0933 -0.9956 0.9956 -0.0933 72.342 169.5994)" fill="none" stroke="#FF0000" stroke-width="0.25" stroke-miterlimit="10" cx="113.394" cy="51.861" rx="1.949" ry="3.813"/>
		
			<ellipse transform="matrix(-0.0189 -0.9998 0.9998 -0.0189 150.441 188.0483)" fill="none" stroke="#FF0000" stroke-width="0.25" stroke-miterlimit="10" cx="167.48" cy="20.216" rx="1.843" ry="3.813"/>
		
			<ellipse transform="matrix(0.2474 -0.9689 0.9689 0.2474 119.5363 354.4196)" fill="none" stroke="#FF0000" stroke-width="0.25" stroke-miterlimit="10" cx="287.909" cy="100.264" rx="3.501" ry="1.782"/>
		
			<ellipse transform="matrix(0.2083 -0.9781 0.9781 0.2083 120.691 527.8856)" fill="none" stroke="#FF0000" stroke-width="0.25" stroke-miterlimit="10" cx="386.432" cy="189.389" rx="3.6" ry="1.462"/>
		
			<ellipse transform="matrix(0.6827 -0.7307 0.7307 0.6827 -179.0714 332.6513)" fill="none" stroke="#FF0000" stroke-width="0.25" stroke-miterlimit="10" cx="293.478" cy="372.508" rx="3.243" ry="2.119"/>
		
			<ellipse transform="matrix(0.5033 0.8641 -0.8641 0.5033 328.9944 116.5745)" fill="none" stroke="#FF0000" stroke-width="0.25" stroke-miterlimit="10" cx="63.091" cy="344.474" rx="3.23" ry="1.477"/>
	</g>
	
		<ellipse transform="matrix(0.9217 0.3879 -0.3879 0.9217 164.6519 -33.5161)" fill="none" stroke="#FF4200" stroke-width="0.25" stroke-miterlimit="10" cx="165.347" cy="391.091" rx="5.375" ry="3.734"/>
	
		<ellipse transform="matrix(0.9629 0.2697 -0.2697 0.9629 73.9928 -31.8791)" fill="none" stroke="#FF4200" stroke-width="0.25" stroke-miterlimit="10" cx="152.992" cy="253.291" rx="3.975" ry="3.218"/>
	
		<ellipse transform="matrix(0.28 -0.96 0.96 0.28 -38.987 594.8583)" fill="none" stroke="#FF4200" stroke-width="0.25" stroke-miterlimit="10" cx="377.067" cy="323.42" rx="4.773" ry="1.495"/>
	
		<ellipse fill="none" stroke="#FF4200" stroke-width="0.25" stroke-miterlimit="10" cx="342.667" cy="295.958" rx="37.583" ry="26.5"/>
	
		<ellipse fill="none" stroke="#FF4200" stroke-width="0.25" stroke-miterlimit="10" cx="341.083" cy="295.041" rx="17.667" ry="13.084"/>
	
		<ellipse fill="none" stroke="#FF4200" stroke-width="0.25" stroke-miterlimit="10" cx="176.792" cy="125.625" rx="3.875" ry="3.5"/>
	
		<ellipse fill="none" stroke="#FF4200" stroke-width="0.25" stroke-miterlimit="10" cx="275.125" cy="57.834" rx="4.042" ry="1.625"/>
	
		<ellipse fill="none" stroke="#FF4200" stroke-width="0.25" stroke-miterlimit="10" cx="259.875" cy="22.781" rx="3.75" ry="1.531"/>
	
		<ellipse transform="matrix(0.9984 -0.0559 0.0559 0.9984 -2.3922 11.2059)" fill="none" stroke="#FF4200" stroke-width="0.25" stroke-miterlimit="10" cx="199.004" cy="48.341" rx="96.181" ry="35.119"/>
	
		<ellipse transform="matrix(0.9981 -0.0612 0.0612 0.9981 -2.5095 12.2461)" fill="none" stroke="#FF0000" stroke-width="0.25" stroke-miterlimit="10" cx="198.638" cy="47.085" rx="78.488" ry="28.409"/>
	
		<ellipse transform="matrix(0.9986 -0.0533 0.0533 0.9986 -7.6233 11.177)" fill="none" stroke="#FF0000" stroke-width="0.25" stroke-miterlimit="10" cx="205.837" cy="148.58" rx="195.082" ry="87.633"/>
</g>
<g id="图层_2_1_">
	
		<ellipse transform="matrix(0.9977 -0.0679 0.0679 0.9977 -22.8426 12.7145)" fill="none" stroke="#FF4200" stroke-miterlimit="10" cx="175.75" cy="342.625" rx="25" ry="15.667"/>
	
		<ellipse transform="matrix(0.9949 -0.1004 0.1004 0.9949 -33.6265 19.2734)" fill="none" stroke="#FF4200" stroke-miterlimit="10" cx="174.646" cy="343.677" rx="48.083" ry="30.955"/>
</g>
</svg>
