<?xml version="1.0" encoding="utf-8"?>
<!-- Generator: Adobe Illustrator 16.0.0, SVG Export Plug-In . SVG Version: 6.00 Build 0)  -->
<!DOCTYPE svg PUBLIC "-//W3C//DTD SVG 1.1 Tiny//EN" "http://www.w3.org/Graphics/SVG/1.1/DTD/svg11-tiny.dtd">
<svg version="1.1" baseProfile="tiny" xmlns="http://www.w3.org/2000/svg" xmlns:xlink="http://www.w3.org/1999/xlink" x="0px"
	 y="0px" width="1196px" height="1080px" viewBox="0 0 1196 1080" xml:space="preserve">
<g id="图层_1">
	<g id="图层_1_1_">
		<image width="1196" height="1080" xlink:href="../x/065.jpg"  transform="matrix(1 0 0 1 -2.441406e-004 2.441406e-004)">
		</image>
	</g>
	<g id="图层_2">
		<ellipse fill="none" stroke="#FF0000" stroke-miterlimit="10" cx="609.75" cy="597" rx="54.75" ry="48.5"/>
		<ellipse fill="none" stroke="#FF0000" stroke-miterlimit="10" cx="609.066" cy="595.75" rx="83.566" ry="74.75"/>
		<ellipse fill="none" stroke="#FF0000" stroke-miterlimit="10" cx="606" cy="544.75" rx="107.5" ry="101.25"/>
		<ellipse fill="none" stroke="#FF0000" stroke-miterlimit="10" cx="451" cy="708.625" rx="34.289" ry="30.375"/>
		<ellipse fill="none" stroke="#FF0000" stroke-miterlimit="10" cx="763.166" cy="703.959" rx="34.289" ry="30.375"/>
		
			<ellipse transform="matrix(-0.701 -0.7132 0.7132 -0.701 1035.3652 1247.3356)" fill="none" stroke="#FF0000" stroke-miterlimit="10" cx="779.173" cy="406.615" rx="36.209" ry="40.419"/>
		
			<ellipse transform="matrix(-0.701 -0.7132 0.7132 -0.701 445.0416 1005.8059)" fill="none" stroke="#FF0000" stroke-miterlimit="10" cx="433.377" cy="409.605" rx="39.244" ry="40.419"/>
		
			<ellipse transform="matrix(-0.7938 -0.6081 0.6081 -0.7938 253.1533 676.1066)" fill="none" stroke="#FF0000" stroke-miterlimit="10" cx="241.179" cy="295.143" rx="37.677" ry="33.826"/>
		
			<ellipse transform="matrix(-0.9644 -0.2645 0.2645 -0.9644 389.895 1823.3765)" fill="none" stroke="#FF0000" stroke-miterlimit="10" cx="317.703" cy="885.439" rx="29.916" ry="24.355"/>
		
			<ellipse transform="matrix(-0.9285 0.3714 -0.3714 -0.9285 2072.6597 1335.8466)" fill="none" stroke="#FF0000" stroke-miterlimit="10" cx="907.699" cy="867.502" rx="29.916" ry="23.127"/>
		
			<ellipse transform="matrix(-0.8221 0.5693 -0.5693 -0.8221 1919.522 -37.2373)" fill="none" stroke="#FF0000" stroke-miterlimit="10" cx="965.578" cy="281.257" rx="36.063" ry="33.522"/>
	</g>
</g>
<g id="图层_2_1_">
	<ellipse fill="none" stroke="#FF4200" stroke-miterlimit="10" cx="605.84" cy="529.841" rx="276.736" ry="258.737"/>
	<ellipse fill="none" stroke="#FF4200" stroke-miterlimit="10" cx="608.09" cy="575.589" rx="352.482" ry="322.483"/>
	<ellipse fill="none" stroke="#FF4200" stroke-miterlimit="10" cx="602.25" cy="534.25" rx="516.25" ry="471.75"/>
	<ellipse fill="none" stroke="#FF4200" stroke-miterlimit="10" cx="605.84" cy="564.34" rx="318.734" ry="290.235"/>
</g>
</svg>
