<?xml version="1.0" encoding="utf-8"?>
<!-- Generator: Adobe Illustrator 16.0.0, SVG Export Plug-In . SVG Version: 6.00 Build 0)  -->
<!DOCTYPE svg PUBLIC "-//W3C//DTD SVG 1.1 Tiny//EN" "http://www.w3.org/Graphics/SVG/1.1/DTD/svg11-tiny.dtd">
<svg version="1.1" baseProfile="tiny" xmlns="http://www.w3.org/2000/svg" xmlns:xlink="http://www.w3.org/1999/xlink" x="0px"
	 y="0px" width="800px" height="533px" viewBox="0 0 800 533" xml:space="preserve">
<g id="图层_1">
	<g id="图层_1_1_">
		<image width="800" height="533" xlink:href="../x/066.jpg"  transform="matrix(1 0 0 1 -2.441406e-004 2.441406e-004)">
		</image>
	</g>
	<g id="图层_2">
		<ellipse fill="none" stroke="#FF0000" stroke-width="0.25" stroke-miterlimit="10" cx="308.5" cy="305.5" rx="24.5" ry="12.5"/>
		<ellipse fill="none" stroke="#FF0000" stroke-width="0.25" stroke-miterlimit="10" cx="515.25" cy="342.25" rx="24.5" ry="14.5"/>
		
			<ellipse transform="matrix(0.0287 -0.9996 0.9996 0.0287 365.895 916.9305)" fill="none" stroke="#FF0000" stroke-width="0.25" stroke-miterlimit="10" cx="654.758" cy="270.193" rx="12.563" ry="24.875"/>
		
			<ellipse transform="matrix(0.0287 -0.9996 0.9996 0.0287 422.0271 834.9799)" fill="none" stroke="#FF0000" stroke-width="0.25" stroke-miterlimit="10" cx="640.666" cy="200.329" rx="13.827" ry="14.633"/>
		
			<ellipse transform="matrix(0.0287 -0.9996 0.9996 0.0287 241.4081 531.5547)" fill="none" stroke="#FF0000" stroke-width="0.25" stroke-miterlimit="10" cx="394.222" cy="141.558" rx="13.389" ry="13.11"/>
		
			<ellipse transform="matrix(-0.0129 -0.9999 0.9999 -0.0129 193.2729 474.7839)" fill="none" stroke="#FF0000" stroke-width="0.25" stroke-miterlimit="10" cx="330.975" cy="141.998" rx="7.168" ry="17.686"/>
		
			<ellipse transform="matrix(0.3774 -0.926 0.926 0.3774 239.0058 553.3164)" fill="none" stroke="#FF0000" stroke-width="0.25" stroke-miterlimit="10" cx="531.011" cy="98.906" rx="101.47" ry="107.995"/>
		
			<ellipse transform="matrix(0.3774 -0.926 0.926 0.3774 245.3409 552.1953)" fill="none" stroke="#FF0000" stroke-width="0.25" stroke-miterlimit="10" cx="533.344" cy="93.635" rx="183.374" ry="201.296"/>
	</g>
</g>
<g id="图层_2_1_">
	
		<ellipse transform="matrix(0.9924 -0.1227 0.1227 0.9924 -35.3319 7.0571)" fill="none" stroke="#FF4200" stroke-miterlimit="10" cx="39.619" cy="290.329" rx="20.482" ry="8.675"/>
</g>
</svg>
